<?xml version="1.0" standalone="no"?>
<!DOCTYPE svg PUBLIC "-//W3C//DTD SVG 1.1//EN" "http://www.w3.org/Graphics/SVG/1.1/DTD/svg11.dtd" >
<svg xmlns="http://www.w3.org/2000/svg" xmlns:xlink="http://www.w3.org/1999/xlink" version="1.1">
<metadata>
Created by FontForge 20161013 at Tue Apr  4 14:49:13 2017
 By ,,,
AndreySharoyko
</metadata>
<defs>
<font id="VEFlomasticaCyrillic" horiz-adv-x="721" >
  <font-face 
    font-family="VEFlomasticaCyrillic"
    font-weight="500"
    font-stretch="normal"
    units-per-em="1000"
    panose-1="2 0 6 3 0 0 0 0 0 0"
    ascent="800"
    descent="-200"
    x-height="522"
    cap-height="733"
    bbox="-184.533 -344.8 1243.57 1128"
    underline-thickness="50"
    underline-position="-200"
    unicode-range="U+0020-FB06"
  />
<missing-glyph horiz-adv-x="364" 
d="M66 33h199v600h-199v-600zM33 0v666h265v-666h-265z" />
    <glyph glyph-name=".notdef" horiz-adv-x="364" 
d="M66 33h199v600h-199v-600zM33 0v666h265v-666h-265z" />
    <glyph glyph-name=".null" horiz-adv-x="0" 
 />
    <glyph glyph-name="nonmarkingreturn" horiz-adv-x="333" 
 />
    <glyph glyph-name="space" unicode=" " horiz-adv-x="300" 
 />
    <glyph glyph-name="exclam" unicode="!" horiz-adv-x="300" 
d="M230 709q0 -56 -7 -126q-4 -42 -15 -124q-7 -56 -10 -83q-12 -93 -12 -160q0 -10 -7 -17.5t-18 -7.5t-18 8q-12 8 -12 21v18q-1 4 0 9v6q-1 231 -17 447q-1 10 5.5 18t17.5 9q12 1 20 -8q8 11 22 9q5 0 9 -2q7 8 17.5 8t17.5 -7.5t7 -17.5zM214 83q-1 -6 -2 -20
q-1 -4 -1 -7q-1 -12 0 -19q2 -18 -14 -26v-2v-3q0 -9 -6 -16t-16 -8q-1 -1 -3 -1q-15 0 -22 15q-5 -3 -11 -3h-1q-10 1 -17 8t-7 17v2q1 2 0 17q-2 15 -2 24q0 14 2 25q1 8 7.5 14t15.5 7q6 8 17 10q15 2 23 -10q6 3 12 2q11 0 18 -7.5t7 -18.5z" />
    <glyph glyph-name="quotedbl" unicode="&#x22;" horiz-adv-x="359" 
d="M141 692q-15 -38 -23 -94.5t-3 -90.5q2 -14 -8 -23q-3 -18 -8 -35q-3 -9 -12.5 -14t-19.5 -1.5t-14.5 12.5t-1.5 19q13 38 4 118q-1 8 -3 22q-9 67 -8 97q1 10 8.5 17t17.5 7q18 -1 23 -18q1 1 1 2q4 10 13.5 14t19 0.5t14 -13t0.5 -19.5zM288 693q-8 -16 -10 -44
q-2 -18 -2 -58q0 -49 -3 -73q-5 -42 -21 -67q-6 -9 -16 -11t-19 4q-4 3 -7 6q-13 10 -9 27q11 45 8.5 105t-16.5 111q-3 9 2.5 18.5t15.5 11.5q9 3 17 -1t12 -12l2 4q4 9 13.5 13t19 -0.5t13.5 -14t0 -19.5z" />
    <glyph glyph-name="numbersign" unicode="#" horiz-adv-x="610" 
d="M205 272q14 0 29 1h71q30 98 55 185q-30 2 -52 4q-26 1 -47 2q-14 -50 -30 -104q-12 -43 -26 -88zM507 686q-16 -62 -42 -141q-8 -23 -16 -45q38 -2 66 -2q10 0 17.5 -7.5t7.5 -18t-7.5 -17.5t-17.5 -7q-33 0 -84 4q-6 -19 -17 -47q-33 -89 -47 -132q82 -1 103 -4
q10 -2 16 -10t4.5 -18.5t-9.5 -16.5t-19 -5q-19 3 -112 4l-2 -8q-33 -105 -45 -189q-2 -10 -10 -16.5t-18 -4.5q-8 1 -14 6q-7 -2 -14 1q-10 3 -14.5 12t-1.5 19q32 96 58 180h-55q-23 -1 -45 -1q-24 -77 -64 -196q-6 -18 -26 -17q-2 -1 -4 -3q-10 -7 -21.5 -4t-16.5 14
q-3 6 -4 15q0 8 2 20q4 24 8 38l2 6l7 21q24 71 34 104q-77 -2 -88 -4q-10 -3 -18.5 2.5t-11 15.5t3 19t15.5 11q17 4 114 7q11 39 43 139q9 29 16 50q-59 -8 -99 -30q-10 -5 -19.5 -2.5t-14.5 11.5t-2.5 19t11.5 15q51 29 123 37q8 1 17 2q5 16 10 33q26 92 40 164
q2 10 10.5 16t18.5 4q3 -1 5 -1q8 4 17 3q11 -2 16.5 -11t3.5 -19q-18 -90 -43 -188q17 0 37 -1q25 -2 63 -5q26 99 47 190q3 10 11.5 15.5t18.5 3.5q8 -2 13 -7q10 11 25 8q10 -3 15.5 -12t2.5 -19z" />
    <glyph glyph-name="dollar" unicode="$" horiz-adv-x="566" 
d="M164 439q6 -5 9 -12q2 -3 5 -5l3 -3q9 -4 20 -9q21 -9 63 -24h1q1 98 -2 174q0 22 -6 69q-1 11 -1 16q-27 -5 -52 -18q-8 -4 -16 -9q-1 -6 -4.5 -10.5t-9.5 -19.5q-15 -35 -19 -72q-6 -49 9 -77zM314 313q-1 -65 -3 -133t-5 -130q23 1 44 7q14 5 27 12q-5 8 -3 16
q7 52 8 83q1 41 -6 70q-14 50 -62 75zM304 756q-4 -26 -3 -60q9 -1 18 -3q14 -1 27 -4q13 17 32 7q48 -26 79 -62q39 -47 39 -100q0 -10 -7.5 -17.5t-17.5 -7.5q-4 0 -8 2q-15 -5 -26 5q-19 18 -41 52q-1 1 -2 3v1q-1 1 -1 2q-24 37 -42 51q-18 13 -40 19h-5q0 -4 1 -10
q6 -49 6 -73q3 -83 2 -193q2 -1 5 -2q27 -10 48 -20q47 -23 74 -50q71 -70 29 -186q-27 -76 -106 -100q-29 -9 -62 -10q-2 -32 -4 -59q1 -3 1 -6v-1v-3q-2 -11 -2 -19q-1 -3 -1 -4v-8q-1 -1 -1 -2v-1q-1 -8 -2 -17.5t-8.5 -16t-16.5 -6.5h-3q-9 1 -15.5 8.5t-6.5 16.5v3
q5 39 9 111q-35 -20 -79 -8q-41 11 -81 47q-39 35 -61 78t-17 77q2 10 10 16t19 4q9 -1 14 -8q4 8 12.5 12t17.5 2q13 -4 17 -17q5 -3 8 -9q29 -59 62 -110q26 -14 56 -22q13 -3 25 -5q3 61 5 129q3 77 4 151l-18 6q-43 15 -66 25q-36 16 -59 32q-64 44 -60 113q3 41 27 79
t63 66q5 6 13 9q8 4 15 8q35 18 71 24q-1 38 3 68q2 10 10.5 16.5t18.5 4.5t16 -10t5 -18z" />
    <glyph glyph-name="percent" unicode="%" horiz-adv-x="889" 
d="M248 657q40 -8 65 -42q32 -44 26 -111q-6 -66 -45 -111q-45 -53 -114 -49q-76 4 -113 64q-31 52 -20 120.5t57 109.5q54 46 129 29q9 -2 15 -10zM626 251q-21 -31 -31 -70q-8 -31 -3 -52q3 -18 18 -26q15 -7 14 -24q51 -14 100 22q-7 10 -4 21q2 7 7 23q3 10 5 16
q11 38 8 58q-3 23 -29 38q-5 3 -8 7q-13 6 -22 6q-10 -1 -15 -12q-5 -9 -14.5 -12t-19.5 1zM713 314q13 -5 27 -13q28 -17 50 -43.5t27 -50.5q8 -41 -8.5 -79.5t-53.5 -65.5q-34 -26 -75.5 -33.5t-78.5 5.5q-61 21 -79 78q-16 49 5 104q20 54 64 84q51 35 109 22q8 -2 13 -8
zM138 588q-25 -35 -17 -91q8 -52 38 -97q1 -1 1 -3q11 -3 22 -4q45 -2 74 33q1 0 1 1q-7 14 4 27q16 20 5 64q-5 20 -17 48l-2 4q-2 4 -4 9t-4.5 11t-5 11.5t-3.5 7.5q-10 1 -21 0q-17 -3 -25 12q-23 -3 -42 -17q1 -8 -4 -16zM668 675q-47 -103 -125 -250q-19 -36 -40 -74
q-52 -96 -124 -222q-15 -26 -57 -99q0 -1 -1 -3t-3 -5q-2 -5 -8.5 -17t-8.5 -16q-1 -3 -2 -4q-2 -5 -6 -9q-1 -1 -3 -2q-7 -11 -20 -11q-4 0 -8 1q-8 -8 -19 -8q-5 0 -11 3q-13 7 -13 22q0 6 2 11l6 12q0 1 1 3q0 1 1 3q1 3 3 5q1 3 3 7h1l2 5q1 3 2 4q1 2 2 3q0 1 0.5 1.5
l1.5 1.5v1q98 191 221 419q16 29 49 83q1 2 2 3q31 49 45 75q23 42 35 78q4 10 13.5 14t18.5 1q3 -1 6 -3q11 5 22 1q9 -5 12.5 -14.5t-0.5 -19.5z" />
    <glyph glyph-name="ampersand" unicode="&#x26;" horiz-adv-x="693" 
d="M246 459q9 -1 15 -8q10 -12 20 -23q17 14 30 24q27 22 45 40q-3 7 -2 14q2 11 6 28q8 42 8 59q1 26 -12 48l-2 4q-26 18 -62 13q-4 -5 -10 -6q-31 -9 -49 -24q-18 -45 -10 -110q1 -8 -3 -15q10 -18 26 -44zM192 273q-36 -42 -33 -102t46 -91q9 -6 10 -17q6 -1 13 -3
q30 -9 47 -9q21 0 42 12q4 2 8 3q49 27 89 68q-39 50 -83 112q-38 52 -72 103q-40 -31 -63 -51q5 -14 -4 -25zM590 337q-4 -10 -7 -23q-3 -12 -9 -38q-9 -44 -18 -67q-12 -31 -31 -54q28 -41 52 -66q7 -8 16 -25l2 -2v-1q1 -1 1 -2q7 -10 10 -15t5 -6q9 -5 12 -15t-2.5 -19
t-15.5 -11.5t-19 2.5q-6 3 -11 9q-5 -1 -10 1q-13 -13 -29 -5q-24 12 -86 88q-2 3 -5 6q-50 -49 -112 -80q-11 -6 -32 -13t-25 -9l-9 -3q-1 0 -2 -1q-6 -5 -15 -5q-12 0 -20 10q-3 5 -4 10q-19 4 -40 10q-4 2 -9 4h-1q-23 1 -37 5q-23 6 -39 19q-60 50 -63 116q-2 57 38 117
q51 78 141 130q-60 75 -64 149q-2 50 24 87t78 55q6 7 15 9q70 15 120 -22q68 -51 67 -111q-2 -49 -53 -103q-23 -25 -61 -55q-11 -9 -25 -20q11 -10 28 -26q61 -55 88 -86q21 -24 44 -56q3 14 4 35q1 17 -1 44q-15 12 -8 29q3 5 6 9v1q1 11 8 17.5t17 6.5h1q4 0 8 -1
q9 13 25 10q10 -1 16 -9q10 6 22 2q10 -3 14.5 -12.5t0.5 -19.5z" />
    <glyph glyph-name="quotesingle" unicode="'" horiz-adv-x="233" 
d="M163 691q-14 -50 -17.5 -120.5t5.5 -125.5q1 -10 -5 -18.5t-16.5 -10t-18.5 4.5t-10 17v1q-5 7 -6 15q-2 27 -12 91q-1 4 -1 6q-9 53 -11 81q-4 45 3 73q2 10 11 15.5t19 3.5q9 -3 15 -11q7 10 20 10q3 0 6 -1q19 -5 19 -24q0 -4 -1 -7z" />
    <glyph glyph-name="parenleft" unicode="(" horiz-adv-x="356" 
d="M263 670q-65 -94 -94.5 -225t-16 -264.5t66.5 -234.5q2 -3 4 -8t5 -13l2 -6q2 -6 2 -8q5 -13 8 -19q1 -3 2 -4q13 -8 12 -24q3 -5 5 -10q3 -2 4 -5q1 -1 1 -2q1 -1 2 -3q0 -1 2 -5q1 -3 1 -4q4 -5 4 -12v-3v-3q0 -18 -18 -24q-3 -1 -7 -1q-18 0 -24 17q-4 14 -23 50
q-7 14 -20 36q-16 31 -21 40l-8 14q-30 56 -44 89q-67 154 -21 364q20 93 60.5 179t94.5 149q7 8 17.5 8.5t18 -6t8.5 -17t-6 -18.5q-6 -7 -12 -15q-1 -7 -5 -12z" />
    <glyph glyph-name="parenright" unicode=")" horiz-adv-x="300" 
d="M95 709q11 -28 28 -60q12 -20 36 -58q0 -1 1 -1q34 -55 49 -85q19 -37 19 -98v-20q0 -26 1 -38q6 -110 -7.5 -202.5t-51.5 -196.5q-8 -19 -28 -55q-1 -3 -2 -4q-19 -35 -25 -54q-4 -16 -21 -18q-1 -3 -2 -5q-2 -10 -11.5 -15.5t-19 -2.5t-14.5 12t-3 19q8 27 34 71
q1 1 1 2q1 1 1 2q26 42 32 65q23 88 35.5 149t17.5 122t0 107t-21.5 104.5t-41 114.5t-64.5 136q-4 9 -1 19t12.5 14.5t19 1.5t14.5 -13q9 -4 12 -13z" />
    <glyph glyph-name="asterisk" unicode="*" horiz-adv-x="407" 
d="M218 707q0 -7 4 -35q2 -13 3 -22q2 -16 2 -28q36 11 69 40q7 6 17 6q11 0 19 -8q6 -7 6 -17q0 -11 -9 -18q-23 -21 -53 -45q-17 -14 -21 -18q-7 -5 -12 -9q8 -11 18 -29q24 -45 27 -64q2 -10 -4 -18.5t-16 -10.5q-17 -3 -26 12q-16 0 -23 15q-3 8 -6 14q-7 15 -12 23
q-3 4 -5 6q-3 -1 -7 -5q-14 -12 -37 -42q-8 -10 -20 -10q-8 0 -15 5q-10 8 -10 20q0 9 5 15q30 40 56 67q-10 1 -21 6l-16 6l-1 1q-1 0 -5 1.5t-5 1.5l-14 6q-19 7 -50 20q-15 7 -15 23q0 5 2 10q6 15 23 15q5 0 10 -2q56 -23 101 -24q0 12 -2 30q-1 8 -2 20q-1 2 -2 10v1
q-1 6 -1 10q-2 11 -2 18q-1 10 6 18t17.5 8.5t18 -6.5t8.5 -17z" />
    <glyph glyph-name="plus" unicode="+" horiz-adv-x="630" 
d="M57 286q53 10 142 7q17 -1 44 -3q0 1 0.5 2t0.5 2q8 131 7 198q-1 11 6.5 18.5t17.5 7.5q9 0 16 -5.5t9 -14.5q5 1 9 1q11 0 17.5 -8t6.5 -18q-4 -65 -4 -187q28 0 72 4q17 2 41 5q3 0 9.5 1t12 1.5t6.5 0.5q15 2 25 3q5 1 11 1l2 1q3 1 8 1h19q11 0 18 -7.5t7 -18
t-7 -17.5t-18 -7h-1q-14 -12 -30 -2q-2 -1 -4 -1q-9 -1 -24 -3q-1 0 -6.5 -0.5t-12 -1.5t-9.5 -1q-25 -3 -42 -5q-47 -4 -77 -4q0 -108 -5 -174q10 -5 12 -16t-4 -19.5t-16 -9.5q-12 -3 -22 2q-1 -4 -3 -7q-5 -9 -15 -12t-19 3h-1l-1 1h-1q-2 1 -3 2q-4 3 -7 7t-5 9
q0 3 -1 6v2v3q-4 56 -2 128q1 34 4 79q-27 2 -44 3q-82 3 -129 -6q-11 -2 -19.5 3.5t-10.5 15.5t4 19t16 11z" />
    <glyph glyph-name="comma" unicode="," horiz-adv-x="260" 
d="M130 -16q-9 2 -16 9q-6 -4 -13 -4h-3q-9 2 -15.5 9t-6.5 16q0 2 1 4q1 9 1 32v7q-2 7 -4 15q-1 4 -1 7q0 11 8 19q7 19 27 16q3 0 6 -1q5 7 14 9q3 1 6 1q12 0 19 -10q8 2 15 -1q20 -8 23 -30q1 -10 -2 -25l-3 -9q-2 -7 -2 -8q-2 -6 -4 -10q1 -4 1 -5q2 -71 -24 -113
q-6 -12 -18 -27q-4 -5 -10 -13q-1 -1 -6 -7t-6 -8q-7 -8 -17 -9t-18.5 5.5t-9.5 16.5t6 18q1 2 6 8t5 7q7 8 11 13q9 13 15 22q12 20 15 46z" />
    <glyph glyph-name="hyphen" unicode="-" horiz-adv-x="363" 
d="M57 319q35 0 99 1h6q70 1 106 1q10 0 17.5 -7.5t7.5 -18t-7.5 -17.5t-17.5 -7q-35 0 -105 -1h-6q-65 -1 -100 -1q-11 0 -18 7.5t-7 17.5t7 17.5t18 7.5z" />
    <glyph glyph-name="period" unicode="." horiz-adv-x="247" 
d="M170 13v-3q-1 -10 -8.5 -17t-18.5 -6q-8 0 -15 6q-7 -9 -19 -9h-2q-10 1 -16.5 8t-6.5 17v2q3 33 -11 62q-5 9 -1.5 18.5t13.5 14.5t21 0q5 4 12 4h1q9 0 15 -5q6 3 13 3q4 0 8 -1q17 -6 17 -24v-1q6 -7 6 -16v-2q-1 -24 -4 -36q-1 -6 -2 -11q-1 -2 -2 -3v-1z" />
    <glyph glyph-name="slash" unicode="/" horiz-adv-x="372" 
d="M299 685q-20 -38 -36 -89q-10 -31 -27 -94q-1 -6 -2 -8q-16 -65 -28 -100q-18 -55 -51 -139q-5 -14 -11 -30q-5 -12 -17 -42t-22.5 -56.5t-10.5 -28.5q-20 -49 -28 -73q-1 -2 -1 -3q-1 -1 -1 -2q-2 -6 -4 -11q-6 -17 -24 -17q-4 0 -8 1q-9 3 -14 12q-3 0 -5 1
q-10 4 -14 14t1 19q16 38 34 120q0 1 0.5 2.5t0.5 2.5l1 1v1v3q14 59 23 88q18 59 66 172q2 6 3 8q37 86 53 133q25 74 33 137q2 10 10 16.5t18 4.5q15 -2 20 -15q13 15 31 6q9 -5 12 -15t-2 -19z" />
    <glyph glyph-name="zero" unicode="0" horiz-adv-x="578" 
d="M468 173q-21 -81 -63 -125q-53 -56 -130 -47q-4 1 -7 2h-14q-111 0 -170 106q-51 92 -44 224q2 33 7 66q-9 8 -9 19q0 98 57 176q62 85 158 97h6q14 4 28 7q19 3 27 -15q7 0 15 -2q54 7 94 -28t62 -110q17 -57 22 -131q4 -60 -1 -104q-7 -68 -38 -135zM314 626
q-15 -4 -25 7q-15 -2 -31 -9q-13 -5 -24 2q-13 -8 -26 -18q-43 -57 -60 -145q-11 -64 -11 -180q0 -28 16 -110q6 -34 11 -52q8 -8 7 -19q0 -4 -1 -6.5t-2 -5.5t-3 -5q37 -32 89 -32q40 0 73 27q2 3 4 5q3 3 6 5q24 23 42 61q47 96 46 229q-1 47 -8 91q-17 40 -44 82t-53 65
q-4 4 -6 8z" />
    <glyph glyph-name="one" unicode="1" horiz-adv-x="444" 
d="M370 672q-5 -22 1 -73v-1q4 -38 3 -57q-1 -73 -5 -195q-1 -21 -1 -48q-7 -202 -8 -241v-1q0 -1 1 -4v-11v-11q1 -4 0 -8q0 -2 -0.5 -3.5t-0.5 -2.5v-3q0 -10 -7.5 -17.5t-17.5 -7.5q-9 0 -16 6q-12 1 -19 10q-7 -12 -21 -12q-10 1 -17.5 8t-7.5 17v1v1q0 15 -1 102
q-2 159 1 263q2 99 9 172q-4 -4 -9 -8q-30 -28 -75 -36q-12 -2 -30 -1h-10q-7 0 -14 -5q-8 -7 -18.5 -5t-16.5 10.5t-4 18.5t10 16q19 14 40 15h15q12 -1 20 0q30 6 49 24q14 12 33 43q1 1 3.5 5.5t3.5 5.5q4 7 8 12q5 9 10 16q2 6 3 12q2 10 11 16t19 3q8 -2 13 -8
q9 14 26 11q10 -2 16 -10.5t4 -18.5z" />
    <glyph glyph-name="two" unicode="2" horiz-adv-x="572" 
d="M207 609q-12 1 -22 -8q-12 -11 -22 -36q-9 -21 -16 -51q-4 -18 -8 -46q-2 -10 -10.5 -16t-18.5 -4q-9 1 -15 9q-6 -5 -14 -5q-10 -1 -18 5.5t-9 17.5q-6 86 55 147q55 54 135 65q60 7 109 -15q18 2 38 -4q21 -7 58 -31q25 -17 35 -48q5 -18 7 -50q5 -14 6 -27
q8 -89 -59 -158q-25 -25 -62 -50q-27 -26 -54 -45q-5 -3 -9 -6q-21 -22 -48 -49q-13 -13 -31 -29q-3 -3 -9.5 -9t-12.5 -12l-7 -6q-34 -33 -52 -51q-21 -21 -33 -38h27q30 0 91 6v0h2q80 8 122 5q7 0 22 -4q5 -1 14 -3q1 0 3 -1l3 -1q7 -1 8 -2q7 -1 10 -2q22 -5 34 -7
q9 17 27 13q10 -2 15.5 -10.5t3.5 -18.5v-2q0 -2 -1 -4q0 -4 -2 -7q-3 -9 -12 -15q-6 -3 -13 -5q-9 -2 -21 -1q-15 2 -43 8q-5 1 -11 3q-36 9 -40 9q-38 3 -114 -5h-2q-64 -6 -95 -6q-27 -1 -51 2q-7 -9 -19 -9h-4q-16 2 -20 18q-2 0 -3 1q-10 2 -15 11t-3 19q3 9 10 14v1
q0 6 4 12q2 4 7 13q7 14 10 18q7 14 13 25q0 1 1 2q12 28 21 43q15 25 33 40q27 21 79 49q7 4 35 19t29 15q16 9 29 16q20 24 36 48q48 72 52 140q4 74 -40 108q-3 3 -6 5q-3 -1 -5 -2q-9 -6 -19 -3t-15 12q-2 5 -3 9q-25 6 -54 2q-7 -1 -15 -3q1 -2 0 -4q-1 -11 -9.5 -17
t-18.5 -4z" />
    <glyph glyph-name="three" unicode="3" horiz-adv-x="579" 
d="M117 192q8 -87 56 -124q10 -7 22 -12q5 -2 11 -3q39 -9 86 15q19 9 32 -8v1q14 8 27 19q6 4 9 8l3 3h1q48 68 37 120q-9 44 -67 102q-16 0 -23 13q-3 5 -3 11q-13 0 -27 -1q-3 -2 -5 -3.5t-5 -2.5q-2 0 -5 -1h-4q-6 -2 -13 0q-2 0 -3 1q-10 1 -16 8t-6 17q0 17 15 23
q5 4 12 5q10 2 19 3q15 5 31 16q39 23 65 54q41 49 33 97q-2 8 -4 15q-10 10 -23 18q-49 32 -105 31q-52 -1 -88 -31q-12 -15 -22 -32q-20 -36 -17 -59q2 -10 -4 -18.5t-16 -9.5q-12 -3 -21 6q-7 -9 -18 -10q-10 -1 -18 5.5t-9 17.5q-3 34 14 67q11 20 36 50q60 71 140 85
q72 13 132 -24q7 -4 14 -9q42 -13 66 -56q18 -31 18 -66l2 -8q14 -70 -51 -130q-2 -1 -8.5 -7.5l-7.5 -7.5q-8 -8 -15 -13q15 -7 27 -17q6 -4 13 -9q53 -41 70 -108q19 -77 -27 -138q-36 -48 -109 -75q-77 -42 -173 -16q-9 2 -18 6h-1q-4 -3 -8 -4q-32 -9 -63 19
q-22 19 -42 53q-16 28 -28 59t-14 48q-1 10 5.5 18t16.5 9q9 1 17 -4q8 9 19 9q5 0 10 -2h1q10 1 18 -6t9 -17z" />
    <glyph glyph-name="four" unicode="4" horiz-adv-x="575" 
d="M335 239v176v89v55q-10 -15 -20 -31q-27 -39 -80 -111q-1 -1 -5 -7q-48 -66 -72 -100q-33 -48 -56 -89q20 2 46 5q15 2 43 6q53 7 79 9q27 3 65 -2zM438 673q-20 -72 -20 -167q0 -60 10 -177q1 -2 1 -6q6 -64 8 -96h1v0h1.5h1.5h12.5h7.5q6 8 16 9q11 1 19 -5t9 -17
q2 -16 -10 -26q-6 -6 -16 -8.5t-26 -2.5h-14q1 -2 1 -3q2 -84 -7 -149q0 -4 -2 -7q-1 -6 -3 -19q-1 -9 -8 -15t-17 -6h-4q-9 2 -15 9t-6 16v1q-1 2 -1 4q-1 7 1 13q1 1 1 3q1 3 2 12q1 15 1 34q-1 -9 -1 -12q0 -5 -1 -10q0 -1 -1 -2.5t-1 -3.5q0 -1 -1 -3q0 -9 -7.5 -15.5
t-16.5 -6.5h-3q-10 1 -16 8t-6 17v3q4 43 6 143q-37 5 -59 3q-25 -2 -78 -9q-28 -4 -43 -6q-69 -8 -116 -6q-11 1 -18 8.5t-6 17.5q1 18 18 23q-2 1 -4 3q-8 6 -9 16.5t6 18.5q25 30 64 94q1 1 6.5 9.5t6.5 10.5q17 28 29 45q28 43 91 120l1 1q41 50 60 76q31 42 52 78
q5 9 15 12t19 -2q7 -4 10 -11q6 3 13 3q10 16 28 11q10 -3 15 -12t3 -19z" />
    <glyph glyph-name="five" unicode="5" horiz-adv-x="558" 
d="M124 181q11 -48 42 -85q12 -15 26 -24q5 -2 11 -4q21 -1 39 -4q7 -1 12 -6q59 -1 108 36q-7 8 -5.5 18t9.5 16q24 20 31.5 60.5t-4.5 84.5t-37 68q-25 23 -57 19q-11 -2 -19 4.5t-10 16.5v7q-32 -3 -62 -15q-59 -23 -89 -75q-5 -9 -15 -12t-19 3q-11 6 -13 18h-1
q-10 0 -17.5 7.5t-7.5 17.5q0 62 16 153q4 25 13 67q12 61 16 86q2 9 9 15t16 6q7 14 22 15h22q9 5 18 3q2 0 3 -1q15 2 49 5q26 3 42 4q103 9 155 -6q10 -3 15 -12t2 -19t-12 -15t-19 -2q-43 13 -137 4q-14 -1 -41 -4q-28 -3 -42 -4q-7 -31 -19 -114v-4q-1 -3 -1 -4
q-10 -70 -16 -101q16 9 32 16q70 28 142 14q30 -5 57 -18q8 -2 13 -7q29 -18 49 -43q48 -60 36 -150q-3 -22 -10 -44q-7 -69 -57 -129q-12 -15 -47 -26q-16 -5 -27 -6q-9 0 -16 1q-6 2 -11 5q-35 -10 -72 -8q-4 -2 -9 -2q-26 0 -51 11h-11q-33 -1 -49 1q-29 4 -48 18
q-45 32 -53 128q-1 10 5.5 18t17.5 9q6 1 12 -2q4 4 9 7q10 5 20 1q2 1 5 2q10 2 19 -3.5t11 -15.5z" />
    <glyph glyph-name="six" unicode="6" horiz-adv-x="547" 
d="M358 348q-6 0 -14 -2q-10 -4 -19 1t-12 15q-2 5 -1 11q-26 2 -55 -4q-65 -13 -110 -51q-6 -5 -11 -10q1 -51 3 -93q2 -63 9 -94q9 3 18 -2t12 -15t-2 -19q-1 -1 -1 -2q12 -8 25 -15q5 1 9 3q10 5 19.5 1.5t14.5 -13.5l2 -8q31 -9 58 -7q22 2 47 15.5t44 33.5l-4 6
q-4 10 -1 19.5t13 14.5l1 2q2 2 5 7q5 11 8 30q5 30 2 65q-17 73 -60 111zM175 556q-32 -90 -38 -154v-29q50 33 111 45q89 18 150 -21q74 -47 79 -162v-7q2 -52 -2 -78q-6 -45 -34 -79q-25 -32 -61.5 -53t-72.5 -24q-55 -4 -114 22q-20 0 -39 8q-31 14 -55 51q-8 13 -15 28
q-6 9 -10 17q-10 21 -15 58q-9 36 -13 76q-12 111 8 206q24 111 84 147q2 2 5 2q0 1 1 2q35 30 100 43l42 7q3 1 5 1q65 11 103 -11q18 -4 33 -18q11 -10 20 -27q6 -10 14 -28q0 -1 1 -2q5 -11 8 -17t2 -13q2 -16 -12 -24q-9 -5 -19 -2.5t-15 11.5q-20 34 -28 47
q-12 17 -22 25q-6 0 -15 -2q-9 -3 -18 1.5t-12 13.5q-14 0 -32 -3q-2 -1 -5 -1q-29 -5 -40 -7q-52 -11 -77 -32l-2 -2q3 -8 0 -15z" />
    <glyph glyph-name="seven" unicode="7" horiz-adv-x="580" 
d="M501 609q-18 -33 -44 -77q-3 -6 -11 -19t-15 -25.5t-13 -23.5l-7 -10q-76 -129 -111 -208q-52 -116 -65 -214q-1 -10 -9 -16.5t-18.5 -5t-17 9.5t-4.5 18v2q-1 -4 -3 -8q-3 -11 -14 -15q-5 -12 -12 -20q-6 -8 -16.5 -9.5t-18.5 5t-9 17t5 18.5q6 7 10 39q1 16 3 25
q3 15 8 26q3 7 23 51l25 55q33 73 61 128q82 165 148 242q21 25 41 41q4 6 9 12l-12 2q-49 7 -73 7q-40 0 -124 -12q-7 -1 -10 -2q-55 -7 -86 -9q-49 -3 -88 2q-10 1 -16.5 9.5t-5 18.5t10 16.5t18.5 4.5q34 -4 77 -1q30 2 83 9q3 0 10 1q43 6 65 9q37 4 66 4q27 0 80 -7
q26 -4 40 -8q12 -3 18 -7q12 -9 12 -23t-13 -22v-1v-1q11 -13 3 -28z" />
    <glyph glyph-name="eight" unicode="8" horiz-adv-x="593" 
d="M178 331q-28 -62 -37 -130q-14 -100 26 -133q2 -1 3 -3q42 -23 98 -18q11 12 27 7q2 -1 5 -2q6 2 12 3q32 9 56 26q1 9 8 16q24 24 29.5 63t-5 75.5t-35.5 66t-58 35.5q-48 8 -108 -9q-11 -4 -21 3zM147 378l2 2q-31 3 -54 25q-34 33 -41 93q-6 59 19 103q24 41 67 53
q59 49 142 37q2 0 4 -1q57 -3 100 -32q60 -40 74 -109q14 -71 -29 -124q-16 -21 -39 -35q65 -13 99 -55q50 -60 24 -154q-22 -83 -87 -138q-62 -52 -127 -42q-93 -18 -161 24q-18 11 -33 25q-17 2 -29 15t-17 36q-3 13 -4 28q-4 11 -6 24q-19 82 22 153q27 45 74 72z
M215 632q-10 -7 -28 -39q-20 -35 -33 -74q-10 -31 -12 -53q7 -12 17 -21q7 -7 15 -12q1 1 3 2q10 4 19.5 0t13.5 -13q1 -3 1 -5q33 -9 77 -7q38 3 66 16q-1 3 -1 6.5t1 6.5v4q1 7 5 12q7 29 -2 70q-15 61 -55 104q-4 4 -6 10q-27 4 -59 -2q-7 -1 -15 3q-2 -5 -7 -8z" />
    <glyph glyph-name="nine" unicode="9" horiz-adv-x="566" 
d="M149 561q-3 -27 -4 -60q-2 -60 5 -107q8 -53 27 -75q17 -18 47 -5q8 3 17 0.5t14 -10.5q77 10 107 61q27 46 15 116q-12 65 -48 113q-13 18 -25 28q-6 -1 -11 -2q-16 -2 -25 12h-1q-58 -8 -100 -32q0 -8 -4 -14q-8 -12 -14 -25zM143 172q8 -27 28 -63q11 -19 21 -29v-1
q9 5 18.5 2.5t15.5 -10.5q5 -8 3 -18l10 -2h1q33 3 70 26q23 14 44 35q40 55 65 142q4 52 -1 114q-5 -15 -13 -28q-43 -75 -150 -87q-64 -7 -116 21q-18 -1 -25 15q0 1 -1 1q-9 7 -17 15q-59 57 -64 143q-4 90 57 154q69 72 198 82q1 0 2 1q25 5 29 5q1 0 4 -1q1 0 4 -1
q2 -1 5 -2q2 -2 6 -5q3 -5 5 -10q71 -9 111 -72q45 -72 40 -196q0 -14 -2 -29q1 -5 1 -9q9 -79 1 -142q-11 -79 -47 -132q-42 -63 -118 -88q-15 -5 -26 7q-32 -12 -65 -9q-46 -1 -82 26q-21 5 -42 22q-39 31 -61 77q-2 5 -2 11q0 16 15 23h2q3 12 13.5 19.5t22.5 4.5
q4 3 9 5q10 3 19 -2t12 -15z" />
    <glyph glyph-name="colon" unicode=":" horiz-adv-x="284" 
d="M166 16q-4 -1 -8 -1q-7 -12 -20 -12h-2q-10 0 -17 6.5t-8 16.5v5q0 4 -1 7q-1 5 -7 34q-2 11 3.5 19.5t16.5 10.5q3 1 6 1h1q8 8 18.5 8t18.5 -8q2 1 5 2q21 5 31 -14q3 -7 4 -15v-7q13 -12 5 -29q-6 -11 -10 -17l-4 -4q-4 -4 -10 -6q-11 -4 -22 3zM163 399h-2h-3
q-3 1 -6 1v1q-8 -10 -19 -10h-1q-10 0 -17.5 7t-7.5 17v17q0 20 -2 29q-2 11 -9 19t-6 18t9 17t18 6t17 -8q4 -5 7 -10q4 4 9 6t10 2q5 2 12 2q10 0 17 -7q3 -3 5 -6q2 -4 3 -8l5 -15q1 -5 3 -12q1 -3 2 -9q6 -8 5 -18q-1 -2 -1 -3q0 -18 -18 -24q-4 -8 -12.5 -11.5
t-17.5 -0.5z" />
    <glyph glyph-name="semicolon" unicode=";" horiz-adv-x="297" 
d="M173 426q-2 0 -5 -1q-8 -2 -16 2q-2 -18 -19 -21q-3 -1 -5 -1q-9 0 -16 5.5t-9 14.5q-6 28 -4 46q0 2 1 7t1.5 10t0.5 6q0 2 1 4q1 11 9 17t19 5q2 0 5 -1q14 3 25 -6l2 2q10 10 23 8q16 -3 22 -18q0 -2 1 -3q18 -5 18 -24v-2v-2q-1 -7 -1 -8q0 -3 2 -15q1 -10 -5.5 -18
t-16.5 -10h-8q-11 -4 -21 1zM156 4q-2 3 -4 7q-7 -13 -22 -13h-1q-10 0 -17 7.5t-7 17.5v1q0 4 -2 20q0 2 -1 3q-2 12 -2 18q-1 13 2 22q5 21 25 24q14 3 31 -7q3 -1 5 -4q2 1 4 1h1q7 7 17 7q5 0 10 -3q15 -6 15 -22q0 -6 -2 -10l-2 -8l2 -4q3 -6 2 -14q-1 -22 -5 -33
q2 -35 -2 -58q-10 -70 -70 -110q-9 -6 -19 -4t-15.5 11t-3.5 19t10 16q42 27 49 76q2 16 2 40z" />
    <glyph glyph-name="less" unicode="&#x3c;" horiz-adv-x="662" 
d="M553 446q-40 -18 -93 -37q-24 -9 -53 -19q-29 -12 -59 -26q-153 -69 -230 -114q28 -11 66 -21q24 -7 75 -19q4 -1 6 -1q67 -16 103 -27q57 -18 100 -43q23 -14 65 -49l1 -1q8 -6 14 -11l12 -4q15 -4 18 -19q1 -1 3 -2q9 -6 11 -16t-3.5 -19t-16 -11t-18.5 4q-14 9 -30 22
q-128 37 -231 78q-116 45 -206 97q-14 3 -16 3q-16 4 -26 10q-20 10 -23 29q-2 12 5 24q4 5 9 11q8 8 16 13q56 37 134 69q50 21 143 51l9 3q1 0 8 2q1 0 1 1q26 8 42 13q91 40 136 54v3h1v0h1h1l11 2h5h1q5 1 6.5 1.5t3.5 0.5q9 0 16 -6.5t9 -15.5v-3q0 -10 -6 -17t-16 -8
q-1 0 -3 -1q-1 0 -2 -1z" />
    <glyph glyph-name="equal" unicode="=" horiz-adv-x="617" 
d="M39 374q54 19 126 24q55 4 133 0q27 -1 76 -5q97 -6 138 -6q10 0 17.5 -7.5t7.5 -18t-7.5 -17.5t-17.5 -7q-43 0 -141 6q-49 4 -76 5q-75 4 -127 0q-65 -4 -113 -21q-9 -3 -18.5 1.5t-13 14t1 19t14.5 12.5zM54 171q104 9 241 11q68 2 208 2h20q10 0 17.5 -7.5t7.5 -18
t-7.5 -17.5t-17.5 -7h-20q-139 0 -207 -1q-136 -3 -238 -12q-10 -1 -18 6t-9 17t5.5 18t17.5 9z" />
    <glyph glyph-name="greater" unicode="&#x3e;" horiz-adv-x="654" 
d="M564 215q-59 -29 -193 -71q-3 -1 -23 -7.5t-25 -7.5q-40 -13 -68 -22q-43 -17 -95 -36q-67 -28 -105 -57q-9 -6 -19 -4.5t-16 9.5q-6 7 -5 16q-4 4 -6 9t-2 9q0 18 16 23q18 7 27 10q2 0 3 1q66 23 73.5 25.5t15.5 5.5q6 2 12 5q37 15 84 31q22 8 43 17q127 51 193 93
q4 2 7 5q-40 12 -42 13q-19 7 -70 27q-60 25 -90 37q-25 9 -47 18q-159 59 -204 53q-10 -2 -18.5 4t-10 16.5t4.5 18.5t17 10q2 0 5 1q-5 1 -10 3q-10 2 -15 11t-2.5 19t11.5 15.5t19 2.5q40 -11 87 -32q29 -13 81 -40q21 -10 29 -14q26 -13 45 -22q24 -11 58 -22
q22 -6 66 -17q2 -1 3 -1q2 0 3 -1q58 -14 89 -25q49 -17 83 -39q9 -6 11 -16t-4 -19l-1 -1q1 -3 1 -6q2 -9 -3 -17q3 -9 -0.5 -18t-12.5 -13z" />
    <glyph glyph-name="question" unicode="?" horiz-adv-x="575" 
d="M313 191q-2 1 -3 1q-5 -9 -14.5 -12t-19.5 1q-2 -2 -5 -4q-18 -13 -33 3q-4 5 -6 11q0 2 -1 4v11q0 12 2 27q6 46 18 65q38 58 87 93q33 50 48 80q22 44 25 80q1 24 -27 73l-6 4q-11 6 -22 10q-6 1 -12 4q-59 17 -112 -6q-2 -1 -4 -3q4 -14 -7 -24q-43 -42 -58 -88
q0 -2 -1 -3q0 -5 -1 -10q-1 -7 -2 -11t-2 -7t-3 -6q-4 -6 -10 -9q-17 -9 -30 5q-11 -6 -22 -2q-10 4 -14 13t-1 19q12 31 35 66q13 42 46 73q2 2 4 5q3 5 5 9q13 15 54 28q54 36 102 33q36 -2 64 -26q7 0 14 -1q12 -3 24 -11q7 -5 19 -16q75 -65 58 -146q-7 -32 -29 -69
q-16 -27 -45 -63l-10 -13q-8 -10 -14 -18q-12 -14 -22 -23q-12 -10 -21 -15l-4 -4q0 -6 -1 -14q-10 -66 -6 -87q1 -3 1 -5q0 -9 -6 -16t-14 -9h-5q-7 0 -13 3zM309 -7q-5 0 -10 3q-11 -5 -22 0q-7 -9 -19 -9h-1q-10 0 -17 6.5t-8 16.5v10q-1 5 -1 6q-1 11 0 50q0 11 7.5 18
t18.5 7q3 0 6 -1q4 0 8 -2l4 -2q5 16 21 17q1 1 3 1q9 0 16.5 -7t7.5 -16q1 -6 4 -22q9 -3 14 -10q8 -9 10 -27q2 -10 -4.5 -18.5t-16.5 -9.5q-8 -11 -21 -11z" />
    <glyph glyph-name="at" unicode="@" horiz-adv-x="966" 
d="M473 485q-28 -25 -47 -73.5t-24 -104.5q-4 -47 4 -72q17 5 28 -9l4 -8q36 -7 65 17q24 20 55 72l3 5q3 6 7 12.5t8 13.5t6 10q8 15 16 25q-6 9 -3 19q6 28 -0.5 48.5t-28.5 46.5q-38 44 -84 22l-1 -1q3 -13 -8 -23zM246 511q-17 -36 -23 -95t0 -124q12 -126 58 -195
q14 -5 30 -3q11 1 19 -5.5t9 -17.5q0 -4 -1 -7q9 -3 16 -6q1 -1 2 -1q35 -12 77 -16q86 -8 185 15.5t179 68.5q9 6 19 3t15 -12t2.5 -19t-11.5 -15q-87 -50 -193.5 -74.5t-200.5 -15.5q-65 6 -117 28h-2q-2 1 -4 1q-15 5 -24 9q-16 7 -25 18l-5 5t-7 6q-1 0 -2 1
q-23 14 -40 37q-7 9 -13 19q-37 53 -50 125q-9 50 -11 93q-2 57 8 97q38 137 149 207q35 22 81 39q50 27 102 43q13 4 23 -5q12 3 26 7q46 12 86 15q57 4 94 -10q25 -10 48 -32q13 -12 34 -37q115 -72 118 -198q0 -18 -2 -36q-4 -80 -47 -148q-47 -75 -113 -101
q-35 -15 -66.5 -8t-50.5 35t-20 74q-33 -55 -63 -79q-49 -42 -112 -27q-43 10 -68.5 39t-31.5 73q-10 74 32 157q43 85 106 115q37 18 74.5 9.5t67.5 -43.5q22 -25 32 -46q13 44 32 72q5 9 15.5 11t18.5 -3t10 -13q8 -6 10 -15q0 -1 1 -5q2 -7 3 -11q2 -8 1 -16
q-2 -18 -13 -55q-6 -20 -22 -69q-1 -2 -1 -3q-23 -72 -29 -98q-1 -7 -2 -12q4 -3 6 -8q7 -12 -1 -24q17 -18 53 -4q12 5 25 14q2 5 6 9q85 86 97 184q1 13 0 26q-1 30 -19.5 67t-43.5 59q-15 13 -37 40q-13 7 -28 14q-46 21 -74 28q-39 10 -73 5q-16 -3 -25 10l-16 -4
q-77 -19 -118 -33q-13 -4 -24 -8q-31 -17 -58 -37q-50 -36 -81 -78z" />
    <glyph glyph-name="A" unicode="A" horiz-adv-x="710" 
d="M423 287q-6 21 -12 41q-39 131 -64 219q-16 58 -23 87q-13 -55 -35 -121q-16 -48 -51 -137q-26 -68 -37 -98q3 1 5 1q45 7 67 10q38 5 69 5q43 1 81 -7zM416 689q45 -95 86 -219q25 -74 68 -223q4 -13 6 -19q38 -134 63 -207q3 -10 -1.5 -19t-14.5 -12.5t-19 1.5t-13 14
v2q-3 -4 -6 -6q-9 -6 -19 -4t-16 11v1l-4 -4q-8 -7 -18.5 -6t-16.5 9q-4 4 -8 16q-2 7 -7 21q-8 26 -22 70q-15 52 -35 116q-42 14 -96 13q-42 -1 -129 -14q-21 -3 -31 -5q-8 -22 -25 -67q0 -1 -1 -2q-17 -43 -24 -66q-5 -15 -18 -45q-6 -15 -10 -23q-3 -6 -5 -9
q-2 -2 -3 -4q-6 -6 -15 -7q-12 -2 -21 7q-10 -9 -22 -6q-10 2 -15.5 11t-3.5 19q18 82 54 182h-3q-11 0 -18 7.5t-7 17.5t7 17.5t18 7.5t22 1q21 52 65 157q36 85 52 123q27 66 45 118q-7 6 -8 15q-2 10 4.5 18.5t16.5 9.5q23 4 36 7q9 1 17 2q24 4 38 4q10 1 17 0
q5 -1 10 -3q10 -4 15 -13q0 -1 1 -2q9 -3 14 -13z" />
    <glyph glyph-name="B" unicode="B" horiz-adv-x="653" 
d="M429 344q-3 1 -7 3l-6 3l-2 1q-40 20 -133 15q-14 -1 -39 -3q-53 -4 -73 -4q3 -59 12 -159q1 -19 7 -60q3 -25 5 -39q1 -8 1 -16q35 -6 72 -9q120 -11 189 12q-1 5 0 10q14 49 19 70q6 31 5 55q-2 50 -47 114q-2 3 -3 7zM56 711q29 4 44 5q93 12 162 12q107 0 174 -27
q91 -37 108 -122q19 -85 -46 -166q-10 -13 -26 -9q-8 -10 -16 -18q12 -6 20 -9q8 -1 15 -7l2 -2q31 -17 47 -32l7 -7q47 -55 34 -144q-6 -43 -25 -77t-48 -51q-76 -46 -247 -31q-33 3 -64 8q-1 -19 -3 -36q-2 -10 -10 -16.5t-18 -4.5q-14 2 -20 14q-8 -7 -19 -5t-17 12
q-8 -12 -22 -12q-10 0 -17.5 7t-7.5 18q0 23 4 54q-7 4 -16 11q-13 10 -16 14q-6 9 -4.5 19t9.5 16q14 10 29 1h1q3 0 6 -1q6 40 5 67q-2 54 -11 161q-3 35 -4 51q-12 153 -7 251q0 3 1 6q-9 -1 -16.5 5.5t-9.5 15.5q-1 11 5.5 19t16.5 10zM178 658q-14 -101 -11 -228v-21
q19 0 71 4q26 2 41 3q48 3 81 -1q24 -2 44 -7q2 2 5 4q8 6 16 14q-1 5 -1 11q1 3 1 7q1 6 1 8q1 8 2 14q2 16 3 26q3 28 3 48q1 49 -14 104q-2 5 -1 10q-1 0 -2 1q-57 23 -155 23q-40 0 -87 -4q4 -7 3 -16z" />
    <glyph glyph-name="C" unicode="C" horiz-adv-x="736" 
d="M139 425q18 60 44 115q-31 -51 -44 -115zM277 76q28 4 68 -5q2 -1 9 -3q11 -2 17 -4q61 9 117 53q60 47 104 125q5 9 15 12t19 -2q13 10 27 0q7 -4 10 -12q8 -12 1 -25q-37 -75 -88 -119q-11 -9 -23 -18q-13 -13 -26 -23q-63 -48 -134 -44q-12 1 -24 3q-13 -2 -26 -2
q-41 0 -78 12q-6 1 -11 4q-23 9 -43 22q-2 1 -3 1l-2 1q-1 1 -2 1q-27 12 -42 20q-24 14 -40 32q-61 68 -76 160.5t18 185.5q31 91 96 159.5t147 97.5q8 3 16 0q35 9 74 9q54 0 81 -7q46 -10 79 -42q14 -14 26 -32q24 -21 38 -42t27 -54q3 -10 -1 -20q0 -14 -11 -22
q-9 -5 -19 -3t-16 10q-2 3 -4 5q-2 -8 -10 -13q-8 -6 -18.5 -4t-15.5 11q-15 22 -34 75q0 1 -0.5 2t-0.5 2l-2 4q-15 41 -25 59q-3 4 -3 9q-10 4 -21 7q-22 5 -70 5q-36 0 -68 -9q-40 -26 -82 -102t-66 -166q-26 -98 -18 -169q9 -72 52 -94q19 -9 13 -28q3 -3 7 -5
q25 -11 38 -19q2 1 4 1z" />
    <glyph glyph-name="D" unicode="D" horiz-adv-x="695" 
d="M152 703q39 -1 104 -1q11 0 30 1q83 1 116 0q60 -2 79 -13q70 -39 109 -135q36 -88 36 -193q0 -108 -38 -191q-44 -94 -126 -126q-42 -16 -95 -23q-31 -4 -92 -6q-30 -1 -45 -1q-19 -2 -35 -3q-31 -3 -83 6q-2 1 -4 1q-6 -2 -12 -1q-9 1 -15 8q-7 2 -13 4q-27 10 -36 26
q-5 9 -2 19t12 15t18 2.5t15 -10.5l1 -1q1 0 3 -1q6 60 6 134q0 64 -5 173q0 9 -1 27q-5 89 -6 133q-2 63 0 113l-10 2q-10 3 -15.5 11.5t-3 19t11.5 15.5t19 3q17 -4 43 -6q9 7 20 5q9 -1 14 -7zM516 586h1l-6 10q2 -5 5 -10zM501 165v3q1 2 2 3q3 32 5 72q4 90 -3 167
q-9 98 -33 153q-26 57 -67 59q-10 0 -17 7.5t-7 18.5q0 3 1 5q-26 1 -95 0q-20 -1 -30 -1h-67q-8 -112 -2 -287l3 -90q6 -145 6 -213q14 2 30 2q16 1 46 2q59 2 88 6q47 5 83 20q32 12 57 38q-3 5 -3 10q0 1 1 3q-1 2 -2 5q-1 9 4 17z" />
    <glyph glyph-name="E" unicode="E" horiz-adv-x="685" 
d="M72 708q56 16 126 19q55 4 130 0q27 -1 76 -4q98 -6 143 -6q10 0 17.5 -7.5t7.5 -18t-7.5 -17.5t-17.5 -7q-46 0 -146 6q-49 3 -75 4q-87 4 -147 -1q2 -3 2 -7q7 -48 7 -129q-1 -46 -4 -140q68 15 176 16q78 1 145 -5q5 1 34 -4q9 -1 15 -8t6 -16v-4q-2 -10 -9 -16
t-16 -6h-4q-6 -1 -11 1q-2 1 -7 2q-4 0 -5 1q-65 6 -148 5q-113 -1 -178 -17q-4 -109 -3 -168q2 -75 12 -117q58 4 113 6q182 7 290 -7q10 -1 16.5 -9t5 -18.5t-9.5 -17t-18 -4.5q-104 12 -282 6q-76 -3 -152 -9q-6 -4 -13 -4q-5 0 -9 2q-30 -2 -54 -5h-2q-10 0 -17 6.5
t-8 16.5v2q0 10 6.5 17t15.5 8q4 0 8 1v35q0 213 -1 319q-2 137 -7 251q-15 3 -19 18q-3 10 2.5 19t15.5 11z" />
    <glyph glyph-name="F" unicode="F" horiz-adv-x="641" 
d="M60.5 657.5q-1.5 0.5 -2.5 0.5q-2 0 -3.5 0.5t-2.5 1.5h-8h-2q-10 0 -17.5 7.5t-7.5 17.5h1q0 10 7 17.5t17 7.5h1h1q12 0 34 2q6 2 12 2q3 0 6 -1h2q7 1 25.5 2.5t36.5 3.5t20 2q92 9 155 11q139 4 219 -19q9 -3 14.5 -12t2.5 -19t-12 -15t-19 -2q-73 21 -203 17
q-61 -2 -149 -10q-8 -64 -5 -145q1 -52 8 -135q21 1 63 5q18 1 27 1q120 9 191 4h4h2q11 0 18 -2q19 -7 22 -26q2 -10 -4 -18.5t-17 -10.5q-12 -2 -21 7q-5 -1 -8 0q-67 5 -183 -3q-9 -1 -27 -2q-41 -3 -62 -5q8 -101 10 -157q2 -98 -11 -175q-1 -10 -9.5 -16t-18.5 -4
q-9 1 -15 8t-6 16q-6 -3 -12 -3q-5 0 -10 2q-5 -9 -15 -12t-19 2t-12 15q-7 26 -5 62q0 25 6 65q1 5 2 13q8 63 7 87q-2 53 -11 161q-3 34 -4 51q-10 124 -10 200q-1 0 -2.5 0.5z" />
    <glyph glyph-name="G" unicode="G" horiz-adv-x="761" 
d="M578 665q35 -35 51 -56q24 -31 40 -68q4 -10 0.5 -19.5t-13.5 -13.5l-3 -3q-8 -7 -18.5 -6t-17.5 9q-1 2 -2 3q-5 -7 -13 -10q-10 -3 -19.5 1.5t-12.5 14.5q-1 4 -3.5 11.5t-5 14.5t-3.5 13l-2 6q-5 14 -9 24q-10 27 -24 53q-67 41 -146 36q-50 -3 -95 -33q1 -11 -7 -18
q-26 -26 -50 -87.5t-36 -133.5q-13 -76 -8.5 -136.5t25.5 -87.5q13 -16 0 -31q36 -45 90 -65h6q9 0 16 -6q18 -4 38 -6q104 -10 211 48q3 1 5 3q0 33 -2 101v1q-2 69 -2 104q0 2 1 5q-8 0 -16 -1q-25 -3 -61 -8q-3 0 -10 -1l-14 -2l-6 -1q-17 -3 -27 -4q-5 -1 -9 -1
q-3 -1 -7 -2q-8 -1 -29 0q-10 0 -17 7t-7 17v1q0 10 7.5 17.5t17.5 7.5v-1q5 0 11 1q1 0 1 1q4 2 8 3h7q6 1 11 -1q10 1 26 3l7 1q6 1 13 2t9 1q38 6 64 9q70 6 113 -1q10 -1 16 -9.5t4 -18.5q-1 -7 -5 -12q4 -2 6 -6q5 -7 7 -16q10 -54 -18 -132q-2 -6 -4 -11v-18v-62v-71
q0 -10 -7 -17.5t-17.5 -7.5t-18 7.5t-7.5 17.5v6q-13 6 -14 20q-2 10 -3 20q-3 0 -6 1q-3 0 -6 1q-119 -63 -237 -52q-33 3 -63 13q-115 5 -177 92q-58 80 -55 204q3 117 59 220q61 111 159 154q9 4 18 1q39 17 82 20q94 5 174 -43q6 -2 11 -7q1 -1 3 -2q9 -1 16 -8z" />
    <glyph glyph-name="H" unicode="H" horiz-adv-x="732" 
d="M642 705q6 -63 4 -141q-1 -46 -7 -138q-5 -69 -7 -103q-3 -80 1 -140q2 -23 14 -70v-1q8 -31 10 -47q5 -27 5 -51q0 -10 -7 -17.5t-18 -7.5q-14 0 -21 13q-6 -8 -16 -9q-2 -1 -3 -1q-18 0 -24 17q-5 -2 -10 -2q-10 0 -17.5 7.5t-7.5 17.5q0 52 -8 154v2q-6 78 -7 118
q-1 21 0 46q-7 1 -18 2q-19 1 -50 1q-52 1 -139 0q-44 -1 -99 -3q-12 0 -37 -1q1 -8 1 -16q4 -179 4 -317q0 -10 -7.5 -17.5t-17.5 -7.5q-9 0 -16 6q-5 -3 -10 -4q-10 -1 -19 5q-6 -12 -18 -14q-11 -2 -19 4.5t-10 16.5q-4 25 -4 58q0 21 3 57q0 2 1 8q4 56 3 81
q-1 29 -4 83q-5 96 -7 143q-6 153 -2 265q0 11 7.5 18t17.5 7q17 -1 23 -17q8 5 17 3q5 -1 9 -4q6 4 13 4q10 1 18 -6.5t8 -17.5q1 -33 3 -106q4 -122 5 -182q25 1 37 1q55 2 100 3q164 3 210 -3q1 16 5 51q2 23 3 36q6 66 4 108q-1 56 -15 97q-3 10 1.5 19t14.5 12
q19 7 29 -10q8 10 21 9q6 0 11 -3q6 5 14 6q10 1 18 -5.5t10 -16.5z" />
    <glyph glyph-name="I" unicode="I" horiz-adv-x="288" 
d="M203 701q-18 -246 -8 -455q2 -35 11 -104v-1q12 -89 12 -136q0 -10 -7 -17.5t-17.5 -7.5t-18 7.5t-7.5 17.5q-7 -13 -21 -13q-11 0 -18 8q-4 -5 -11 -7q-10 -2 -19 3t-11 15q-14 49 -7 140q1 18 4 47q5 52 6 72q2 56 1 126q-1 42 -5 127q-3 57 -4 85q-2 56 -2 99
q0 11 7 18t18 7t18 -8q8 7 18 6q11 -1 18 -10q8 9 20 8q11 0 17.5 -8t5.5 -19z" />
    <glyph glyph-name="J" unicode="J" horiz-adv-x="514" 
d="M124 221q2 -58 11 -98q4 -16 9 -29q26 -25 63 -34q36 -8 60.5 10.5t40.5 63.5q29 79 31 243q1 58 -1 158q-2 72 -2 96q-1 47 3 70q1 10 9.5 16.5t18.5 4.5q5 0 9 -3q6 3 13 3q4 -1 9 -2q6 5 15 5q10 0 17.5 -7t7.5 -17q0 -5 1 -21t1.5 -33t0.5 -18q6 -151 0 -260
q-8 -166 -43 -256q-22 -58 -56 -87q-40 -34 -94 -25q-7 1 -25 2q-14 1 -21 2q-12 1 -22 3q-13 -10 -27 -2q-40 22 -58 35q-27 19 -43 38q-31 38 -49 121q-2 10 3.5 18.5t15.5 10.5q20 5 28 -14q6 7 15 9q5 1 9 0q2 8 8.5 14.5t15.5 6.5q11 0 18.5 -7t7.5 -17z" />
    <glyph glyph-name="K" unicode="K" horiz-adv-x="710" 
d="M177 714q2 -61 12 -197q7 -90 9 -137l2 2q1 2 11 15t12 16q14 17 24 29q44 52 139 151q85 87 124 133q7 8 17.5 9t18 -6t8.5 -17.5t-6 -18t-13 -15.5q35 26 68 42q9 4 19 1t14.5 -12.5t1.5 -19t-13 -14.5q-59 -30 -135 -96q-60 -53 -136 -135q151 -212 283 -410
q5 -9 3 -19t-10.5 -16t-18.5 -3.5t-16 10.5q-4 7 -9 14q-2 -9 -9 -14.5t-15 -5.5q-12 0 -20 9q-1 2 -2 3q-3 -4 -7 -6q-9 -5 -19 -1.5t-15 12.5q-14 29 -42 67q-15 21 -55 71q-54 67 -78 104q-34 55 -45 103q-11 -13 -27 -30q-34 -38 -49 -55q3 -154 -16 -268
q-2 -10 -10 -16t-19 -4q-7 1 -13 6q-7 -13 -22 -13t-22 15q-8 -10 -20 -10q-11 0 -18 7t-7 18v140v195q0 210 -5 362q0 11 7 18.5t17 7.5t18 -7q8 9 20 9q11 -1 18 -10q7 11 20 11q10 1 17.5 -6t8.5 -18z" />
    <glyph glyph-name="L" unicode="L" horiz-adv-x="602" 
d="M171 717q19 -150 25 -348q4 -123 4 -315h92q23 1 68 2q99 1 148 1q10 0 17 -7t7 -17.5t-7 -18t-17 -7.5q-49 0 -147 -1q-45 -1 -68 -2h-101q-7 -7 -17 -7q-9 0 -16 6q-7 -6 -17 -6q-11 0 -18 8h-9q-2 -8 -8.5 -13.5t-15.5 -5.5q-11 0 -18 7t-7 18q0 41 5 122v7
q7 99 4 151q-2 53 -10 156q-1 11 -1 16q-12 160 -12 248q0 10 7 17.5t18 7.5q9 0 16 -6q7 6 15 6q11 0 18 -7q7 9 18 10q10 1 18 -5.5t9 -16.5z" />
    <glyph glyph-name="M" unicode="M" horiz-adv-x="870" 
d="M774 710q14 -78 17 -177q1 -59 -2 -176v-3q-4 -112 -3 -166q2 -91 14 -161q1 -11 -5 -19t-16 -10q-9 -2 -17 3q-6 -11 -19 -13q-10 -2 -18.5 4t-9.5 16q-1 1 -1 2q-5 -18 -24 -18q-10 0 -17.5 7t-7.5 18v18q0 29 -4 288q-1 75 -2 130q-1 64 -2 117q-38 -127 -65 -212
q-4 -11 -7 -22q-43 -138 -70 -216q-15 -46 -25 -72q-6 -15 -10 -23q-3 -5 -5 -9q-4 -6 -9 -10q-11 -7 -22 -3q-4 -4 -10 -5q-3 -1 -7 -1q-12 0 -20 10q-8 -6 -18 -4.5t-16 9.5q-30 37 -123 306q-7 21 -14 43q-27 78 -60 177q4 -109 7 -192q5 -184 5 -329q0 -10 -7 -17.5
t-18 -7.5q-17 0 -23 16q-7 -10 -20 -10q-7 0 -13 4q-7 -13 -22 -13q-10 0 -17.5 7.5t-7.5 17.5q0 1 -1 2v6v2.5v2.5q0 5 0.5 17t0.5 17v5v2v2v0v2v29q1 216 -2 352q-2 152 -10 256q0 10 6.5 18t17.5 9q13 1 21 -10q9 14 25 12q12 -1 18 -11q4 1 8 1q7 1 12 -2q6 -2 11 -6
l4 2q10 4 19.5 0.5t13.5 -13.5q65 -153 146 -379q43 -117 74 -212q25 64 51 145q19 63 50 176q2 6 3 12q1 2 2 6l2 6q45 168 74 251q3 10 12 14.5t19 1t15 -12.5q4 5 10 8q8 9 20 9q17 0 23 -15q3 1 5 1q9 1 17 -4q5 11 17 14q11 1 19.5 -4.5t10.5 -15.5z" />
    <glyph glyph-name="N" unicode="N" horiz-adv-x="738" 
d="M652 710q1 -73 -1 -196v-28q-3 -174 1 -260q0 -7 2 -25q1 -3 2 -11.5t2.5 -17t1.5 -9.5q3 -20 4 -35q5 -40 4 -65q-1 -39 -15 -57q-7 -8 -17 -9t-18 5.5t-10 16.5q-1 -1 -4 -2q-19 -4 -28 14q-2 -2 -4 -2q1 -17 -13 -24q-10 -4 -19.5 -1t-14.5 12q-23 46 -78 129
q-21 31 -52 77q-6 8 -19 27t-25.5 36.5t-12.5 18.5q-9 13 -17 24q-83 120 -124 190q-19 32 -32 58q-10 -239 30 -559q1 -10 -5.5 -18t-16.5 -10q-6 0 -12 2q-5 -19 -24 -19q-11 0 -18 7t-7 18q-7 -14 -23 -14q-10 0 -17.5 7.5t-7.5 17.5q0 91 -6 274q-6 208 -5 312
q0 61 3 116q0 11 8 18t18 6.5t17 -8.5q5 3 10 3q12 1 20 -7q8 12 23 10q16 -1 21 -17q15 -1 21 -15q50 -109 140 -247q56 -84 167 -235q9 -13 23 -30q-5 88 -3 196q2 101 12 280l1 10q0 10 1 20.5t1 14.5q0 10 8 17t18 6q5 0 9 -2q3 2 6 3q18 6 28 -11q8 12 21 12
q10 0 17.5 -7t8.5 -17z" />
    <glyph glyph-name="O" unicode="O" horiz-adv-x="815" 
d="M223 694q65 44 143 41q7 13 22 13q60 0 150 -35q102 -40 128 -89q13 -23 21 -58q66 -93 57 -233q-5 -85 -38.5 -160t-87.5 -119q-14 -12 -33 -21q-12 -5 -33 -12q-1 0 -4 -1q-31 -11 -45 -20q-9 -6 -20 -3q-12 -4 -24 -6q-19 -2 -47 5q-3 0 -7 1q-19 5 -26 6q-11 0 -32 1
q-22 0 -33 1q-59 3 -95 20q-101 46 -140 169q-16 48 -20 102q-24 110 -2 197q33 130 166 201zM446 665q-37 8 -63 7q-35 -2 -75 -20q-8 -3 -16 -1q-42 -24 -74 -78q-44 -72 -59 -173q-15 -102 5.5 -186t70.5 -119q14 -10 10 -27q26 -11 71 -13q11 -1 32 -1q22 -1 33 -2
q11 0 26 -4q13 6 30 10q10 2 29 4h1q39 5 51 14q17 13 32 32l6 8q32 46 54 113q6 22 11 45q12 64 8 124.5t-24 103.5q-18 38 -66 86q-42 41 -87 72q-3 2 -6 5z" />
    <glyph glyph-name="P" unicode="P" horiz-adv-x="651" 
d="M196 716h69q142 -1 227 -27q38 -12 60.5 -45t27.5 -80q4 -40 -5 -80.5t-29 -69.5q-14 -21 -42 -36q-19 -11 -49 -21q-2 -1 -6 -2t-8.5 -2.5t-9 -2.5t-9 -2.5t-8 -2.5t-5.5 -1l-2 -1q-3 -1 -5 -2q-31 -10 -66 -14q-23 -3 -62 -4h-8q-46 -2 -67 -5q6 -115 8 -169
q3 -96 -2 -136q-1 -11 -9.5 -17t-18.5 -5q-15 2 -20 16q-8 -6 -17 -6q-11 0 -18 7q-9 -13 -25 -11q-10 1 -16 9.5t-5 18.5q9 65 9 162q0 74 -6 187q-1 29 -4 78q-9 157 -10 214q-9 1 -15.5 8.5t-6.5 17.5q1 10 8.5 17t17.5 7h1q7 10 20 10q10 0 17 -7q4 1 7 2q12 3 22 -6h14
q1 2 2 3q5 9 15 12t19 -2q7 -5 10 -12zM410 656q-59 9 -146 10h-74q-1 -4 -1 -9q-3 -30 -2 -81q1 -66 9 -207q22 2 69 4h7q37 1 58 4q31 4 57 12q2 1 6 2l5 1q6 2 13 4t15 4.5t12 3.5q37 135 -26 244q-2 4 -2 8z" />
    <glyph glyph-name="Q" unicode="Q" horiz-adv-x="783" 
d="M583 -2q-10 8 -29 24q-8 7 -13 12q-42 -24 -91 -34q-2 -1 -6 -2q-1 0 -2.5 -0.5t-3.5 -1t-3 -0.5q-12 -3 -20 -4q-16 -3 -28 -1q-19 2 -31 12l-4 4q-3 -1 -7 -2q-14 -1 -31 3q-8 3 -23 9q-14 6 -19 7q-100 27 -158 110q-46 66 -56 155q-3 23 -3 47q0 30 5 61
q10 77 46 144t91 111q63 73 146 77h1q11 3 23 6q11 2 20 -5q93 13 191 -65q5 -2 10 -6q16 -14 30 -31q78 -82 89 -169q2 -14 2 -32q11 -72 -2 -143q-18 -105 -81 -180q-10 -11 -21 -22q13 -10 31 -24q1 -1 6 -4l4 -4q37 -29 57 -45q8 -6 9 -16.5t-5 -18.5t-16.5 -9t-18.5 5
q-15 12 -33 26q-2 -3 -4 -5q-7 -10 -19 -10q-9 0 -16 6q-15 12 -17 14v1zM428 182q1 9 8 16t17.5 7t17.5 -7q31 -31 72 -66q28 36 53 85q2 4 3 7q33 81 26 171q-7 103 -59 177q-57 80 -150 101q-8 2 -13 8q-4 0 -9 -1q-10 -1 -19 5q-2 0 -5 -1q-7 -7 -17 -7l-16 -2
q-60 -21 -109 -63q-5 -6 -9 -13q-53 -74 -70 -184q-18 -110 9 -196q28 -90 94 -115q13 -5 16 -19q73 -29 171 -23q8 0 17 3q3 5 9 8l18 10l-6 4q-36 30 -61 50q-9 6 -10 16.5t5 18.5q7 8 17 10z" />
    <glyph glyph-name="R" unicode="R" horiz-adv-x="749" 
d="M433 657q-67 11 -162 4q-25 -2 -69 0h-2q0 -99 4 -298v-4q5 0 9 -1q73 -24 157 4q2 1 3 1q18 6 35 15q33 16 62 38q-7 7 -7 17q0 21 3 59q5 59 1 86q-5 41 -30 71q-3 4 -4 8zM658 50q18 -3 21 -21q2 -10 -4.5 -18.5t-16.5 -10.5h-1q-4 -1 -5 -1q-3 0 -5 -1h-10h-8
q-6 -6 -14 -7h-4q-9 0 -16 6t-9 15q-6 40 -16 77q-15 63 -37 111q-28 60 -63 89q-38 32 -84 26q-95 -32 -181 -7q4 -189 4 -298q0 -10 -7 -17.5t-18 -7.5q-16 0 -22 14h-3q-2 0 -5 1q-4 -3 -9 -5q-11 -3 -20 3q-8 -8 -19 -8t-18 7.5t-7 17.5q0 72 8 220q5 70 6 106
q5 108 1.5 185t-14.5 142q-6 5 -7 13q-1 2 -1 5q0 5 2 10q0 3 -1 7q-2 10 3.5 18.5t15.5 11t18.5 -3t11.5 -15.5v-1h1q7 15 23 14q12 0 19 -9q4 1 8 1q11 0 19 -8h10q41 -2 63 0q219 15 301 -56q38 -33 43.5 -80t-21.5 -96q-33 -63 -101 -112q95 -25 136 -112
q19 -42 27 -100q6 -44 6 -105z" />
    <glyph glyph-name="S" unicode="S" horiz-adv-x="682" 
d="M179 228q0 -37 18.5 -71t48.5 -56q9 -6 10 -16q13 -7 25 -13q9 0 15 -6q23 -8 46 -13q39 -7 73 -3q5 6 11 8h1l2 2q7 5 19 20q4 5 17 23q10 14 26 10q26 35 11 106q-10 50 -34 76q-12 2 -34 6h-3q-30 5 -45 9q-27 6 -46 15q-17 9 -13 28q-11 2 -41 5q-48 6 -72 11
q-39 7 -64 19q-71 32 -63 109q9 95 84 157q52 42 120 56q2 2 5 4q48 25 99.5 25.5t94.5 -25.5q44 -25 68.5 -70.5t24.5 -101.5q0 -9 -5 -16q0 -4 1 -8q3 -10 -2.5 -19t-15.5 -11q-15 -3 -25 8q-7 -5 -15 -5q-11 0 -18 7.5t-6 18.5q2 77 -48 117q-10 8 -22 14l-6 3
q-9 3 -18 7q-34 10 -72 8q-40 -3 -78 -20q-1 -4 -4 -8q-11 -11 -21 -49q-12 -40 -14 -82q-3 -46 6 -71q7 -18 18 -18q8 0 15 -5q14 -2 39 -5q30 -4 42 -5q57 -8 94 -18q51 -15 83 -41q11 -8 20 -18q34 -17 53 -47q30 -49 29 -100t-33 -95q-28 -41 -74.5 -65t-97.5 -24
q-7 0 -13 4q-30 -1 -63 5q-31 6 -61 19q-76 4 -141 59.5t-80 129.5q-2 10 3.5 18.5t15.5 10.5q15 3 25 -9q5 10 16 12q12 3 22 -5q7 13 22 13q11 0 18 -7t7 -17z" />
    <glyph glyph-name="T" unicode="T" horiz-adv-x="655" 
d="M357 657q-24 -84 -20 -305q4 -201 24 -321q2 -10 -4 -18.5t-16 -10.5q-5 -1 -9 0q-8 -7 -18 -7q-17 0 -23 16q-7 -14 -23 -14q-10 0 -17.5 7.5t-7.5 17.5q0 73 -7 220q-6 121 -7 181q-2 133 10 235q0 1 1 2q-150 -4 -211 -10q-10 -1 -18 5.5t-9 17t5.5 18.5t16.5 9
q83 8 275 12q211 4 266 -5q10 -2 16 -10t4.5 -18.5t-10 -16.5t-18.5 -4q-42 7 -199 5q0 -3 -1 -6z" />
    <glyph glyph-name="U" unicode="U" 
d="M592 675q0 -7 1 -17v6q0 8 -1 11zM643 709q13 -60 7 -279q-7 -228 -30 -281q-14 -33 -56 -67.5t-77 -42.5h-1q-1 -1 -3 -2q-3 -1 -12 -6q-1 -1 -2 -1q-13 -7 -20 -9q-7 -3 -13 -3q-9 -1 -16 2q-9 -1 -17 -2q-44 -5 -94 5q-39 -6 -69 20q-15 5 -30 11q-1 1 -11.5 5
t-12.5 5q-15 6 -25 12q-15 10 -23 22q-17 24 -25 58q-6 23 -11 59q0 6 -2 19q-3 30 -5 45q-16 91 -17.5 207.5t11.5 217.5q1 10 9 16.5t18 5.5q8 -1 14 -7q7 4 14 4q8 0 14 -4q6 3 13 3q10 -1 17 -8t7 -18v-8q0 -7 -0.5 -17t-0.5 -15q-4 -157 5 -281q10 -148 36 -227
q14 -42 31 -61q75 -25 131 -19q71 7 114 65q-2 10 -1 23q1 12 5 29q1 3 2 8q6 24 6 31q3 50 12 151q1 8 1 12q11 123 13 189q1 19 -4 58q-1 10 -1 14q-4 41 -1 68q1 10 9 16.5t18 5.5t16 -8t7 -16l4 2q6 9 16 11.5t18.5 -3t11.5 -15.5z" />
    <glyph glyph-name="V" unicode="V" 
d="M648 694q-65 -106 -127 -308l-50 -169q-8 -29 -15 -51q-8 -23 -28 -67l-4 -8q-19 -40 -25 -63q-4 -18 -22 -19q-4 -3 -8 -4q-2 0 -3 -1q-5 -5 -11 -7q-4 -1 -8 -1q-18 0 -24 17q0 1 -1 2q-4 -4 -9 -6q-10 -3 -19 1.5t-13 14.5q-96 290 -171 465q-9 21 -33 73
q-31 64 -44 99q-8 22 -12 42q-3 10 2.5 19t15.5 11q10 3 18.5 -2t11.5 -15q6 7 15 9q9 1 17 -4q5 7 14 9q10 2 19 -3.5t11 -15.5q19 -83 56 -184q22 -62 72 -183v-1q41 -101 60 -152q9 -24 17 -45q13 39 36 114l29 98q29 98 38 128q13 42 24 77q29 93 51 158q3 9 12.5 13.5
t19.5 1.5q8 -3 12 -10q11 7 22 4q8 -3 13 -9q5 7 14.5 9t18.5 -3t11 -15t-3 -19z" />
    <glyph glyph-name="W" unicode="W" horiz-adv-x="1000" 
d="M928 698q-62 -151 -105 -334q-34 -148 -62 -346q-2 -10 -10 -16.5t-19 -4.5q-10 1 -16 9q-4 -12 -16 -16q-15 -5 -26 7q-2 -2 -5 -3q-10 -4 -19.5 -0.5t-13.5 13.5q-9 22 -17 53q-4 18 -11 54q-10 55 -18 80q-13 38 -33 91q-5 14 -16 46q-40 108 -58 165q-13 39 -22 74
q-26 -73 -52 -179q-13 -53 -41 -182q-21 -94 -32 -133q1 -1 1 -2q1 -4 1 -6v-4v-3q-1 -2 -1 -3q-1 -3 -24 -48q-7 -14 -22 -14q-6 0 -11 2q-5 3 -9 7q-1 0 -2 1q-3 -3 -8 -5q-17 -6 -28 9q-6 -5 -14 -6q-10 -2 -18 4.5t-10 16.5q-13 91 -47 213q-17 61 -47 158
q-2 6 -11.5 36.5t-10.5 36.5q-14 42 -22 71q-6 19 -22 59q-13 32 -19 49q-9 30 -13 54q-1 10 5.5 18t16.5 9.5t18 -4.5l6 4q15 6 27 -4q2 3 6 6q8 5 18 3.5t16 -10.5q29 -41 59 -142q24 -78 51 -200q11 -49 25 -112q4 -22 11 -53q4 -19 7 -34q32 112 66 240q31 116 49 191
q10 42 14 68q3 13 4 21q1 7 0 9q-1 10 6 18t17 9t18 -5.5t9 -17.5v-3q5 2 10 1q7 -1 12 -6h1v1q9 14 26 11v1q9 5 19 2.5t15 -11.5q45 -75 76 -181q18 -65 43 -193v-2q1 -3 1 -5q19 -94 29 -137q9 61 12 76q9 58 16 102q19 106 42 184q28 98 65 170q5 9 15 12t19 -2
q6 -3 10 -8q7 1 14 -1q6 -2 10 -7q5 8 14 11t17 0q10 -4 14 -13.5t0 -19.5z" />
    <glyph glyph-name="X" unicode="X" horiz-adv-x="720" 
d="M640 697q-32 -48 -102 -137q-1 0 -2 -1q-41 -52 -61 -79q-32 -44 -56 -80q-16 -25 -30 -47q40 -55 81 -105q13 -16 32 -38q7 -8 18 -20q14 -16 18 -20q39 -43 60 -70q32 -42 50 -78q5 -9 1.5 -19t-12.5 -14.5t-19 -1.5t-15 13l-4 8q-4 -7 -11 -11q-9 -5 -19 -1.5
t-15 12.5q-2 4 -3 7q-2 -11 -11 -17q-9 -5 -19 -3t-16 10q-9 14 -20 30q-9 14 -42.5 64.5t-34.5 52.5q-43 65 -75 112q-32 -50 -60 -92q-58 -88 -93 -136q0 -3 -1 -5q-1 0 -1.5 -1t-0.5 -2q-1 -1 -2.5 -3t-6.5 -8q-4 -6 -5 -8q-2 -4 -5 -7q-1 0 -2 -1l-4 -2q-1 -2 -2 -3
q-7 -9 -19 -9q-4 0 -8 1q-5 -2 -11 -2q-7 0 -13 4q-7 4 -10 13q-1 -1 -2 -1l-2 -4q-7 -13 -22 -13q-6 0 -12 3q-13 7 -13 22q0 6 3 12q18 33 23 38q36 59 135 198q2 4 5 8q10 14 25 36l13 18q7 10 12 17q8 11 14 21q-24 34 -48 66q-10 13 -22 29q-8 11 -21 27q-1 2 -4.5 6.5
t-7 8.5t-6.5 7l-3 4q-45 58 -69 92q-37 53 -60 99q-5 9 -1.5 19t12.5 15q17 8 30 -6q4 5 9 7q9 5 19 1.5t15 -12.5q2 -3 3 -7q3 3 7 5q9 5 19 2.5t15 -11.5q81 -138 171 -269q21 31 63 97l1 1q78 122 122 182q7 8 17 9.5t18 -4.5q2 -1 3 -2q6 8 16 10.5t18 -3.5q7 -5 10 -12
l4 6q6 8 16.5 10t19 -3.5t10.5 -16t-4 -18.5z" />
    <glyph glyph-name="Y" unicode="Y" horiz-adv-x="714" 
d="M643 703q-9 -35 -34 -73q-15 -22 -48 -62l-5 -5q-3 -4 -5 -6q-32 -39 -46 -62q-63 -107 -110 -197q9 -37 13 -83q3 -30 4 -83q0 -3 1 -10q2 -84 8 -124q1 -11 -5 -19t-17 -10q-10 -1 -18 5t-10 15q-5 -4 -11 -5h-4q-9 0 -16 6t-9 15q-1 7 -2 12q-6 -8 -15 -9
q-11 -2 -19 4.5t-10 16.5q-8 57 -8 130q-1 51 3 123q-20 35 -55 100q-12 23 -16 30q-52 98 -86 150q-52 77 -108 125q-8 7 -8.5 17t6.5 18t17 9t18 -6q3 -3 7 -6q1 3 4 5q7 7 16.5 7.5t16.5 -5.5q2 3 5 5q8 7 18.5 5.5t16.5 -9.5q40 -50 80 -118q25 -43 68 -125q2 -2 3 -5
l2 -5q35 -66 53 -98q23 47 64 121q47 86 126 225q5 9 15 11.5t19 -2.5q4 -2 7 -6q5 9 15 11t18 -3q3 -1 4 -2q9 5 20 2q10 -2 15 -11t2 -19z" />
    <glyph glyph-name="Z" unicode="Z" horiz-adv-x="666" 
d="M53 711q99 -4 276 2q7 0 22 1q139 4 209 4q10 0 17.5 -7t7.5 -18q0 -7 -4 -12q3 -1 4 -3q12 -7 12 -21q0 -7 -5 -13q-17 -26 -26 -39l-2 -4q-70 -99 -192.5 -258.5t-221.5 -281.5q55 0 123 3q199 7 279 20q10 2 18.5 -4.5t10 -16.5t-4.5 -18.5t-16 -9.5q-83 -14 -286 -21
q-218 -8 -266 8q-10 3 -14.5 12.5t-1.5 19.5q3 9 12 14t19 2q0 4 2 8q14 28 39 60q15 20 45 54l3 4l4 4q4 5 7 8q26 31 40 50l107 148q120 168 199 261q-40 -1 -116 -3q-15 -1 -22 -1q-179 -6 -279 -2q-11 0 -18 7.5t-6.5 18t8 17.5t17.5 7z" />
    <glyph glyph-name="bracketleft" unicode="[" horiz-adv-x="324" 
d="M225 661q-29 6 -79 2q21 -133 21 -407q0 -229 -14 -395q3 0 7 -1h7q38 -2 58 -5q10 -1 16.5 -9.5t5 -18.5t-10 -16.5t-18.5 -4.5q-18 2 -53 4h-8q-10 1 -18 2q-7 -6 -16.5 -5t-15.5 8q-18 2 -36 8q-10 2 -15 11t-2 19q1 6 5 10q4 20 -2 70q0 4 -1 10q-6 47 -5 68
q2 45 7 133q3 61 4 90q5 95 7 163q1 40 -4 119v1q-3 50 -4 75q-1 43 2 78q1 10 8 17q4 13 18 17q28 8 73 10t73 -4q10 -2 16 -10.5t3.5 -18.5t-11 -16t-18.5 -4z" />
    <glyph glyph-name="backslash" unicode="\" horiz-adv-x="379" 
d="M-18 678l-14 18q-7 8 -6 18t9 17t18.5 6t16.5 -9l12 -14q8 -5 11 -15q37 -51 71 -119q34 -69 71 -170q8 -21 34.5 -98t28.5 -82q6 -17 12 -31q7 -20 17 -59l1 -4q1 -4 2 -5q1 -5 2 -8q17 -65 36 -91q6 -8 4.5 -18t-9.5 -17q-16 -12 -32 2q-18 -4 -26 13q-24 47 -47 107
q-14 39 -38 108q-1 3 -2 7q-1 2 -2 6q-24 71 -38 106q-14 38 -53 123q-32 69 -47 108q-22 55 -32 101z" />
    <glyph glyph-name="bracketright" unicode="]" horiz-adv-x="275" 
d="M38 -134q2 1 15 4l13 2q16 3 27 4q14 2 24 2q0 42 -5 113q0 7 -1 23l-6 105q-2 58 -1 106q2 46 7 137q6 107 7 160q2 78 -3 140h-22h-10q-29 0 -43 -1q-10 -1 -18 5.5t-9 17t6 18.5t17 9q16 1 47 1h10q48 0 71 8q10 3 19 -1.5t12 -14.5q3 -7 1 -14q7 -7 7 -16
q6 -80 -1 -194q-2 -24 -5 -74q-5 -64 -6 -97q-5 -84 4 -227q1 -12 2 -35q9 -133 9 -199q0 -10 -7.5 -17.5t-17.5 -7.5q-4 0 -8 2q-1 -2 -3 -3q-11 -7 -23 -2h-4q-12 0 -19 8q-10 0 -24 -1q-10 -2 -24 -4q-1 -1 -8 -2t-13.5 -2.5t-8.5 -1.5q-10 -2 -18.5 4t-10 16.5t4.5 18.5
t16 10z" />
    <glyph glyph-name="asciicircum" unicode="^" horiz-adv-x="533" 
d="M289 712q36 -47 69 -115q24 -51 52 -126l36 -104q9 -26 16 -45q4 -9 -0.5 -18.5t-14 -13.5t-19 0.5t-12.5 14.5q-1 1 -1 2q-5 -2 -10 -3q-10 -1 -18.5 5t-9.5 17q-2 16 -12 34q-6 11 -22 34q-14 20 -21 31q-11 19 -17 37q-8 24 -20 73q-3 11 -4 16q-13 46 -22 73
q-3 -6 -6 -13q-21 -44 -45 -112q-48 -135 -57 -190q-2 -11 -10.5 -17t-18.5 -4q-5 1 -9 3q-2 -5 -4 -8q-4 -10 -14 -13t-19.5 2t-12.5 14.5t2 19.5q8 16 31 74q3 7 22.5 57t24.5 62q5 14 10 25q30 75 49 116q27 58 43 72q4 3 8 4q9 7 19 5.5t17 -9.5z" />
    <glyph glyph-name="underscore" unicode="_" horiz-adv-x="623" 
d="M23 -75q129 18 254 21q151 3 256 -18q11 -2 16.5 -10.5t3.5 -19t-10.5 -16t-18.5 -3.5q-101 20 -246 17q-122 -3 -248 -20q-11 -1 -19 5t-9.5 16.5t4.5 18.5t17 9z" />
    <glyph glyph-name="grave" unicode="`" horiz-adv-x="278" 
d="M133 728l3 -5q3 -5 4 -6q5 -8 8 -13q7 -12 12 -21l6 -14q33 -29 41 -55q3 -10 -1.5 -19t-14 -12.5t-19 1t-12.5 14.5q-1 1 -1 2q-9 0 -16 6t-9 15v1q-6 5 -8 12q0 2 -1 5l-1 1q-8 7 -18 14q-46 33 -73 38q-11 2 -16.5 10.5t-4 19t10 16t19.5 4.5q14 -3 33 -12q2 5 7 8
q13 11 28 2q15 1 23 -12z" />
    <glyph glyph-name="a" unicode="a" horiz-adv-x="606" 
d="M185 431q-20 -25 -25 -56q-2 -10 -10.5 -16t-18.5 -4q-8 1 -13 6q-11 -9 -24 -5q-10 4 -14.5 13t-1.5 19q16 48 59 83.5t98 47.5q60 13 110.5 -7.5t78.5 -71.5q9 -15 15 -39q5 -13 11 -28q15 -46 23 -110q5 -37 10 -119q3 -51 7 -71q2 -13 4 -20h6q12 -1 20 -3
q9 -4 14 -13t1.5 -19t-12.5 -14.5t-19 -1.5h-1q-6 -9 -16 -11.5t-19 3.5q-50 32 -73 95q-78 -66 -152 -83q-71 -16 -124 13q-7 1 -13 7q-2 2 -3 4q-2 1 -3 2q-26 21 -37.5 52t-6.5 65q12 73 91 123q25 16 66 29q29 9 74 18q11 3 28 6l14 3q9 1 14 2q20 4 34 8q0 36 -1 58
q-1 6 2 12q-1 2 -2 3q-7 3 -11 9q-5 8 -14 16q0 1 -1 1q-6 4 -22 13h-1q-18 10 -26 15q-7 5 -11 8v1q-22 1 -44 -4q-29 -6 -55 -22q0 -9 -6 -17zM176 229q-18 -53 -19 -91q-1 -46 21 -80q2 -3 4 -7q23 -2 49 4q72 16 150 89q-6 39 -6 95v47q-9 -2 -22 -5q-6 -1 -14 -2
q-11 -2 -14 -3q-17 -3 -28 -6q-85 -17 -120 -38q0 -2 -1 -3z" />
    <glyph glyph-name="b" unicode="b" horiz-adv-x="570" 
d="M131 325v-1q10 -75 11 -132q1 -5 1 -9q7 -31 33.5 -61.5t62.5 -49.5q40 -20 74 -16q36 3 58 34q21 30 31 90q3 22 7 70q9 100 -32 163q-34 52 -91 61q-54 7 -98 -31q-46 -40 -57 -118zM279 525q119 19 178 -69q46 -69 43 -187q-2 -102 -37 -184q-18 -40 -40 -61
q-30 -30 -63 -19q-6 3 -11 8q-14 -5 -30 -7q-50 -5 -103 22q-38 20 -69 51q0 -3 1 -54q0 -10 -7.5 -17.5t-17.5 -7.5h-1q-4 0 -8 2q-11 -9 -24 -5q-10 3 -14.5 12.5t-1.5 19.5q16 47 18 112q-1 17 -2.5 43.5t-3 46.5t-1.5 22q-2 30 -3 56q-3 6 -2 12q0 2 1 4q-4 25 -8 55
q-3 18 -8 49q-15 101 -21 146q-9 80 -6 136q0 10 7.5 17t17.5 7q16 -1 22 -15q8 6 18.5 5.5t17 -8.5t6.5 -18q-7 -98 -2 -251q14 18 30 33q54 47 123 44h1z" />
    <glyph glyph-name="c" unicode="c" horiz-adv-x="542" 
d="M468 166q-6 -32 -23 -61q-11 -20 -34 -47l-13 -14q-12 -15 -15 -19t-7 -8q-6 -8 -16.5 -9t-18.5 5q0 1 -1 1q-23 -14 -50 -19q-98 -19 -164 53q-57 61 -70 163q-13 100 21 184q39 95 122 123q29 10 57 11q46 12 105 -12q65 -27 89 -73q5 -11 9 -32v-1q2 -11 3 -15
q0 -1 1 -2q8 -7 9 -17.5t-5 -18.5q-12 -13 -28 -7q-4 -5 -11 -7q-9 -4 -18.5 0.5t-13.5 14.5q-25 70 -68 100q-29 20 -64 20q-8 -3 -16 -1q-14 -2 -29 -6q-1 -7 -7 -12q-23 -21 -42 -74.5t-25 -115.5q-6 -66 4 -116.5t34 -69.5q13 -11 9 -26q39 -24 89 -14q38 7 65 43
q24 31 38 80q3 10 12 15t19 2l6 -2q8 17 27 13q10 -2 16 -10.5t4 -18.5z" />
    <glyph glyph-name="d" unicode="d" horiz-adv-x="576" 
d="M474 712q18 -94 27 -375q7 -187 4 -285q1 -2 2 -6q0 -5 -5 -39q-2 -9 -9 -15t-16 -6h-4q-9 1 -15 8t-6 15q-6 -4 -14 -4q-10 0 -17.5 7.5t-7.5 17.5q0 35 -1 67q-7 -7 -14 -13q-27 -23 -82 -54q-108 -60 -187 6q-65 55 -80 169q-15 111 27 198q48 104 150 111
q102 6 168 -52q-2 30 -3 60q-3 103 1 186q0 10 8 17t18 7q8 -1 14 -6q6 5 12 6q11 2 19.5 -3.5t10.5 -16.5zM179 439q-18 -31 -29.5 -83.5t-12.5 -106.5q-3 -129 51 -174q10 -8 9 -20q42 -11 94 19q51 29 74 48q27 23 44 52q-2 51 -8 145q0 11 -1 17q-1 21 -2 39
q-16 30 -39 51q-50 43 -130 38q-25 -2 -47 -13q0 -6 -3 -12z" />
    <glyph glyph-name="e" unicode="e" horiz-adv-x="569" 
d="M217 463q-28 -23 -47 -66.5t-25 -97.5q57 3 140 3q68 1 114 -1q18 0 29 -1q-3 49 -16 74q-18 36 -80 55q-15 5 -41 18q-1 0 -1.5 0.5t-1.5 0.5q-20 10 -31 14q-15 5 -28 3q-6 0 -12 -2zM254 525q123 18 189 -58q56 -66 56 -187q0 -10 -6.5 -17t-16.5 -8q-6 -16 -23 -16
q-12 0 -20 11q-14 1 -35 1q-45 2 -113 1q-84 0 -143 -3q1 -110 47 -168q2 -3 4 -8q3 -2 7 -3q69 -33 129 -5q1 1 3.5 4t5 5.5t5 5.5t5 5.5t5 5.5t4.5 5l3.5 3.5l2.5 2.5l1 1q33 37 49 71q4 9 14 12.5t19 -0.5q9 -5 13 -14q8 0 15 -6q8 -6 9 -16.5t-5 -18.5
q-66 -82 -125 -110q-83 -40 -174 3q-70 34 -100 116q-26 71 -15 157q10 84 50 144q45 68 110 74q7 1 14 1q6 8 16 9z" />
    <glyph glyph-name="f" unicode="f" horiz-adv-x="336" 
d="M194 660q-22 -62 -29 -156v-2q46 0 77 -6q10 -1 16 -9.5t4.5 -19t-10 -16.5t-19.5 -4q-27 5 -70 5q-2 -57 0 -134q2 -43 6 -119q7 -135 7 -188q0 -11 -7 -18t-18 -7q-6 0 -11 2q-5 -2 -12 -2q-10 0 -17.5 7t-7.5 18q1 22 1 24v1v9v26l1 21q2 54 2 90q1 58 -1 97
q-1 13 -3 38q-1 4 -1.5 12t-1.5 16t-2 15l-1 6q-5 53 -7 88q-39 1 -67 6q-10 2 -16 10t-4.5 18.5t10 16.5t18.5 4q24 -4 57 -5q0 85 22 137q37 87 132 87q10 0 17.5 -7t7.5 -17.5t-7.5 -18t-17.5 -7.5q-27 0 -46 -9q0 -5 -2 -9z" />
    <glyph glyph-name="g" unicode="g" horiz-adv-x="561" 
d="M475 518q17 -26 16 -128q-1 -84 -12 -198q-11 -110 -25 -190q-8 -41 -15 -65q-4 -14 -8 -22q-6 -12 -13 -17q-33 -52 -118 -85q-27 -10 -55 -9q-52 -6 -93 5q-75 22 -106 100q-4 9 0 18.5t14 13.5q9 3 18 -0.5t14 -11.5l2 2q8 7 18 6t17 -9q35 -42 73 -61q22 -11 42 -13
q15 2 32 6q4 1 8 1q83 32 101 83q8 22 8 54q0 20 -5 69q-1 16 -2 29q-8 -7 -17 -15q-2 -2 -6 -5q0 -1 -1.5 -2t-2.5 -2l-2 -2q-41 -36 -66 -53q-42 -27 -85 -33q-38 -5 -70 19q-28 20 -48 58q-36 72 -38 174q-1 107 39 183q49 92 141 101q60 6 110 -22q33 -19 65 -57
q1 35 -2 68q-1 10 5.5 18t17.5 9t19 -7q19 7 30 -10zM170 432q-11 -19 -21 -81q-11 -68 -11 -135q1 -76 17 -119q16 -40 43 -40q19 0 24 -18q20 6 42 20t60 48q0 1 1.5 2t2.5 3l2 1q3 3 6 5q29 26 47 39q0 12 1 25q3 34 10 100q3 36 5 53q3 27 4 49q-15 -3 -24 9
q-34 45 -67.5 63t-76.5 14q-35 -4 -61 -25q0 -7 -4 -13z" />
    <glyph glyph-name="h" unicode="h" horiz-adv-x="559" 
d="M158 695q-11 -109 -9 -255q15 19 32 33q49 42 106 42q113 7 163 -85q39 -72 40 -216q0 -41 -3 -111q-4 -67 -4 -90q0 -10 -7 -17.5t-18 -7.5q-4 0 -8 2q-8 -9 -19 -9q-3 0 -6 1q-4 1 -7 3q-5 -3 -11 -3q-11 0 -18 7.5t-7 17.5q0 19 2 51q1 12 2 30q1 1 2 14.5t1 16.5
q6 67 7 108q6 217 -85 235q-12 3 -23 3q-10 -1 -21 -3h-5q-25 -6 -49 -27q-40 -34 -61 -95q1 -4 1 -8q1 -24 3 -71q7 -162 7 -242q0 -10 -7.5 -17.5t-17.5 -7.5q-14 0 -22 12q-7 -6 -16.5 -5.5t-16.5 7.5q-8 8 -11 22q-2 8 -2 20q-1 17 2 44q1 11 2 25l3 24q1 10 1 14
q4 82 -1 241v9q-3 102 -3 153q0 85 6 153q1 11 9 17.5t18 5.5q14 -1 20 -14q4 1 8 0q11 -1 17.5 -9t5.5 -18z" />
    <glyph glyph-name="i" unicode="i" horiz-adv-x="229" 
d="M148 698q0 -1 -4 -11t-4 -13q-3 -7 -4 -13q-3 -10 -3 -15q11 -15 1 -30q-6 -9 -16 -11t-19 4q-4 3 -7 6h-7q-17 3 -25 16q-6 10 -5 23t9 32q2 4 4 9q1 1 2 5l2 5q3 4 4 7q3 10 13 14t19 0q1 0 1 -1q10 8 22 4q10 -3 15 -12t2 -19zM145 510q4 -38 3 -95q-1 -33 -4 -105
q-2 -26 -2 -40q-4 -87 -2 -140q4 -70 18 -114q3 -10 -1.5 -19t-14.5 -13q-18 -6 -28 10q-7 -4 -14 -4q-11 0 -18 7.5t-7 17.5q0 75 -4 169v3q-1 4 -1 7q0 51 -5 152q-2 43 -3 65q-3 51 -3 90q0 11 7.5 18t17.5 7q9 0 15 -4q7 10 19 11q10 1 18 -5.5t9 -17.5z" />
    <glyph glyph-name="j" unicode="j" horiz-adv-x="240" 
d="M148 699q-15 -33 -12 -61q2 -10 -4.5 -18.5t-16.5 -9.5q-6 0 -11 1q-1 -17 -18 -22q-10 -3 -19 2t-12 15q-6 23 -2 54q3 15 9 38q0 1 2 8t2 8q3 10 12 15.5t19 2.5q6 -2 10 -6q13 14 30 6q9 -5 12.5 -14.5t-1.5 -18.5zM156 509q20 -141 12 -320q-7 -172 -40 -277
q-4 -15 -9 -28q-4 -11 -10 -21v-2q-8 -18 -19 -27q-7 -7 -17 -10q-20 -14 -47 -18q-11 -2 -20 -2q-9 1 -16 3q-18 8 -18 27q0 10 7.5 17.5t17.5 7.5q8 0 15 -5q3 1 6 1q6 1 12 3q3 7 10 11v1q1 1 1 3q9 27 18 93q12 85 18 188q16 257 -14 345q-4 10 0.5 19.5t14.5 12.5
q18 6 29 -10q2 0 4 -1q6 9 16.5 10.5t18.5 -5t10 -16.5z" />
    <glyph glyph-name="k" unicode="k" horiz-adv-x="547" 
d="M137 716q-4 -108 0 -246q2 -64 7 -171q3 5 7 9q44 54 121 120q23 20 57 48q3 2 14 11.5t13 10.5q15 12 25 21q16 13 32 0q14 6 26 -3q8 -7 9.5 -17t-5.5 -18v-1q-59 -74 -157 -171q17 -17 35 -47q15 -24 40 -73q2 -2 4 -6l3 -6q32 -63 49 -89q26 -37 45 -46
q10 -4 14 -13.5t-0.5 -19t-14 -13.5t-18.5 0q-11 5 -22 13q-4 -11 -16 -15q-10 -3 -19 2t-12 15q-11 39 -55 102q-15 22 -37 50q-8 11 -20 25l-19 25q-16 20 -24 31q-9 -8 -68 -65v-3q1 -9 1 -15q6 -84 5 -117v-3q1 -5 -2 -25q-2 -9 -9 -15t-16 -6h-4q-11 2 -17 12
q-8 -12 -22 -12q-10 0 -17.5 7.5t-7.5 17.5q0 54 -10 157q0 2 -1 7q-6 63 -8 95q-3 53 -2 95q1 38 8 113q6 75 7 112q2 61 -7 109q-2 11 4 19.5t16 9.5q13 3 22 -6q8 12 21 11q11 0 18 -8t7 -18z" />
    <glyph glyph-name="l" unicode="l" horiz-adv-x="221" 
d="M138 706q10 -252 10 -466q0 -26 1 -76v-3q1 -52 1 -79v-9q0 -2 -1 -10v-2v-11v-20q9 -16 -5 -29q-5 -6 -12 -7q-11 -3 -21 4q-1 1 -3 2q-7 -7 -17 -7q-3 0 -6 1q-19 5 -19 24q0 3 1 6q7 29 2 159q0 13 -1 33q-3 57 -3 76q-3 68 -3 202v42q0 103 -3 168q0 11 7 18.5
t18 7.5q8 0 15 -4q6 4 13 4q11 1 18.5 -6.5t7.5 -17.5z" />
    <glyph glyph-name="m" unicode="m" horiz-adv-x="841" 
d="M718 13q-5 0 -10 2q-9 -12 -24 -10q-10 2 -16 10.5t-4 18.5q3 18 -4 60q-1 2 -1 4q-7 40 -7 58q0 27 3 76q3 47 3 67q0 34 -5 60q-10 59 -52 102q-13 12 -26 12q-4 -1 -7 -1q-2 0 -4 -1q-19 -6 -48 -32q-41 -35 -60 -59q-9 -11 -15 -21q4 -40 5 -97v-76q0 -65 2 -91
q2 -39 7 -52q4 -9 0.5 -18.5t-13.5 -13.5q-9 -4 -18 -1t-13 11q-8 -19 -28 -16q-10 2 -16 10.5t-4 18.5q10 63 1 222q-5 77 -14 128q-5 28 -10 45q-3 9 -6 14l-3 6q-19 20 -38 21l-6 -2q-9 -4 -18 -2q-27 -10 -57 -45t-55 -85q-7 -15 -12 -29q1 -24 4 -61q0 -2 1 -8
q6 -74 7 -111q2 -62 -4 -111q-1 -10 -9 -16.5t-19 -5.5q-7 1 -13 6q-7 -8 -18 -8h-4q-10 2 -15.5 9t-5.5 16v4q5 26 4 88q0 35 -4 130q-2 53 -3 84q-4 119 2 190q1 10 9 16.5t18 6.5q13 -2 20 -13q9 7 21 4q10 -2 15.5 -11t2.5 -19q-9 -39 -11 -86q15 24 31 43q44 51 88 63
q12 3 22 3q46 16 80 0.5t53 -59.5q7 -16 12 -36q18 21 53 52q38 33 68 42q8 3 17 4q90 22 136 -55q32 -54 40 -161q4 -42 4 -121q0 -40 1 -53q1 -12 10 -38q1 -4 2 -6q8 -22 10 -36q3 -23 -4 -44q-3 -10 -12 -14.5t-19 -1.5q-15 5 -17 20z" />
    <glyph glyph-name="n" unicode="n" horiz-adv-x="550" 
d="M403 27q6 32 9 92q4 82 -2 151q-7 87 -31 136q-25 51 -67 53q-57 3 -103 -43q-6 -6 -15 -7q-21 -30 -36 -64q3 -41 4 -82q5 -165 -8 -252q-1 -11 -9.5 -17t-18.5 -5q-18 3 -21 21q-7 -1 -13 1q-7 -5 -16 -5q-10 0 -17.5 7.5t-7.5 17.5q0 49 10 129q1 9 3 26q8 61 11 91
q3 41 -4 115q0 5 -1 15q-7 68 -7 102q0 10 7.5 17.5t17.5 7.5q8 0 15 -5q6 5 13 6q10 1 18.5 -5.5t9.5 -16.5q4 -33 8 -77q24 34 50 57q50 44 101 46q61 2 113 -55q38 -42 52 -108q10 -48 9 -121q0 -17 -1 -50q-3 -81 1 -114q1 -6 0 -22q-1 -3 -1 -4v-9q6 -8 4.5 -18.5
t-9.5 -16.5t-19 -5q-5 -18 -24 -18h-4q-9 1 -15 8t-6 17v4z" />
    <glyph glyph-name="o" unicode="o" horiz-adv-x="558" 
d="M271 527q74 13 132 -36q66 -58 82 -167q16 -110 -32 -200q-54 -103 -171 -128q-85 -19 -152 59q-58 68 -72 171q-15 109 30 190q53 95 170 113q7 1 13 -2zM192 428q-45 -43 -61 -119q-12 -57 -3 -113t37 -92q5 -8 4 -18q47 -53 102 -42q56 12 95 47q3 12 14 17l2 2
q4 5 8 14q9 22 14 57q12 82 -4 159q-17 85 -61 113q-52 32 -143 -23z" />
    <glyph glyph-name="p" unicode="p" horiz-adv-x="554" 
d="M188 410q-20 -30 -34 -71q1 -43 0 -92q-1 -58 -4 -123q1 -2 3 -4q6 -7 14 -17l16 -16q1 0 3.5 -2.5t5 -5.5t3.5 -3q41 -41 79 -36q34 4 66 42q31 35 52 89t23 99q4 90 -29 147q-21 36 -52 51q-19 5 -40 -1q-37 -10 -81 -51q-10 -11 -25 -6zM63 472.5q0 7.5 3 14.5
q-2 11 -3 18q-1 4 -1 6v1q-4 6 -4 13q0 14 11 21q6 4 14 4q13 0 21 -12q5 -7 8 -13q3 1 5 1q11 1 19 -5.5t9 -16.5q3 -29 5 -62q21 29 46 49q61 46 127 33q14 -3 28 -9q12 -4 24 -10q73 -41 100 -164q24 -116 -9 -219q-19 -58 -54.5 -96t-84.5 -51q-5 -1 -12 -3l-3 -1
q-2 -1 -3 -2q-4 -1 -7 -2q-9 -3 -17 -4q-24 -1 -43 18q-5 5 -7 12q-39 11 -75 47q-1 1 -3 3.5t-5 5t-3.5 3l-1.5 1.5q-1 -27 -3 -57q-1 -14 -3.5 -59.5t-2.5 -48.5q-1 -11 -1 -20v-1v-4t1 -8v-8q1 -8 1 -12q3 -8 1 -17q-1 -3 -2.5 -5.5t-3.5 -4.5q-1 -9 -8.5 -15.5
t-16.5 -6.5h-1q-10 0 -17 8q-7 -5 -15 -5q-10 0 -17.5 7.5t-7.5 17.5v1q0 33 1 36v2q1 16 2 43q0 12 1 32q0 1 0.5 3.5t0.5 5.5v5v2q1 11 1 18q2 45 3 78q3 71 5 129q5 146 4 231q0 34 -1 59q-5 6 -5 13.5z" />
    <glyph glyph-name="q" unicode="q" horiz-adv-x="560" 
d="M405 359q-17 12 -43 38l-5 5l-3 2q-2 2 -2 3q-25 24 -39 35q-20 15 -38 20q-65 18 -111 -43q-46 -60 -53 -157q-6 -97 33 -155q33 -47 89 -45q33 9 71 33q11 6 23 1q42 34 70 107q1 3 2 5q2 59 6 151zM490 503q-7 -42 -3 -113q0 -8 1 -24q2 -48 2 -72q0 -63 -5 -179
q-1 -15 -2 -38q-5 -110 -6 -152q-2 -46 -1 -75q1 -2 1 -4q1 -4 1 -8v-3q0 -2 -1 -4q1 -5 1 -8v-3q0 -10 -6 -17t-16 -8h-3q-14 0 -21 11q-7 -10 -20 -10q-3 0 -7 1q-18 5 -18 24q0 4 1 7v2v3v3q0 6 3 11q1 13 1 31q1 23 0 78v15q-2 60 0 91q1 16 1 31q-5 -7 -10 -12
q-44 -48 -107 -63q-19 -5 -37 -6q-69 -16 -121 18q-74 47 -86 165q-13 112 36 204q57 107 162 116q29 3 58 -5q28 -7 56 -29q16 -12 43 -39l3 -2q2 -2 2 -3l5 -5l11 -11q1 17 1 29q2 32 2 47q1 11 8.5 18t17.5 6q4 0 7 -1q9 14 25 11q10 -1 16 -9.5t5 -18.5z" />
    <glyph glyph-name="r" unicode="r" horiz-adv-x="389" 
d="M302 451q-68 -23 -109 -69q-3 -4 -8 -6q-1 -2 -2 -4.5t-5.5 -10.5t-4.5 -9q-13 -23 -21 -37q1 -44 3 -83q3 -118 1 -180v-1l1 -1v-5v-3v-1q0 -2 -5 -35q-1 -9 -8 -15t-16 -6h-4q-9 1 -15 8t-6 16q-8 -18 -27 -15q-10 1 -16.5 9.5t-4.5 18.5q14 101 10 255q-1 43 -5 125
q-3 74 -4 107q0 10 7 17.5t17 8.5q13 0 21 -10q7 5 15 6q10 0 18 -7t8 -17q3 -46 6 -96q23 42 46 65q40 42 96 46q10 1 18 -6t9 -17q0 -5 -2 -10q2 -3 3 -6q3 -10 -1.5 -19t-14.5 -13z" />
    <glyph glyph-name="s" unicode="s" horiz-adv-x="521" 
d="M173 452q-6 -57 -3 -82q4 -37 28 -66q0 -1 1 -1q11 -5 25 -9q53 1 107 -24q9 -3 18 -5q31 -9 51 -21q56 -33 48 -96q-10 -70 -65 -113q-49 -39 -118 -42q-29 -1 -57 6q-26 -10 -56 0q-29 10 -58 37q-25 22 -44 51.5t-25 53.5q-2 10 3.5 19t15.5 11q8 2 16 -1q4 3 8 4
q10 3 19 -1.5t13 -14.5q19 -58 67 -89q17 -11 38 -17q10 1 18 -5q20 -4 41 -4q52 2 89 31q5 5 10 9q-15 14 -5 31q19 32 9 58q-10 24 -41 43q-6 4 -12 7q-13 3 -32 7l-5 1q-5 1 -6 2q-7 1 -12 2q-24 6 -41 10q-7 0 -12 -2q-10 -3 -19 2t-12 15q-22 9 -39 20q-62 44 -54 127
q5 55 44 87.5t97 32.5q68 29 129 10q41 -13 66.5 -44t32.5 -77q1 -10 -5 -18.5t-16 -9.5q-6 -1 -12 1q-3 -9 -12 -14t-19 -1.5t-14 12.5q-21 40 -59 64.5t-81 26.5l-12 -6q-16 -9 -29 2q-11 -3 -21 -8q2 -6 2 -12z" />
    <glyph glyph-name="t" unicode="t" horiz-adv-x="328" 
d="M13 527q27 -4 67 -1q4 1 8 1q-2 24 -3 44q-3 46 1 84q1 10 9 17t18 6q8 -1 15 -7q8 7 18 7q11 -1 17.5 -9t5.5 -18q-4 -57 -6 -116h6q31 2 57 -2q10 -2 16 -10.5t4 -18.5t-10 -16t-19 -5q-19 4 -46 2h-9q-2 -227 31 -428q2 -1 7 -1q6 0 9 -1q7 0 11 1q19 11 33 -6
q6 -8 5 -18t-9 -17q-9 -7 -23 -9q-8 -1 -19 -1q-4 1 -11 1q-9 1 -11 1q-31 0 -52 25q-17 19 -26 53q-14 50 -15 138q0 43 3 108q3 63 3 72q-2 27 -6 74q-4 0 -8 -1q-46 -4 -79 1q-10 2 -16 10.5t-4.5 18.5t10 16t18.5 5z" />
    <glyph glyph-name="u" unicode="u" horiz-adv-x="553" 
d="M473 503q11 -38 11 -238q-1 -194 -10 -248q-2 -10 -10.5 -16.5t-18.5 -4.5q-12 2 -18 13q-2 -8 -4 -15q-2 -10 -11 -15.5t-19 -3t-15.5 11.5t-2.5 19q9 37 11 101q0 10 1 20q-23 -45 -53 -80q-18 -21 -43 -30q-14 -5 -41 -9q-18 -2 -26 -4q-45 -10 -79 14q-29 19 -47 63
q-26 62 -33 184q-2 42 -3 126q-1 81 -5 97q-3 10 2.5 19t15.5 11q12 3 22 -5q6 6 14 6q10 2 18 -5t9 -17q6 -57 8 -169q2 -111 8 -167q4 -38 12 -71q16 4 26 -9q10 -15 0 -30q9 -1 21 2q10 2 30 5q22 3 31 6q13 5 22 15q60 71 89 193q13 54 20 122q3 25 5 56v5q2 21 4 48v1
q1 10 8 16.5t17 6.5h2q9 -1 15 -7q13 -4 17 -17z" />
    <glyph glyph-name="v" unicode="v" horiz-adv-x="543" 
d="M472 498q-19 -54 -85 -206v-1q-48 -109 -66 -155q-19 -48 -27 -75v-7q3 -12 -5 -22q-2 -1 -3 -2q0 -1 -1 -1q1 -5 1 -10q0 -10 -7 -17.5t-18 -7.5q-8 0 -14 5q-7 -13 -21 -14h-2q-10 0 -17 6.5t-8 16.5q-1 20 -29 82q-11 22 -30 63q-1 2 -8 16.5t-9 18.5q-10 21 -17 36
q-20 41 -33 73q-56 127 -64 203q-1 10 5.5 18t16.5 9q13 1 22 -9q7 8 17.5 7.5t17.5 -7.5q17 -17 27 -40q5 -14 11 -39q6 -29 12 -42q12 -25 22 -73v-2q8 -38 15 -56q5 -13 20 -42q1 -3 3.5 -7.5t5.5 -10t6 -11.5t6 -11.5t5.5 -10t4.5 -7.5l1 -2q2 -6 5 -11q20 59 44 123
q72 190 106 236q6 8 16 9.5t19 -4.5q3 -3 6 -7q1 3 2 5q3 9 12.5 13.5t19 1.5t14 -12.5t1.5 -19.5z" />
    <glyph glyph-name="w" unicode="w" horiz-adv-x="774" 
d="M702 502q-10 -18 -29 -85q-12 -41 -40 -140v-1q-31 -115 -45 -159q-11 -36 -18 -57q-11 -28 -21 -36q-2 -2 -5 -3v-8q0 -10 -7 -17.5t-18 -7.5q-17 0 -23 17q-6 -18 -24 -18q-2 0 -4 1q-10 2 -16 9.5t-5 17.5v3q-1 6 -3 16q-4 19 -13 54q-9 38 -39 157q-1 2 -1 4
q-19 75 -30 119q-4 -16 -9 -32q-16 -58 -49 -157q-1 -2 -3 -9.5t-4 -13.5l-3 -7q-6 -18 -10 -31q-11 -34 -19 -60v-2l-1 -1q-1 -2 -1 -4q-1 -3 -2 -5q3 -5 3 -10q0 -9 -6 -16t-15 -9q-1 -1 -2 -3q-6 -11 -18 -13q-9 -1 -17 3q-5 2 -9 7q-2 -5 -6 -8q-7 -5 -16 -5
q-12 0 -20 9q-6 8 -9 13q-2 2 -3 4q-1 1 -1.5 2t-0.5 3q-2 3 -2 6q-1 4 0 8q0 2 1 4v2q-5 20 -13 62q0 1 -3 17.5t-6.5 35.5t-5.5 27q-9 51 -18 89q-38 168 -83 222q-7 8 -6 18.5t8.5 17t18 5.5t17.5 -9t13 -18q7 13 21 14q10 1 18 -6t9 -17q3 -50 18 -110q12 -51 40 -142
q10 -31 13 -40q7 -23 12 -40q1 -2 11 -28q12 47 14 57q5 31 16 70q7 22 22 68q8 22 12 34q28 88 28 141q0 10 7.5 17.5t17.5 7.5q19 0 24 -18q9 15 26 12q9 -1 15 -7.5t6 -15.5q9 -8 19 -26q12 -21 25 -56q23 -60 50 -156q12 -42 24 -86q10 37 38 114q3 7 5 12q24 66 35 104
q15 54 16 95q0 10 7.5 17t17.5 7q19 0 24 -19q2 7 5 11q4 10 14 13t19.5 -1.5t12.5 -14.5t-1 -19z" />
    <glyph glyph-name="x" unicode="x" horiz-adv-x="511" 
d="M439 493q-25 -57 -153 -243q-5 -7 -9 -13q76 -108 150 -201q7 -8 5.5 -18t-9.5 -17q-10 -8 -23 -4q-15 -12 -31 -1q-39 29 -70 76q-19 28 -47 87l-1 1q-6 14 -11 24q-92 -129 -132 -177q-6 -7 -15.5 -8.5t-17.5 3.5q-4 -4 -11 -6q-8 -2 -15 0q-16 5 -18 21q-2 6 1 13l2 6
q4 7 12 17q13 17 24 28q19 18 45 60q21 35 27 44q17 26 41 60q5 7 11 14q-12 15 -42 40q0 1 -2 2l-1 1q-36 31 -52 51q-18 22 -39 67q-1 1 -1 3q-13 26 -20 38q-11 19 -24 32q-7 8 -7 18t7.5 17.5t18 7t17.5 -7.5q3 -3 6 -7q0 20 18 25q10 2 19.5 -3t11.5 -15
q19 -66 125 -222q43 59 66 95q37 58 55 108q4 10 13.5 14.5t18.5 0.5q8 -3 12 -9q5 8 14 11.5t18 -0.5q10 -4 13.5 -14t-0.5 -19z" />
    <glyph glyph-name="y" unicode="y" horiz-adv-x="544" 
d="M473 495q-17 -61 -50 -156q-43 -122 -86 -225q-28 -66 -54 -119q0 -3 -1 -7q0 -2 -1 -3q-1 -15 -14 -21q-18 -34 -35 -62q-62 -102 -115 -117q-10 -3 -19 3q-2 -1 -3 -1q-17 -1 -28 8q-14 10 -14 30q0 10 7 17.5t18 7.5q13 0 20 -11q8 3 17 9q46 30 63 80q4 11 13 33
q4 10 6 16q-5 31 -16 65q-9 25 -27 67q-1 3 -3 7l-1 3q-2 3 -2 4q-22 52 -32 82q-10 29 -29 93q-20 68 -33 103q-20 56 -43 98q-5 10 -2 19.5t12 14.5q19 11 32 -6q1 3 3 5q7 8 17.5 8.5t18.5 -5.5q17 -16 43 -79q20 -49 46 -130q10 -32 21 -68q20 -63 43 -143q10 26 24 62
q3 8 10 26q38 100 56 151q28 83 43 151q2 10 11 15.5t19 3.5q12 -3 17 -14q4 9 12.5 13.5t18.5 1.5q10 -2 15 -11.5t2 -18.5z" />
    <glyph glyph-name="z" unicode="z" horiz-adv-x="533" 
d="M432 458q-23 -28 -64 -83q-16 -21 -38 -52q-5 -6 -22 -30l-18 -24q-3 -4 -5 -7q-69 -94 -106 -140q-25 -33 -43 -53q-1 -3 -3 -6q0 -2 -2 -4q-2 -3 -8 -7q20 0 61 -1q155 -1 231 -5q2 0 4 -1h2h1h1q7 6 16 6q10 0 17.5 -7.5t7.5 -17.5q0 -23 -23 -30q-7 -2 -19 -1h-5
q-4 1 -5 1q-75 4 -229 5q-44 1 -66 1q-49 0 -86 1q-11 1 -18 8.5t-7 17.5q1 16 16 23l2 4q28 41 67 90q24 30 72 86q1 0 3 2q1 2 2 3q67 78 98 119q47 60 76 114q-13 0 -31 1q-46 1 -69 1q-108 2 -180 -8q-11 -2 -19 4.5t-9.5 17t5 18.5t16.5 9q75 11 188 9q23 0 69 -1
q68 -2 102 -2q10 0 17.5 -7.5t7.5 -17.5q0 -6 -3 -11q5 -13 -4 -25z" />
    <glyph glyph-name="braceleft" unicode="{" horiz-adv-x="390" 
d="M-10 236q-10 0 -17 7.5t-7 17.5q0 15 13 22q3 12 14 17l10 5q2 1 4 1q3 1 5 1q4 2 13 5h1q24 9 39 16q12 6 22 13q0 2 1 4q6 18 9 48q3 20 5 62q2 25 2 36q4 45 9 75q8 41 21 70q34 68 107 78q19 3 41 3q11 0 18 -7t7 -17.5t-7 -18t-18 -7.5h-14q-4 -2 -9 -2t-10 -1
q-14 -3 -24 -9q-17 -10 -26 -31q-8 -20 -11 -52q-1 -21 -1 -68v-1q0 -58 -3 -86q-6 -49 -28 -78q-24 -33 -69 -56q-9 -4 -20 -9q46 -17 69 -60q16 -13 29 -29q38 -48 49 -125q5 -32 6 -94q1 -50 5 -66l2 -6q6 -2 13 -5q2 0 4 -1q1 -1 3 -2q1 0 3 -1q22 -8 33 -15
q20 -11 32 -26q7 -8 6 -18.5t-9.5 -17t-18.5 -5.5t-17 9q-10 13 -45 27q-2 1 -2.5 1h-1.5q-19 2 -32 15q-6 3 -11 6q-24 16 -37 40q-16 30 -24 70q-5 28 -8 71q0 8 -1 26q-3 48 -6 69q-4 27 -12 45q-34 24 -86 34q-17 3 -20 20z" />
    <glyph glyph-name="bar" unicode="|" horiz-adv-x="229" 
d="M159 704v-179v-161q-1 -227 -1 -341q0 -10 -7.5 -17.5t-17.5 -7.5q-6 0 -11 3q-4 -1 -7 -1q-7 0 -13 4q-9 -12 -24 -10q-10 2 -16 10t-5 19q5 36 2 105v11q-3 53 -2 80q1 34 3 101q4 89 5 132q3 144 -4 250q0 10 6.5 18t17.5 8q3 1 7 0q8 14 24 12q11 -1 18 -11
q11 0 18 -7t7 -18z" />
    <glyph glyph-name="braceright" unicode="}" horiz-adv-x="425" 
d="M233 165q-6 -22 -7 -53q0 -20 3 -61q0 -4 1 -6q3 -51 1 -78q-3 -46 -19 -79q-6 -12 -18 -23q-6 -5 -18 -14l-12 -9v-1q-4 -5 -9 -10l-1 -1q-27 -25 -67 -28h-4h-1q-4 -1 -5 -1h-9q-13 -1 -21 0q-9 2 -16 6q-5 4 -8 10q-6 4 -8 10q-4 9 -2 19q2 5 5 9q5 9 15 11t18 -3l3 1
l4 1q6 2 9 2q25 4 39 21t23 56q6 25 11 67q1 4 1 7q0 6 -1 12q-1 32 -1 45q0 24 2 41q6 45 34 80q18 23 49 45q15 13 33 22q6 4 13 8q-59 25 -89 78q-16 28 -25 66q-6 27 -10 68q0 10 -2 29q-4 46 -7 66q-4 22 -10 37q-27 37 -76 48q-8 2 -13 8h-8q-10 0 -17.5 7.5
t-7.5 17.5t7.5 17.5t17.5 7.5q98 0 135 -68l6 -14h1q29 -43 40 -112q5 -30 9 -93q3 -36 5 -49l3 -9q15 -9 12 -26q29 -31 82 -42l1 -1h3q24 -6 28 -31v-7v-2q2 -11 -4 -19.5t-16 -10.5q-30 -5 -53 -17q-15 -9 -27 -18q-13 -11 -22 -25q1 0 1 -6z" />
    <glyph glyph-name="asciitilde" unicode="~" horiz-adv-x="650" 
d="M11 161q25 139 105 166q34 11 78 2q33 -7 77 -28q20 -9 51 -26q2 -1 11.5 -6t11.5 -6q13 -7 22 -11q18 -10 31 -15q31 -5 53 4q13 6 23 17q7 8 19 28q1 1 1 2q10 17 16 26q8 11 17 19l8 12q6 9 16 11t18.5 -4t10.5 -16t-4 -19q-1 -1 -2 -3q-2 -7 -7 -13l-11 -22v-1l-1 -1
v-2h-1q-16 -35 -28 -52q-21 -29 -52 -43q-33 -14 -86 7q-2 0 -4 1q-3 1 -7 2q-20 4 -44 13q-14 5 -43 17q-23 9 -35 14q-60 22 -95 16q-47 -7 -83 -62q-5 -6 -11 -9q-4 -13 -6 -26q-2 -11 -10.5 -16.5t-18.5 -4t-16 10t-4 18.5z" />
    <glyph glyph-name="exclamdown" unicode="&#xa1;" horiz-adv-x="292" 
d="M187 419q-18 2 -22 19q-5 -1 -11 -1q-7 -8 -18 -8h-5q-9 2 -14.5 9t-5.5 16q0 2 1 5q0 3 1 7q-7 20 -7 21q-2 3 -2 8q0 15 14 22q3 9 11.5 13.5t17.5 2.5q7 -1 12 -6h2h4q8 9 19 9h1q10 0 17.5 -6.5t7.5 -16.5q1 -15 2 -27q15 -10 10 -27q-2 -9 -6 -14l-2 -4
q-1 -9 -8 -15.5t-17 -6.5h-2zM194 316q-8 -84 0 -262q0 -14 1 -39q6 -130 6 -186q0 -11 -7.5 -18t-17.5 -7q-8 0 -15 5q-4 -3 -9 -4h-4q-9 0 -16 6t-9 15q-6 39 -6 44q0 3 1 5v3q-3 64 -2 178q1 123 8 287q0 11 7.5 18t18.5 6q10 0 16.5 -7t7.5 -17q9 -2 15 -9.5t5 -17.5z
" />
    <glyph glyph-name="cent" unicode="&#xa2;" horiz-adv-x="581" 
d="M210 431q-16 -19 -27.5 -70.5t-13.5 -111.5q-3 -115 28 -169q3 -4 7 -7q30 87 38 109l8 24q35 103 57 172q9 28 18 75l-12 4q-32 6 -59 2q-21 -9 -39 -19q-2 -5 -5 -9zM414 597q-12 -27 -21 -63l-6 -26q19 -4 34 -9q31 -10 46 -27l2 -2q2 -3 4 -5.5t3 -3.5q22 -27 26 -48
q1 -6 0 -19v-2v-3q4 -5 5 -11q1 -11 -5 -19t-16 -10q-7 -1 -14 1q-6 -1 -11 0q-9 -2 -17 3q-16 9 -32 25q-9 8 -25 26h-1q-10 12 -16 18q-7 -33 -16 -59q-21 -70 -57 -173l-8 -24q-8 -23 -40 -116q40 -10 89 9q19 7 35 23q5 4 9 9q18 26 36 84q3 10 12 15t19 2q9 -3 14 -11
h3q5 8 14 10.5t17 -1.5q10 -5 13 -15t-1 -19q-12 -23 -40 -54.5t-62 -59.5q-11 -12 -27 -29q-10 -9 -23 -7q-43 -26 -81 -34q-29 -5 -54 1q-24 -71 -28 -84q-6 -17 -24 -17q-4 0 -8 2q-17 5 -17 23q0 4 1 8q1 2 1 3q0 2 1 2q0 1 0.5 2t0.5 4q1 3 4 11t4 11l1 3v1l1 1v1l1 2
q7 20 18 52l-2 4q-41 17 -73.5 75t-41.5 128q-12 96 27 172q19 36 48 65q41 53 104 65q3 1 6 3q8 2 15 0q15 1 30 0q8 8 18 8h4q2 -1 6 -1q2 0 18 -2q4 16 7 31q10 40 24 71q4 10 13.5 13.5t19 -0.5t13.5 -13.5t0 -19.5z" />
    <glyph glyph-name="sterling" unicode="&#xa3;" horiz-adv-x="593" 
d="M198 616q-48 -54 -32 -133q6 -28 26 -82q8 -19 12 -30h51q47 1 71 1q11 0 18 -7.5t7 -18t-7 -17.5t-18 -7q-23 0 -71 -1h-36q11 -44 5 -78q-3 -18 -11 -38q-5 -11 -15 -31l-1 -1q-8 -15 -11 -23q6 -13 -2 -25q-12 -17 -30 -37q28 9 55 14q34 6 71 -1q22 -4 61 -18
q34 -12 50 -15q50 -11 89 20q8 6 18.5 5t16.5 -9q8 -10 5 -23q4 -7 2.5 -16.5t-8.5 -15.5q-64 -51 -130 -54q-27 -2 -58 5q-21 4 -52 14q-4 1 -14 5q-29 9 -45 13q-23 6 -43 8q-48 3 -94 -22q-13 -7 -25 1q-10 -3 -19 1t-13 14q-4 11 3 22q-6 17 9 28q49 36 94 117
q32 59 33 104q-3 17 -10 36h-9q-63 1 -115 6q-10 1 -16.5 9t-5.5 18t9 16.5t18 5.5q43 -4 94 -5q-3 6 -7 13q-24 43 -32 61q-24 54 -19 99q8 56 62 109q26 27 65 44q44 20 79 15h1q10 9 23 5l10 -2q82 15 147 -37t65 -138q0 -11 -9 -19q0 -11 -7 -18t-18 -7h-2q-2 -3 -5 -4
q-8 -6 -18.5 -4t-16.5 10q-10 16 -25 44q-1 1 -2 3q0 1 -1 2v1q-17 31 -27 45q-15 23 -33 38q-31 27 -70 26q-5 -2 -10 -1q-27 -3 -54 -19q-8 -5 -17 -10q-1 -7 -6 -11z" />
    <glyph glyph-name="currency" unicode="&#xa4;" horiz-adv-x="563" 
d="M384 165q-22 -13 -46 -20q-68 -21 -137 2q-8 3 -13 10q-32 9 -57 29q-6 -8 -13 -17q-2 -3 -5 -7q-10 -12 -24 -28l-6 -6q-2 -13 -14 -18q-2 0 -3 -1q-6 -3 -13 -3q-9 0 -16 6q-9 7 -9 19q0 9 6 16l1 1q1 2 8 10t8 9q13 15 23 27q3 4 5 7q10 12 17 21q-35 49 -35 114
q-1 78 45 135q-24 31 -54 56q-8 6 -9 16.5t5.5 18.5t17 9t17.5 -6q33 -26 60 -59q63 45 155 37q3 0 5 -1q1 0 2 1q20 3 38 -3q12 -3 24 -10q16 -6 29 -14q8 6 12 8q30 23 39 39q5 9 15 11.5t19 -2.5t11.5 -15t-2.5 -19q-14 -25 -52 -54l-6 -3q4 -5 16 -22q44 -60 41 -129
q-4 -64 -46 -115l-18 -20q15 -30 37 -37q10 -3 14.5 -12.5t1.5 -19.5t-12.5 -14.5t-19.5 -1.5q-30 11 -51 39q-6 7 -11 16zM160 424q-2 -5 -4 -11q-14 -34 -20 -75q-7 -42 -3 -70q3 -13 7 -19q2 -4 5 -4q15 -5 17 -20q49 -37 125 -21q45 10 72 51q25 39 29 95q3 49 -12 89
q-3 0 -6 1q-36 17 -56 24q-27 10 -48 12h-1q-9 -3 -17 1q-48 -2 -83 -48q-2 -3 -5 -5z" />
    <glyph glyph-name="yen" unicode="&#xa5;" horiz-adv-x="614" 
d="M24 461q11 1 41 4q18 2 28 3q18 1 32 1q-8 13 -17 27q-38 59 -116 168q-6 8 -4 18t10 16t18.5 4.5t16.5 -9.5q0 -1 6 -9q7 6 16 6q6 -1 11 -3h1q10 4 19 -0.5t13 -14.5q10 -29 68 -138q6 -6 11 -12q20 -22 30 -38q5 -9 16 -35l9 -23q6 -14 10 -24q11 -17 20 -30l4 -6
l8 16q12 20 33 54q2 2 5 7t5.5 10t5.5 9l2 4q12 17 19 30q16 25 28 46q51 88 67 139q3 10 12 15t19 2t15 -13q3 3 6 7q7 8 17 8.5t18 -6.5q7 -5 8 -14q14 -11 8 -27q-23 -61 -66 -129q-19 -30 -44 -64q27 2 53 2q11 0 18 -7.5t7 -17.5t-7 -17.5t-18 -7.5q-45 0 -92 -5
q0 -1 -1 -2q-4 -5 -5 -6q-3 -4 -5 -7q-43 -58 -65 -90v-3t-1 -3h87q50 -1 75 -1q10 0 17.5 -7t7.5 -17.5t-7.5 -18t-17.5 -7.5q-25 0 -75 1h-95q1 -35 2 -54q1 -53 5 -91q1 -9 2 -22q1 -20 2 -36q1 -22 1 -34q-1 -10 -2 -15q-1 -4 -3 -7q-4 -7 -11 -10q-11 -6 -22 -1
q-6 3 -10 8q-11 13 -2 28v2q-4 -3 -9 -4q2 -9 -3.5 -17t-14.5 -11q-10 -2 -19 3t-11 15q-10 31 -14 149q-2 55 -1 95q-71 -3 -131 -11q-10 -1 -18 5t-9.5 16.5t5 18.5t16.5 9q64 9 140 12q2 5 5 8v1q-2 13 -4 18q-19 45 -47 96q-20 4 -59 1q-10 -1 -26 -3q-32 -3 -45 -4
q-10 0 -17.5 7t-8 17t6.5 18t17 8z" />
    <glyph glyph-name="brokenbar" unicode="&#xa6;" horiz-adv-x="233" 
d="M163 708q-6 -33 -9 -90q0 -20 -2 -65q-1 -43 -2 -62q1 -2 1 -4v-5v-2t-0.5 -2t-1.5 -5t-1 -5q0 -2 -1 -4v-1q0 -1 -0.5 -2t-0.5 -2q-2 -8 -9 -13.5t-15 -5.5h-3q-3 -4 -9 -6q-20 -8 -32 10q-5 7 -6 16q-2 10 -2 29q0 20 3 83q1 19 1 29q4 83 -1 112q-1 10 5 18.5t16 10.5
q17 3 26 -13q9 11 23 8q10 -2 16 -10.5t4 -18.5zM145 269q-3 -32 -1 -72q1 -27 7 -80q8 -75 8 -113q0 -10 -7.5 -17.5t-17.5 -7.5q-17 0 -23 15q-7 -13 -22 -13h-4q-10 2 -15.5 9t-5.5 16v4q1 7 -1 29q-1 9 -3 23q0 3 -1.5 14.5t-1.5 12.5q-5 37 -7 61q-6 83 14 127
q5 9 14.5 12.5t18.5 -0.5l4 -2q8 10 21 9q11 -1 17.5 -9t5.5 -18z" />
    <glyph glyph-name="section" unicode="&#xa7;" horiz-adv-x="555" 
d="M151 378q-33 -34 -41 -60q-5 -18 3.5 -33.5t32.5 -32.5q17 -12 54 -32q8 -4 11 -6q47 -26 68 -43q15 -12 60 -55q6 4 14 4q17 0 34.5 10t25.5 24v1q0 7 3 13q25 51 -10 97q-16 21 -47 45q-22 17 -65 45q-4 2 -8 5q-8 5 -9 5q-43 29 -66 45q-6 5 -11 9q-3 -3 -6 -5
q-22 -13 -37 -25q-2 -6 -6 -11zM283 -145q62 30 85 57q16 18 12 34q-5 16 -29 37q-19 17 -59 43q-1 1 -14 9.5t-17 10.5q-18 11 -29 20q-34 24 -45 45q-1 2 -1 4q-26 13 -45 24q-43 24 -67 49q-65 67 -18 155q19 36 43 61t62 49q-4 4 -8 9q-61 65 -45 140q10 43 51 70
q21 14 50 23q64 29 115 20q14 -3 26 -9q36 -7 57 -45l4 -6q35 -36 35 -89q0 -9 -5.5 -15.5t-14.5 -8.5q-4 -9 -12 -13q-10 -4 -19.5 -0.5t-13.5 13.5q-7 15 -16 48q-1 2 -1 3q-9 33 -16 46q-6 3 -12 5q-28 9 -59 6.5t-54 -15.5q-10 -6 -21 -3q-6 -5 -11 -14q-7 -12 -15 -40
t13 -53.5t81 -61.5l47 -28q49 -29 77 -50q41 -31 62 -63q58 -84 1 -191q-23 -43 -75 -57q9 -9 17 -16q5 -5 11 -10q72 -64 51 -149q-6 -22 -35 -43q-21 -17 -52 -32q-74 -35 -107 -25q-9 2 -18 6q-25 5 -49 17q-77 36 -123 115q-5 9 -2.5 19t11.5 15q19 11 32 -5q1 2 3 4
q3 3 6 5q4 3 8 4h8q3 -1 5 -1q12 -4 16 -15v-1v-1q2 -3 4 -7q5 -12 11 -23l13 -26q4 -5 6 -9l2 -2v-1q24 -23 63 -40q7 -1 15 -1q2 2 5 3z" />
    <glyph glyph-name="dieresis" unicode="&#xa8;" horiz-adv-x="373" 
d="M47 717q15 3 28 -4h1h5q6 0 11 -2q3 -2 5 -3q4 2 9 2q6 0 12 -3q13 -7 13 -22q0 -6 -2 -11t-4 -14q7 -7 7 -17q0 -5 -1 -10q7 -14 -4 -27q-7 -8 -17 -8.5t-18 5.5l-1 1h-1l-1 1q-2 1 -3 2q-2 1 -4 3q-6 -4 -14 -4q-7 0 -13 4q-12 7 -12 21v1q-3 8 -3 17l2 10q1 4 3 10
q-14 4 -17 18q-2 10 3.5 19t15.5 11zM203 712q5 2 10 3q1 0 3 1h2h1h1l4 4q7 6 16 6q12 0 19 -9q4 -4 5 -9q17 6 29 -6q8 -8 10 -20q1 -7 -1 -15q-1 -7 -6 -22q-3 -6 -4 -10q-1 -5 -1 -8v-1q5 -8 3 -18t-10.5 -16t-18.5 -4t-16 11q-3 4 -5 9q-7 -7 -17 -7q-7 0 -12 3
q-7 3 -10 10q-8 1 -14 6q-7 8 -7 18q0 8 5 15q-7 7 -7 17q0 6 3 12q-2 10 3 19t15 11z" />
    <glyph glyph-name="copyright" unicode="&#xa9;" horiz-adv-x="775" 
d="M61 149q-44 65 -54 149q-15 111 32 212q49 109 151 164q37 20 84 29q37 7 86 8h58h14q10 12 26 8q59 -15 93 -27q61 -23 89 -54q5 -5 9 -11q14 -19 20 -43q3 -13 4 -39q2 -24 4 -36l4 -18q4 -11 7 -21q23 -75 16 -152.5t-44 -138.5q-18 -29 -49 -52q-16 -13 -45 -28
q-42 -38 -97 -58q-11 -6 -21 -11q-21 -9 -38 -12t-31 1q-37 -4 -78 -2q-75 4 -135 37q-72 9 -103 89zM200 617q-37 -28 -68 -114t-38 -181q-7 -91 12 -150q11 -16 24 -29q23 -24 50 -40h3q14 0 21 -13q45 -20 100 -23q35 -2 67 1q6 3 13 2q34 5 64 16q17 9 31 19
q16 11 42 25q2 2 6 4q1 0 3 2l3 1q2 1 4 3q24 21 43 49q38 56 51.5 131t0.5 158q-22 58 -61.5 101t-89.5 61q-3 1 -5 2t-10 4t-9 4q-10 3 -16 5q-20 6 -39 -1q-15 -5 -26 7h-15q-94 -2 -147 -31q-4 -2 -7 -4q-3 -5 -7 -9zM544 271q-8 -31 -31 -53q-15 -14 -43 -31
q-1 -1 -4 -2.5t-4 -1.5q-4 -3 -7 -5q-10 -6 -17 -11q-8 -6 -18.5 -4t-16.5 10q-19 -2 -40 0q-43 5 -78 28q-19 6 -36 18q-47 32 -55 92q-6 49 17 105l2 4q12 48 42 82q51 58 133 58h11q9 1 14 1q16 -1 28 -4q18 -4 30 -15q2 -2 5 -4q15 -11 27 -22q26 -23 39 -47
q4 -10 1 -19.5t-13 -14.5q-3 -2 -6 -2q-2 -12 -12 -18q-9 -6 -19 -3t-16 12q-7 12 -14 33q-1 2 -2 7q-10 27 -18 36q-5 4 -12 8q-7 2 -18 3q-5 0 -13 -1h-12h-7q-6 -6 -14 -7q-29 -4 -58.5 -32t-48.5 -67q-3 -15 -4 -31q-3 -57 26 -99q10 -16 25 -28q10 -2 33 -4
q28 -2 43 -5l3 -1q3 0 6 -0.5t5 -0.5q8 -2 15 -3q6 -1 11 -1q29 15 56 55q9 13 25 11q10 9 23 5q10 -3 15 -12t2 -19z" />
    <glyph glyph-name="ordfeminine" unicode="&#xaa;" horiz-adv-x="426" 
d="M128 535q0 -1 -1 -2q-2 -1 -3 -4q-4 -5 -8 -12q-8 -15 -13 -32q-1 -3 -2 -5q4 -4 6 -9q15 -6 35 -6q47 0 94 37q2 3 6 4q-1 6 -1 13q0 19 3 48q-12 0 -31 -6l-4 -2q-1 0 -3 -1h-1q-21 -7 -35 -9q-20 -4 -36 -9q-3 -3 -6 -5zM121 741q33 22 68 20q72 -6 102 -59
q22 -37 19 -101q-1 -21 -5 -55q-4 -38 -4 -49v-10q8 -8 7 -19h2t2 -1h3q12 -3 18 -7q14 -6 21 -19q4 -10 1 -19.5t-12 -14.5q-19 -9 -31 8h-1q-2 1 -9 3h-1l-1 1h-3q-14 4 -22 9q-15 10 -21 25q-55 -38 -112 -38q-45 -1 -77 22q-6 2 -10 7q-3 3 -6 7q-18 19 -20 43t14 46
q31 43 118 58q11 2 28 7l2 1l2 1q3 1 4 1q30 10 52 9q0 13 -2 23q-7 28 -41 49q-11 8 -24 12q-7 2 -12 2h-4h-1q-53 -20 -68 -69q-2 -10 -11.5 -15t-19.5 -2t-14.5 12t-1.5 19q15 53 63 85q3 5 8 8z" />
    <glyph glyph-name="guillemotleft" unicode="&#xab;" horiz-adv-x="540" 
d="M436 121q-1 1 -2 1q-7 1 -12 5l-6 4q-9 1 -18 8q-11 10 -18 30q-2 1 -4 3q-2 1 -4 4q-4 -1 -8 -1q-7 1 -12 6q-5 4 -10 12q-1 2 -2 5l-3 6h-1q-10 0 -17.5 7t-7.5 17q0 1 -0.5 4t-0.5 6v4q-1 12 -1 21v2q-5 4 -7 11q-7 7 -7 16t6 15q5 8 10 18q1 2 2 3q4 8 10 15
q7 8 19 8h1q19 19 25 28q7 10 20 10q8 0 14 -4h1q2 0 3 1q2 10 9 19q1 10 8.5 16.5t17.5 5.5q10 0 17 -8t7 -18q-1 -14 -10 -25v-1q0 -7 3 -25q1 -3 1 -5q0 -9 -5.5 -16t-14.5 -9h-5q-13 0 -21 10l-17 -17q-6 -5 -10 -9q-9 -10 -23 -18q5 -6 4 -14l1 -1q0 -2 1 -5
q1 -6 5 -15q2 0 4 -1l6 -2q2 -1 3 -2l3 -3q1 -2 3 -4q0 -1 1 -2t2 -4h1q9 0 16.5 -6.5t8.5 -16.5v-3h1h2q10 0 17 -6t8 -16t3 -16q7 -3 12 -8q6 -8 5.5 -18.5t-8.5 -17.5q-12 -10 -26 -4zM244 371q-13 -10 -35 -25q-2 -1 -4 -3l-3 -2q-2 -5 -6 -9q-6 -5 -15 -13
q-1 -1 -8 -7.5t-8 -7.5q-9 -9 -16 -15q-1 -2 -1 -4q-2 -5 -2 -7t1 -4q1 -3 2 -8q1 0 1 -1t1 -4q1 -1 2 -4q6 -2 12 -8q1 -1 3 -2q7 1 14 -2q6 -3 12 -9q7 -7 16 -22q3 -4 3 -9h4h3q8 -1 14 -6q1 0 3 -1q9 -1 16 -8q5 -6 12 -18q5 -9 2.5 -19t-11.5 -15l-4 -2
q-7 -14 -22.5 -14t-22.5 14q-8 5 -12 15q-7 4 -13 11h-6q-19 0 -24 17q-3 10 -9 19h-4q-18 0 -24 17q-3 7 -4 12q-19 4 -19 24v13v2v4l-3 3q-5 6 -5 15q0 6 3 12q2 12 13 18q3 2 7 2v1q0 13 10 20q9 7 27 20q3 2 17.5 12t14.5 11q3 2 4 3q21 15 34 24q8 7 18.5 5.5t16.5 -10
t4.5 -18.5t-9.5 -17z" />
    <glyph glyph-name="logicalnot" unicode="&#xac;" horiz-adv-x="641" 
d="M52 391q76 12 172 11q50 -1 148 -7q108 -6 161 -6q10 0 17.5 -7t7.5 -18q0 -7 -5 -14q16 -42 18 -100q4 -78 -22 -117q-6 -9 -16.5 -11t-18.5 4l-1 1q-4 -2 -8 -3q-10 -2 -19 4t-11 16q-8 41 -9 108v33q0 38 -1 56q-32 1 -95 4q-98 6 -146 7q-93 0 -164 -11q-11 -1 -19 5
t-10 16t4.5 18.5t16.5 10.5z" />
    <glyph glyph-name="registered" unicode="&#xae;" horiz-adv-x="799" 
d="M303 386q3 0 6 -1h4q35 6 62 29q32 26 35 57q2 25 -24 37q-31 13 -89 6q0 -46 -1 -115q-1 -7 -1 -13h8zM648 154q-1 -3 -1 -5q0 -10 -6 -17t-15 -8l-10 -12q-46 -53 -99 -80.5t-107 -23.5q-220 14 -322 138q-88 108 -65 262q9 67 39.5 129t75.5 106q49 50 107 69t116 5
q5 -1 9 -4q198 -8 291 -113q87 -98 64 -249q-15 -106 -77 -197zM502 277q8 -14 14 -32q4 -9 8 -25q5 -18 8 -25q3 -10 -1.5 -19.5t-14.5 -12.5q-1 -1 -3 -1q-8 -4 -11 -23q-1 -4 -4 4q-2 3 -8 21q-2 -1 -3 -1q-7 -2 -15 0q-8 1 -14 7q-3 4 -5 9q-1 2 -1 5v4q-1 3 -1 12
q0 11 7 18q1 2 1 4q1 6 5 12q-1 3 -2 5q-7 18 -12 29q-2 6 -4 10q-1 1 -1 2q-21 30 -78 37q-35 5 -73 1q-1 -47 -2 -76l2 -6q0 -1 1 -4l1 -3q4 -13 6 -22q4 -21 -2 -38q-3 -9 -12.5 -14t-18.5 -1q-8 2 -13 8q-4 -1 -9 0q-3 0 -5 1q-6 -2 -11 -2h-3q-10 1 -16 8t-6 17v3
q2 19 3 87l3 117q4 69 12 116q-2 10 -5 18q-3 10 1.5 19.5t14.5 12.5t20 -2q97 20 151 -4q8 -3 15 -8q34 1 70 -22q41 -26 40 -63q-2 -28 -30 -56q-19 -19 -52 -40q-9 -6 -20 -12q36 -15 56 -42q5 -7 14 -28q2 -2 3 -5zM301 666q-58 -2 -108 -66q-47 -60 -74 -154
q-25 -90 -20 -164q5 -67 30 -80q9 -4 12 -14t-1 -19l-2 -4q89 -96 275 -107q41 -3 84 19.5t81 67.5q11 13 22 27q4 22 19 56l6 12q18 40 21 56q5 25 -3 63q-2 6 -5 20q-4 16 -6 25q-18 83 -38.5 129t-51.5 70t-80.5 36.5t-144.5 21.5q-7 1 -13 5h-3z" />
    <glyph glyph-name="macron" unicode="&#xaf;" horiz-adv-x="417" 
d="M33 685q33 -19 136 -17q97 2 145 18q10 3 19.5 -1.5t12.5 -14.5t-1.5 -19t-14.5 -13q-55 -18 -161 -20q-115 -2 -160 23q-9 5 -12 15t2 19t15 12t19 -2z" />
    <glyph glyph-name="degree" unicode="&#xb0;" horiz-adv-x="402" 
d="M149 647q-13 -6 -24 -18q-26 -29 -26.5 -73.5t26.5 -71.5q29 -30 85 -23q43 6 62 40q17 32 8 74q-9 41 -37 62q-29 21 -69 6q-14 -5 -25 4zM212 699q33 -2 60 -22q44 -31 57 -92q13 -59 -13 -108q-31 -56 -100 -66q-80 -10 -127 38q-41 41 -40 107q0 64 39 106
q45 50 115 40q5 -1 9 -3z" />
    <glyph glyph-name="plusminus" unicode="&#xb1;" horiz-adv-x="639" 
d="M64 346q17 1 51 1q1 1 2 1q80 2 132 3v3q-1 83 10 137q2 10 10.5 16t18.5 4q2 -1 4 -1q10 7 23 3q9 -3 13 -11q10 -1 16.5 -8.5t6.5 -16.5q-1 -17 -2 -48q-3 -53 -4 -76q92 2 177 2q10 0 17.5 -7.5t7.5 -18t-7.5 -17.5t-17.5 -7q-86 0 -179 -2q-6 -92 -17 -159
q-2 -9 -10 -15t-18 -5q-5 -3 -11 -3q-11 0 -18 7t-7 18q-1 1 -1 2v7v7q0 9 -1 21q-1 5 -1.5 17t-1.5 24t-1 14q-3 36 -5 63q-52 -1 -133 -3h-1q-34 -1 -52 -2q-11 0 -18.5 7t-7.5 17.5t7 18t18 7.5zM47 71q60 17 249 18q179 2 253 -10q10 -2 16 -10.5t4.5 -18.5t-10 -16.5
t-18.5 -4.5q-69 12 -245 10q-182 -1 -235 -16q-10 -3 -19 2t-12 15t2 19t15 12z" />
    <glyph glyph-name="uni00B2" unicode="&#xb2;" horiz-adv-x="397" 
d="M22 553q-8 69 46 107q43 31 106 29t99 -35q5 -5 9 -10q16 -9 26 -21q31 -35 13 -85l-2 -6q-1 -4 -2.5 -6.5t-3.5 -5.5l-1 -1v-1q-1 -1 -2 -2.5t-2 -3.5q-3 -4 -4 -6q-18 -29 -55 -50q-21 -12 -66 -30h-2l-2 -1q-24 -9 -37 -15q-39 -35 -58 -58q-5 -5 -8 -10q9 1 42 6
q38 5 59 7q78 7 128 -7q9 -3 14.5 -12t2.5 -19t-12 -15t-19 -2q-41 11 -109 5q-21 -2 -57 -7q-35 -4 -49 -6h-2q-1 -1 -2 -1h-3q-5 -1 -8 -1q-9 -1 -15 0q-7 0 -11 2q-11 5 -16 15q-4 9 -3 20v1q-1 8 3 20q1 2 2 6q0 1 1.5 4.5t1.5 4.5q15 43 58 71q15 10 32 18q4 3 7 6
q8 7 17 15q4 3 19.5 16.5t17.5 15.5q21 18 33 30q31 28 36 38q10 19 4 32q-10 4 -22 7q-30 8 -68 7q-19 -1 -35 -4q-9 -13 -15 -26q-3 -6 -4 -10l-2 -6q0 -2 -1 -4q-2 -9 -9 -15t-16 -6h-1q-2 0 -4 1q-5 -16 -21 -18q-10 -1 -18 5.5t-10 16.5z" />
    <glyph glyph-name="uni00B3" unicode="&#xb3;" horiz-adv-x="386" 
d="M280 317q-3 -10 -11 -15q-29 -19 -73.5 -27t-86.5 -1q-48 8 -76 35q-35 33 -29 85q1 10 9 16.5t18 5.5q7 -1 13 -5q9 1 17 -5t9 -16q6 -34 36 -52q29 -17 69 -14q37 4 62 23q1 4 1 8q1 3 2 9.5t2 11.5l1 6q2 10 2 16q0 16 -22 53q-2 0 -3 1q-1 0 -3.5 0.5t-7 2t-9.5 2.5
t-10 2.5t-8 2.5q-6 1 -11 3q-14 4 -22 7q-7 3 -10 5q-5 3 -8 6q-3 4 -5 9q-3 8 0 16q3 9 10 14q3 3 8 5q5 3 15 8l1 1q2 0 3.5 0.5t3.5 1.5l4 2t4 1.5t3 1.5q12 5 20 9l4 2q2 13 3 16q3 20 -5 55q-2 7 0 13q-32 11 -69 -4q-14 -5 -25 -13q-4 -8 -9 -25q-1 -3 -1 -4
q-6 -19 -12 -31q-8 -17 -27 -13q-7 -5 -15 -4q-11 1 -17.5 9t-5.5 18q4 49 48 84q2 2 4 5q7 11 20 11q10 5 21 10q39 16 79 11t68 -31q53 -49 28 -98q-12 -23 -41 -41q-1 -5 -1 -10q-2 -8 -7 -13q27 -10 49 -30q30 -28 30 -62q0 -50 -35 -86z" />
    <glyph glyph-name="acute" unicode="&#xb4;" horiz-adv-x="328" 
d="M187 641q-12 -11 -14 -14q-4 -4 -8 -7q-30 -30 -48 -45q-8 -7 -18.5 -6.5t-16.5 8.5q-9 11 -5 24q-3 5 -3 11q0 8 5 15q11 16 25 38q4 8 14 25q15 27 24 41q6 8 16 10.5t19 -3.5l4 -4q6 3 12 3q9 0 16 -6l10 7.5t14 4.5q13 0 21 -11q4 -6 4 -14q0 -13 -10 -21
q-2 -1 -3 -2q-1 -2 -3 -4l-4 -4q-1 0 -1 -1q-1 -1 -3 -2q-5 -2 -24 -21l-2 -2q-1 0 -4.5 -4t-4.5 -5q-5 -5 -9 -8z" />
    <glyph glyph-name="uni00B5" unicode="&#xb5;" horiz-adv-x="606" 
d="M186 21q-7 3 -22 8q2 -2 4 -3q8 -5 18 -5zM536 470q-15 -64 -55 -194q-35 -115 -49 -173q-9 -36 -15 -67q1 -6 2 -10q4 -10 -0.5 -19t-14.5 -12q-14 -5 -24 4q-7 -5 -16 -5q-4 0 -8 2q-17 5 -17 23q0 4 2 8q2 6 5 14v3q1 3 2 5t2 5q-15 -14 -32 -24q-52 -39 -92 -52
q-49 -16 -85 6q-16 10 -28 28q-24 -98 -56 -195q-4 -10 -13 -14.5t-19 -1.5q-15 5 -17 20q-13 -6 -25 1q-9 5 -11.5 15t2.5 19q8 14 31 108q22 88 48 210q60 284 58 324q0 11 7 18.5t17 8.5q9 0 16 -5q6 5 15 5q10 1 17.5 -6t8.5 -18q2 -69 -17 -148q-5 -22 -11 -44
q-11 -104 -32 -208q1 -6 3 -11q15 -3 42 -13q1 0 4 -1q42 -15 64 -15q25 0 46 11q4 3 7 6q22 16 44 75q15 39 40 130q0 1 1 4.5t2 4.5q22 79 34 115q16 44 32 71q0 2 -1 3q-1 11 6 19t17 8q6 1 11 -1q9 0 15 -6q2 -1 3 -2q7 3 15 1q10 -2 15.5 -11t3.5 -19z" />
    <glyph glyph-name="paragraph" unicode="&#xb6;" horiz-adv-x="595" 
d="M265 667q15 -64 14 -161q-1 -72 -11 -184q-2 -25 -6 -66q-8 -90 -11 -127q-5 -66 -5 -111q0 -21 11 -66l3 -15q7 -28 8 -48q3 -28 -4 -53q-2 -10 -11 -15t-19 -3q-2 1 -4 1q-7 -7 -17 -7t-17.5 7.5t-7.5 17.5v1q0 2 -1 3v5v2.5v2.5v12q0 16 -1 43q0 1 -2.5 47.5
t-3.5 62.5q-7 150 -7 258q0 9 -1 18q-8 3 -23 8l-3 1q-2 1 -4 1q-4 2 -7 3q-25 8 -41 18q-23 14 -38 36q-19 29 -28 77q-7 41 -4 77q7 85 64 137q48 44 130 63q64 15 150 15q61 0 135 -8q11 -1 17.5 -9t5 -18.5t-9.5 -17t-18 -5.5q-18 2 -34 4q1 -31 -2 -69q-1 -23 -6 -70
q-5 -48 -7 -71q-1 -14 -1 -26v-37v-5q2 -42 10 -123q1 -9 1 -13q10 -97 10 -153q0 -28 -4 -79q-1 -10 -1 -15q-5 -62 -1 -100l1 -4q0 -4 0.5 -9t0.5 -8q2 -11 2 -20q2 -23 0 -36q-1 -13 -7 -21q-6 -9 -17 -11.5t-21 3.5q-2 1 -4 3h-3h-1q-18 0 -23 17q-2 1 -3 3q-4 9 -2 18
v2q0 4 1 14q0 11 1 15v6t1 4q0 1 1 2q0 38 4 231q1 64 2 110q1 98 2 168q-1 19 0 40v20q0 25 -7 79q-1 7 -2 11q-5 39 -6 62q-1 36 5 65l1 1h-21q-58 0 -104 -7q1 -2 1 -4z" />
    <glyph glyph-name="periodcentered" unicode="&#xb7;" horiz-adv-x="265" 
d="M170 391q16 -10 22 -30q11 -35 -7.5 -57.5t-54.5 -20.5q-38 1 -50 36q-8 22 -3 51q6 32 33 41q18 6 43 -2q14 -4 17 -18z" />
    <glyph glyph-name="cedilla" unicode="&#xb8;" horiz-adv-x="335" 
d="M191 -17q-4 -6 -11 -19v-1q-5 -11 -8 -16q24 -3 45 -12q3 -2 5 -3q2 0 4 -1q7 -3 12 -9q10 -9 17 -19q16 -25 7 -56q-10 -35 -44 -51q-30 -14 -81 -8q-25 2 -49 9q-3 1 -10 3q-18 5 -18 24q0 4 1 7q6 18 24 18q2 0 4 -1q3 1 5 1q9 0 16 -6q17 -4 33 -6q24 -2 41 1
q-2 7 0 15q3 9 0 27q-1 8 -3 14l-1 1q-20 5 -36 2h-1l-3 -3q-4 -2 -7 -3q-8 -2 -16 0q-12 3 -18 14q-5 11 0 22q1 1 1 2l2 2l2 4q3 4 8 12h1l3 6q3 3 4 5q2 2 2 4q1 0 1 1q4 7 12 22q1 1 1 2q7 13 11 21q6 9 15.5 11.5t18.5 -2.5t12 -15t-2 -19z" />
    <glyph glyph-name="uni00B9" unicode="&#xb9;" horiz-adv-x="307" 
d="M65 621q49 -9 68 -2q10 3 15 13q8 14 8 40q0 11 7.5 18t17.5 7q6 0 12 -3q7 9 19 9q3 0 6 -1q19 -4 19 -24v-6q-13 -52 -17 -208q-2 -65 -1 -114q1 -24 2 -40q1 -14 2 -17q4 -10 -1 -19.5t-15 -12.5q-9 -3 -18 1.5t-13 13.5h-3h-3q-9 1 -15.5 8.5t-6.5 16.5q0 2 1 3
q7 57 9 137q1 51 -1 134q-3 -2 -7 -3q-20 -8 -49 -7q-18 1 -46 6q-10 2 -16 10.5t-4 19t10.5 16.5t19.5 4z" />
    <glyph glyph-name="ordmasculine" unicode="&#xba;" horiz-adv-x="407" 
d="M141 669q-31 -28 -41 -80q-11 -55 19 -81q7 -6 8 -15t-4 -17q29 -10 69 -1q5 1 10 3q8 4 16 7q19 13 31 36q19 37 13 81q-6 43 -31 62q-26 21 -69 4q-11 -5 -21 1zM133 731q31 11 62 8h2q30 -3 57 -18q54 -30 75 -88q22 -63 -10 -119q-24 -43 -76 -71q-10 -7 -22 -12
q-13 -5 -28 -10q-9 -3 -18 1q-69 -6 -112 32q-46 41 -45 112q1 68 45 118q26 29 62 43q3 3 8 4z" />
    <glyph glyph-name="guillemotright" unicode="&#xbb;" horiz-adv-x="533" 
d="M87 446q6 4 17 4q25 0 25 -33v-17h16q11 0 16 -3t19 -17q20 -20 20 -26.5t6 -7.5h19q10 -1 14 -3t11 -12q7 -9 8.5 -14t1.5 -17q-1 -18 3 -27q3 -9 2 -26q-3 -21 -9.5 -29.5t-19.5 -8.5q-9 0 -18 -13q-9 -12 -16 -14q-7 -1 -17 -12t-15 -11q-4 0 -4 -3t-9.5 -7.5
t-15.5 -4.5q-4 0 -4.5 -2.5t0.5 -12.5q2 -14 -5 -21q-11 -12 -28 -7t-22 22q-2 8 -1 32q1 16 3 20.5t8 10.5q10 9 15 17q5 9 16 11t17 8q7 6 16 9q8 2 12 15q3 11 8.5 18.5t12.5 7.5q10 0 2 6q-2 1 -5 3q-8 5 -9 12q-2 7 -4 7q-3 0 -15 10q-13 11 -38 19q-26 9 -30 14
q-13 15 -14 55.5t11 47.5zM299 437q15 7 32 -11q11 -11 16 -11q7 0 16.5 -7.5t13.5 -16.5q6 -13 13 -13q18 0 23 -19q3 -8 5 -10t8 -2q8 0 14.5 -6t8.5 -15q3 -10 8 -17q6 -7 6.5 -32.5t-5.5 -38.5q-3 -9 -16.5 -23.5t-17 -14.5t-14.5 -10t-20 -22q-13 -15 -22 -20t-23 -20
q-21 -22 -38 -22q-22 0 -22 27q0 14 14 43q20 42 61 67q14 9 24 18q9 11 15 11q5 0 5 6t-3 6t-12 10q-8 9 -14 9q-5 0 -17.5 14t-19.5 14t-17 11q-8 8 -23.5 37.5t-15.5 35.5t5.5 13t11.5 9z" />
    <glyph glyph-name="onequarter" unicode="&#xbc;" horiz-adv-x="855" 
d="M652 170q2 18 4 43q1 14 2 21q5 66 10 105q-28 -35 -82 -108q-1 -1 -4 -5l-3 -5q-32 -44 -50 -67q67 13 123 16zM656 48v1q-17 8 -14 26q2 17 4 33q-1 6 1 12q-72 -5 -176 -30q-10 -3 -19 2.5t-11 15.5q-5 19 12 28q2 4 4 7q29 36 82 108l3 4q3 4 4 6q75 102 118 152
q6 7 15 8q8 15 25 13q10 -1 16.5 -9t5.5 -18q-1 -6 -1 -11q2 -6 1 -12q-1 -2 -1 -5q0 -29 6 -76l3 -18q7 -48 8 -72q2 -29 1 -54q5 -1 8 -1h1q10 3 19.5 -1.5t12.5 -14.5t-1.5 -19t-14.5 -13q-12 -3 -31 -1q-2 -22 -3 -31q-5 -36 -8 -52q-2 -9 -5 -14q-4 -9 -12 -13
q-19 -10 -32 7q-3 3 -5 7q-2 1 -5 2q-9 5 -12.5 14.5t1.5 18.5zM270 678q-2 -91 -2 -232v-54q1 -58 1 -88q0 -10 -7.5 -17.5t-17.5 -7.5q-5 0 -9 2q-9 -10 -23 -8q-10 2 -16 10t-4 19q7 43 9 191q1 60 -1 102q-11 -8 -25 -13q-17 -6 -45 -9q-2 0 -7 -1q-21 -2 -30 -4
q-10 -3 -19 2.5t-11.5 15.5t3 19t15.5 11q12 3 37 6h7q41 5 53 20q0 1 1 2q1 4 3 9l2 4q4 13 5 16q2 5 3 7q1 4 4 7q4 5 11 8q9 3 18 -1q8 10 21 10q10 0 17 -7.5t7 -18.5zM668 672q-50 -94 -124 -211q-46 -71 -109 -162q-18 -31 -44 -75q-18 -31 -23 -39q-13 -23 -23 -40
q-2 -3 -3 -5t-1 -3q-25 -51 -39 -76q-23 -42 -47 -72q-5 -7 -14 -9q-11 -8 -24 -4q-10 3 -14.5 12.5t-1.5 19.5q6 18 19 39q8 12 24 33q11 14 16 20q8 11 13 20q11 20 25 43q20 41 31 62q19 36 37 62q14 20 26 38q48 82 83 145q69 122 121 222q5 9 15 12.5t19 -1.5
q13 11 28 3q9 -5 12 -14.5t-2 -19.5z" />
    <glyph glyph-name="onehalf" unicode="&#xbd;" horiz-adv-x="832" 
d="M230 677q3 -18 0 -177v-7q-1 -88 -1 -125q0 -26 1 -40q0 -7 1 -10v-1q4 -12 -3 -22q-11 -16 -29 -9q-10 -6 -21 -3q-9 3 -14.5 11.5t-2.5 18.5v2v9q1 11 0 31q0 16 -1 43q-1 9 -1 24l-1 13q0 7 -1 13q-1 25 -1 43q-3 65 -3 103q-23 -15 -80 -33q-10 -4 -19 0.5
t-12.5 14.5t1 19.5t14.5 12.5q56 19 75 32t29 40q5 17 23 17q4 0 8 -1h1q4 2 9 3q10 1 18.5 -5t9.5 -17zM608 674q-29 -54 -70 -118q-25 -40 -74 -115q-1 -1 -2 -3q-20 -31 -34 -52q-43 -72 -99 -161q-19 -35 -57 -112q-1 -4 -2 -5q-42 -86 -67 -130q-5 -9 -15 -11.5
t-19 2.5q-2 1 -4 3q-7 -3 -15 0q-10 3 -14.5 12.5t-1.5 18.5q12 36 36 76q16 25 47 68q33 47 45 66q13 19 24 37q6 12 14 25q33 57 85 137l24 40q78 135 130 247q4 9 14 12.5t19 -0.5l4 -2q11 5 22 -1q9 -5 12 -15t-2 -19zM581 406q74 23 123 -2q49 -23 57 -78
q7 -50 -22 -99q-31 -52 -90 -79q-5 -2 -10 -5q-8 -9 -18 -20q-1 0 -30 -30.5t-35 -38.5l-7 -7q98 -8 179 4q10 1 18.5 -5t10 -16.5t-5 -18.5t-16.5 -10q-98 -14 -220 -2q-5 -2 -11 -2h-4q-9 2 -15 9t-6 16v4q2 6 2 11q-1 3 -1 7t1 10q2 7 5 17q10 27 22 39q44 44 100 73
q29 34 46 61q37 61 11 96q-12 16 -21.5 20t-32.5 1q-5 0 -9 -1q-1 -12 -11 -18q-30 -23 -35 -57q-2 -10 -10 -16t-18 -5q-8 1 -13 6q-10 -5 -20 -3q-10 3 -15 12t-3 19q11 37 38.5 66t62.5 41q1 1 3 1z" />
    <glyph glyph-name="threequarters" unicode="&#xbe;" horiz-adv-x="860" 
d="M648 164q1 12 2 25q2 48 7 99q-17 -26 -39 -53q-37 -48 -73 -86q44 9 83 13q10 2 20 2zM139 625q-2 -7 -4 -15q-2 -7 -6 -19q-3 -12 -4 -17q-5 -17 -23 -18q-6 -11 -19 -12q-10 -1 -18 6t-9 17q-5 64 50 98q43 26 103 22q61 -5 93 -39q41 -44 6 -103q-16 -26 -47 -44
q15 -5 27 -12q22 -12 38 -32q26 -34 27 -80q0 -46 -27 -77q-31 -37 -83 -31q-6 1 -11 4q-12 -2 -25 -2q-29 -2 -58 9l-18 6q-40 16 -69 41t-38 54q-4 10 1 19t14 13q15 4 26 -6q5 3 11 3q10 0 17.5 -7.5t7.5 -17.5q0 -8 11 -20.5t26 -22.5q13 -9 26 -14q23 -7 42 -7
q11 1 21 5q37 14 51 52q13 35 -6 58q-4 5 -9 9q-10 4 -21 5t-18 9q-19 3 -44 1q-10 -1 -18 5.5t-9 16.5t5 17q-1 3 -1 7q0 10 7 17.5t18 7.5q34 0 62 18q5 21 2.5 34t-13.5 33q-4 8 -2 16q-12 4 -26 5q-37 3 -65 -11zM717 685q-27 -29 -52 -71q-16 -26 -45 -81l-1 -1
q-34 -66 -55 -98q-22 -34 -59 -84q-8 -11 -36.5 -49.5t-30.5 -41.5q-47 -65 -77 -109q-63 -97 -86 -166q-3 -10 -12.5 -14.5t-19.5 -1.5q-7 3 -11 8q-4 0 -8 1q-10 3 -15 12t-2 19q5 17 17 35q7 10 22 27q3 4 5 6q15 18 20 28q40 74 94 164q33 55 99 160q0 1 4 7
q110 176 161 266q5 9 15 12t19 -2q3 -2 6 -5q5 6 11 13q7 7 17.5 7.5t18 -6.5t8 -17t-6.5 -18zM738 415q20 -60 14 -195q-1 -26 -3 -50q1 -4 1 -9q13 -3 23 -6q10 -4 14.5 -13t1.5 -19t-12.5 -14.5t-18.5 -1.5q-1 0 -2 1q3 -31 3 -54q0 -22 -2 -36q-4 -21 -14 -31
q-7 -7 -17.5 -7t-17.5 7q-11 11 -6 27q-1 -1 -2 -1q-5 -9 -14 -12q-4 -1 -8 -1q-18 0 -23 17q-9 26 -9 31q0 3 0.5 5.5t1.5 4.5q-2 23 -1 56q-7 -1 -14 -1q-63 -7 -130 -25q-10 -3 -19 2.5t-12 15.5q-2 7 1 15q-4 6 -4 13q0 12 9 20h1q0 1 1 1q1 1 1 2q2 2 5 3v1l2 1
q38 36 91 103q74 96 93 154q4 10 13 14.5t19 1.5q3 -1 6 -3q9 2 17 -3t11 -14z" />
    <glyph glyph-name="questiondown" unicode="&#xbf;" horiz-adv-x="610" 
d="M320 424q-5 -3 -10 -3q-10 0 -17 6q-3 2 -5 5q-5 -1 -9 -1q-10 0 -17.5 7t-7.5 18q0 25 9 53q3 10 12 14.5t19 1.5q3 -1 5 -2q2 1 3 1q4 0 8 -1q3 3 7 6q10 6 20 3.5t16 -11.5q5 -6 7 -16q3 -11 2 -24q0 -7 -1 -20q-1 -12 -1 -17q0 -11 -7.5 -18t-17.5 -7q-8 0 -15 5z
M334 347q26 -42 15 -95q-8 -40 -39 -89q-19 -30 -55 -77q-21 -27 -27 -34q-14 -19 -24 -33q-3 -4 -6 -9q-2 -40 4 -80q0 -4 1 -9q33 -25 74 -35t77 0q39 10 60.5 40t21.5 78q0 5 4 17q1 4 2 7t3 5q1 3 3 5q7 7 17 8q9 1 18 -4q7 1 13 -2q4 -1 7 -4q6 4 13 4q6 0 11 -3
q14 -6 14 -22q0 -6 -2.5 -11t-7.5 -16q-7 -16 -9 -22q-9 -19 -16 -33q-3 -10 -6 -19q-3 -10 -11 -14q-29 -51 -63 -77q-41 -32 -89 -26q-51 -12 -113 10l-20 7q-27 9 -42 19q-23 14 -38 37q-53 80 -25 163q10 32 34 68q15 23 45 60q13 15 16 19q9 11 15 19q15 20 25 35
q31 50 20 86q-4 10 1 19.5t15 12.5q12 4 22 -4q3 4 8 7q9 6 19 3.5t15 -11.5z" />
    <glyph glyph-name="Agrave" unicode="&#xc0;" horiz-adv-x="722" 
d="M372 805q17 -9 13 -28q-2 -8 -9 -14q-10 -8 -22 -6q-6 2 -11 6q-3 1 -5 4q-4 4 -10 14q-4 6 -9 15q-5 -2 -11 -2t-12 2q-23 12 -50 41q-18 19 -43 51q-6 8 -4.5 18.5t9.5 16.5t18.5 5t16.5 -10q2 -2 3 -4q5 2 11 2q11 0 18 -8q4 2 8 3q7 2 15 -1q3 -1 6 -3q4 -3 8 -7
q11 -10 34 -50q1 -2 2 -5q10 -16 12 -20q6 -11 10 -17q1 -2 2 -3zM219 296q45 -3 69 -4q32 -2 58 -3h4h4h8.5h6.5h26q25 -1 38 -2q8 -1 12 -1q-45 111 -79 186q-2 5 -11 40q-12 46 -18 68q-4 14 -7 26q-2 4 -3 8q-30 -72 -59 -161q-21 -63 -49 -157zM205 247q-2 -5 -4 -13
q-42 -144 -67 -217q-3 -10 -12 -14.5t-19 -1.5q-18 6 -17 25q-4 -6 -17 -27q-7 -12 -21 -12q-7 0 -13 4q-12 7 -12 21q0 5 2 10q0 1 1 3q1 6 5 10q0 1 2 4t7 10q21 42 51.5 121.5t79.5 223.5q6 17 13 37q1 1 7 19.5t13.5 40.5t15.5 45t11 33q26 76 44 125q3 9 12 13.5
t18 2.5q3 3 7 4q12 5 23 -1q4 -2 7 -5q5 0 10 -2q1 -1 3 -2q11 4 22.5 -1t21.5 -21q13 -19 29 -61q30 -73 42 -119q39 -152 71 -245q49 -139 107 -227q6 -8 4 -18t-10.5 -16t-19 -4t-15.5 11l-14 20q-3 -13 -16 -17q-4 -2 -8 -2q-18 0 -24 17q-24 75 -82 220l-2 -2
q-14 -11 -29 -2h-3q-12 1 -35 2h-26h-6.5h-8h-4.5h-4q-27 1 -60 3q-25 1 -74 5h-6z" />
    <glyph glyph-name="Aacute" unicode="&#xc1;" horiz-adv-x="729" 
d="M333 806q-6 -5 -14 -6q-16 -14 -28 -25q-7 -6 -16 -6q-12 0 -19 9q-6 7 -6 16q0 11 8 19q17 14 30 41q2 4 4 9l5 10q8 18 14 28q5 9 15 11.5t19 -3.5q4 -2 7 -6q7 7 13 14q7 8 18 8q8 0 15 -5q18 6 29 -9q6 -8 4.5 -18.5t-9.5 -16.5q-15 -10 -38 -29q-3 -2 -6 -5
q-2 -2 -12 -10t-11 -9q-13 -11 -22 -17zM452 277q-17 48 -38 104q-1 0 -1 1q-25 31 -44 76q-11 27 -28 82v1q-13 42 -21 63l-4 10q-23 -97 -82 -261q-11 -31 -23 -63q43 -5 95 -8q100 -7 146 -5zM398 702q6 -45 41 -121q7 -14 18 -37q20 -41 27 -57q15 -32 23 -56
q15 -43 38 -116q2 -6 6 -20q30 -96 48 -144q28 -78 58 -138q4 -10 1 -19.5t-13 -14.5q-16 -8 -29 5q-6 -4 -14 -4q-11 0 -19 9q-1 -1 -2 -1q-4 -1 -8 -1q-18 0 -23 17q-21 64 -80 224q-42 -5 -167 4q-66 4 -110 9q-61 -162 -99 -237q-4 -9 -14 -12.5t-19 1.5q-6 2 -10 7
q-5 -1 -11 -1q-10 2 -16 10.5t-5 18.5q12 86 120 342q84 199 137 294q4 21 4 34q1 10 8.5 17t17.5 7q6 -1 12 -4q12 4 22 -4q5 7 13 9q7 1 13 -1q2 1 4 1q10 2 18 -4.5t10 -16.5z" />
    <glyph glyph-name="Acircumflex" unicode="&#xc2;" 
d="M245 750q-9 7 -10 18q-4 -2 -8 -2q-13 0 -20 10q-5 7 -5 15q0 13 9 20q11 8 30 38l2 3q2 2 2 3q3 4 4 6q16 24 28 35q22 20 47 17q2 -1 3 -1q5 2 10 2q10 0 18 -8q4 -5 6 -10q4 4 9 5q4 7 11 10q5 3 11 3q15 0 22 -14.5t17 -49.5q4 -6 12 -17q7 -1 14 -5q14 -8 24.5 -24
t13.5 -34q1 -10 -5 -18t-16 -10q-20 -3 -27 16q-12 1 -19 10q-2 3 -5 8q-2 -1 -4 -1q-7 0 -13 3q-6 2 -12 7q-8 7 -36 38q-1 1 -2 3l-10 10q-6 -12 -16 -24q-8 -10 -23 -26l-1 -2l-4 -2l-1 -2q-3 -4 -6 -6q-10 -11 -15 -18q-8 -11 -20 -11q-8 0 -15 5zM430 279q-1 1 -1 3
q-17 51 -46 157q-21 77 -34 117q-11 35 -22 65q-54 -124 -111 -282q-12 -32 -23 -62q25 0 69 -2q53 -1 79 -1q50 0 89 5zM398 716q48 -74 92 -185q32 -84 70 -211q7 -22 31.5 -107.5t27.5 -94.5q17 -59 31 -101q4 -10 -1 -19t-14 -13q-19 -6 -29 10q-4 -4 -10 -6
q-10 -4 -19.5 1t-12.5 14l-2 8q-7 -10 -18 -11q-10 -1 -18 5.5t-10 16.5q-3 25 -11 55q-11 38 -40 110q-12 29 -17 43q-47 -7 -107 -7q-27 0 -80 1q-58 2 -85 2q-27 -77 -75 -221q-3 -10 -12 -14.5t-19 -1.5q-5 2 -9 6q-6 -9 -15.5 -11.5t-18.5 2.5t-11.5 15t2.5 19
q39 70 76 186q6 17 11 36q0 3 -1 6q0 12 9 20q0 1 1 2q2 7 9.5 34t8.5 27q16 58 45 127q18 43 55 123q12 26 17 36q25 54 40 91q4 9 13.5 13t19.5 0q11 -4 14 -16q5 6 12 8q4 1 7 1q3 5 9 9q8 5 18 3t16 -11z" />
    <glyph glyph-name="Atilde" unicode="&#xc3;" horiz-adv-x="706" 
d="M164 787q-2 9 2 16q4 9 9 17q11 26 30 42q27 29 59 35q24 4 51 -4q15 -4 43 -16q8 -4 12 -5q31 -13 48 -12q22 1 42 27q3 4 8 6q9 18 29 13q10 -2 15 -11t3 -19q-19 -76 -79 -82q-22 -2 -51 5q-16 4 -48 15q-4 2 -7 2q-54 19 -76 15q-9 -1 -15 -6q-10 -11 -19 -28
q-4 -9 -7 -21q-3 -10 -11.5 -15.5t-19.5 -2.5q-9 2 -14.5 10.5t-3.5 18.5zM461 283q-12 56 -25 88q-15 36 -40 92q-4 8 -14 29q-42 92 -60 138q-13 -22 -26 -47q-6 -19 -12 -40q-15 -50 -42 -152l-3 -12q-15 -57 -24 -90q35 3 83 2q30 -1 81 -4q57 -3 75 -4h7zM586 9
q-8 -6 -17.5 -4.5t-15.5 8.5q-30 36 -50 95q-14 39 -28 108q-1 8 -3 14q-2 1 -5 2q0 1 -1 1h-13q-20 1 -77 4q-50 3 -79 4q-58 1 -97 -4q-5 -15 -9 -29q-31 -95 -67 -168q-3 -6 -9 -10q1 -7 -1 -15q0 -1 -1 -2v-1l-1 -1q-2 -9 -8.5 -14.5t-15.5 -5.5h-5q-7 2 -13 7h-4
q-5 0 -9 1q-16 6 -16 24q0 4 2 9q9 23 23 67q5 17 13 44q1 2 7.5 22.5t8.5 25.5q43 137 74 223q41 109 81 188q19 58 41 107q4 9 13.5 12.5t19.5 -0.5q6 -2 10 -7q6 12 20 14q11 0 19 -7q19 -2 23 -21q7 -36 18 -77q2 -4 5 -9q15 -27 19 -36q11 -21 17 -36q52 -140 129 -367
q2 -6 5 -12q16 -40 26 -70q3 -2 4 -3q3 -3 4 -4.5t2 -4t2 -4.5q0 -2 1 -6t3.5 -16t2.5 -16l1 -1q1 -5 1 -10v-2q0 -3 -1 -5v-3v0v-3q0 -9 -6 -16t-15 -9h-4z" />
    <glyph glyph-name="Adieresis" unicode="&#xc4;" horiz-adv-x="737" 
d="M303 828q1 -5 0 -15v-5q0 -4 -2 -9q-4 -14 -18 -18h-6q-12 0 -20 10q-2 -2 -5 -4q-7 -5 -14 -6q-13 -1 -22 7q-6 5 -9 14q-4 12 0 40q-3 5 -3.5 11.5t0.5 19.5q1 10 9 17t18 6q5 -1 9 -3h2q8 0 14 -4q1 -1 2 -1q7 8 18 8h3q10 -1 16 -8.5t6 -16.5v-3q-1 -12 -1 -29
q3 -5 3 -11zM454 871q1 -7 2 -19v-15l2 -6q4 -12 -2 -22q-1 -8 -6.5 -14.5t-14.5 -7.5h-4q-7 0 -12 3q-13 -11 -29 -5q-4 1 -8 4q-2 -1 -4 -1t-4 1q-9 1 -15 8t-6 16v4q1 6 1 13v6q0 20 2 37q1 10 9.5 16t18.5 5q5 -1 9 -3q2 -1 4 -1l4 2q11 4 21 0q3 1 5 1h3q9 0 16 -6
t8 -16zM456 288q-3 6 -6 13q-1 2 -15.5 33t-18.5 40l-9 18q-58 125 -81 187l-6 16q-2 -6 -5 -13q-1 -1 -20 -47t-25 -59q-10 -23 -18 -43q-36 -88 -57 -147q57 4 137 4q26 0 75 -1q32 -1 49 -1zM389 697q25 -60 63 -175q1 -2 3 -8q31 -94 49 -140q11 -30 31 -70
q12 -22 40 -73q17 -30 26 -47q55 -105 66 -173q2 -10 -4 -18.5t-16 -9.5q-15 -3 -24 10h-3q-6 1 -11 4q-2 2 -4 3q-7 -7 -17 -7q-9 0 -17 6q-3 2 -7 7q-4 4 -7 12q-5 11 -11 29q-5 13 -9 30q-3 8 -7 23.5t-7 27.5l-3 12q-8 26 -39 95q-1 1 -2 3q-22 0 -72 1t-75 1
q-92 0 -154 -5q-7 -25 -12 -46q-13 -61 -38 -126q-7 -17 -12 -35q-2 -6 -4 -11q3 -14 -8 -24q-3 -2 -7 -4q-7 -3 -16 -2q-10 3 -15 11q-2 2 -3 4q-6 -15 -23 -15q-4 0 -8 2q-17 6 -17 23q0 5 2 9q20 53 23 57q0 1 1 2q10 24 31 73q52 121 80 187q27 68 49 126q49 131 72 224
q3 10 12 15.5t19 2.5q5 -1 10 -5q11 10 25 4q3 -1 6 -3q1 0 2 -1q4 5 10 8q9 3 18.5 -1t13.5 -13z" />
    <glyph glyph-name="Aring" unicode="&#xc5;" horiz-adv-x="714" 
d="M358 848q-9 -9 -22 -7q-10 2 -16 10.5t-5 18.5v1q-17 -7 -27 -19q-14 -19 -7 -47q8 -27 29 -37t45 11q12 9 19.5 25t7.5 30q-1 9 -5 12q-6 4 -19 2zM425 298q-16 35 -30 64q-51 112 -75 186q-5 17 -9 33q-4 -13 -9 -27q-28 -90 -76 -223l-16 -44h2l6 1q6 0 14.5 0.5
t17.5 1l18 1t13 0.5q28 2 50 3q57 3 94 4zM412 688q26 -60 52 -135q17 -51 44 -137q2 -7 7 -22q36 -117 57 -176q34 -95 70 -167q7 -14 -2 -27q5 -18 -12 -27q-8 -5 -17.5 -3t-15.5 10q-7 -11 -20 -11q-9 0 -15.5 5.5t-8.5 14.5q-1 1 -2 3q-2 7 -1 14q-7 26 -35 87
q-13 29 -40 83q0 1 -5 11t-10.5 20.5t-7.5 15.5v1h-10q-39 0 -106 -4q-22 -1 -50 -3q-4 0 -13 -0.5l-18 -1t-17.5 -1t-14 -1t-6.5 -0.5q-14 -1 -24 -2q-52 -137 -83 -211v-4t-1 -3q-2 -5 -16 -30q-7 -13 -22 -13q-6 0 -12 3q-13 7 -13 22q0 6 3 12l2 4q0 1 0.5 3t1.5 4
q2 5 6 9v1q1 1 1 2q-4 9 -1 18q32 96 125 356q45 129 73 205q16 44 26 68q2 5 3 8q0 7 5 14q5 10 10 15v1q-5 1 -10 4q-42 19 -56 68q-14 52 15 91q34 44 108 44q10 0 17.5 -7t7.5 -18v-4q14 -3 25 -11q24 -17 25 -50q2 -25 -10.5 -52t-33.5 -44q-25 -20 -51 -24q4 -2 7 -5
q5 4 12 5q19 3 26 -14q9 3 18 -1t13 -13z" />
    <glyph glyph-name="AE" unicode="&#xc6;" horiz-adv-x="1032" 
d="M454 294q-4 76 -6 142q-4 177 10 238q-42 -3 -82 -6q-26 -55 -57 -128q-23 -54 -51 -124q-19 -47 -45 -113q17 3 35 3q35 2 85 -3q14 -1 40 -3q50 -5 71 -6zM555 663q4 -91 3 -218v-38q72 8 191 7q13 -1 40 -1q54 -1 81 -1q11 0 18 -7.5t7 -17.5t-7 -17.5t-18 -7.5
q-27 0 -82 1q-26 0 -40 1q-120 1 -190 -7v-17q-1 -89 -1 -134q0 -25 3 -76v-10q1 -21 2 -31q71 3 182 0q17 0 52 -1q94 -3 142 -3q10 0 17.5 -7.5t7.5 -18t-7.5 -17.5t-17.5 -7q-48 0 -143 3q-35 1 -53 1q-109 3 -179 0v-6q1 -2 1 -4q1 -2 1 -3v-2l-1 -2v-4v-1q0 -2 -1 -4
v-1.5t-1 -1.5v-1v-4q-2 -9 -9 -15t-16 -6h-4q-12 2 -18 14q-12 3 -16 14q-10 -4 -20 0q-8 3 -12 11q-2 4 -3 8q-1 3 -1 7q-1 6 -1 17v49v9q0 47 -1 54q-2 39 -5 76q-23 1 -78 7q-26 2 -39 4q-88 7 -138 -6q-4 -11 -6 -15q-13 -35 -22 -56q-27 -68 -43 -107v-3l-2 -4
q-2 -6 -26 -56q-7 -14 -23 -14q-5 0 -11 3q-11 5 -13 17q-13 -4 -24 4q-8 7 -9.5 17t5.5 19q42 52 79 129q28 60 61 151l42 119q17 48 30 81q7 19 19 60q11 40 20 61q6 15 14 28q0 1 -1 3q-1 10 5 18t16 9q1 2 3 3q6 8 16.5 9t18.5 -5q1 -2 3 -3q123 11 288 14q77 1 229 1
h54q10 0 17.5 -7.5t7.5 -17.5t-7.5 -17.5t-17.5 -7.5h-54q-152 0 -228 -1q-49 -1 -92 -2q5 -7 5 -15z" />
    <glyph glyph-name="Ccedilla" unicode="&#xc7;" horiz-adv-x="761" 
d="M689 242q-28 -54 -53 -89q-22 -31 -49 -55q-42 -53 -97 -82q-51 -27 -108 -29q-3 -11 -7 -18t-12 -17q15 1 26 -1q24 -3 37 -17q23 -29 22.5 -56.5t-23.5 -51.5q-3 -6 -7 -12q-16 -21 -51 -27h-9q-14 -4 -28 -7q-24 -3 -54 3q-15 -3 -24 9l-2 2q-7 8 -7 18q0 6 3 12
q7 13 22 13q6 0 12 -3h1q1 -1 3 -1q6 -2 13 -3q15 -2 26 0q31 5 56 22q-3 10 -12.5 20.5t-21.5 17.5q-5 2 -8 7h-2l-20 -5q-5 -1 -8 -1q-4 -1 -7 0q-6 0 -11 3q-15 9 -12 26q2 12 13 26q6 7 18 20l2 2q10 11 14 15q4 5 6 7q-29 5 -57 17l-6 2q-22 -1 -48 16q-28 17 -56 50
q-62 74 -92 173q-36 119 -5 223q36 120 157 196q42 38 93 51h3q11 4 22 7q29 7 55 4q19 0 44 -7q27 -9 59 -26q30 -11 54 -28q30 -20 50 -48q11 -10 20 -21q42 -48 37 -86q-1 -10 -9.5 -16.5t-18.5 -4.5q-7 1 -13 5h-4h-2q-5 -8 -13 -12q-9 -4 -18.5 0t-14.5 13
q-48 110 -121 142q-78 33 -176 -30q-15 -9 -29 2q-2 -1 -4 -3q-22 -26 -39 -63q-45 -97 -41 -223q4 -125 53 -201t126 -65q7 6 16 6q11 0 19 -9q5 1 13 3q5 1 11 3q1 0 6.5 2t11 3.5t7.5 1.5q24 6 55.5 27t55.5 48q55 62 37 103q-5 9 -1.5 19t13 14t19.5 0.5t14 -12.5
q3 -6 4 -12q10 5 20 2q1 0 2 -1q3 5 5 10q5 9 14.5 12t19 -1.5t12.5 -14t-1 -19.5z" />
    <glyph glyph-name="Egrave" unicode="&#xc8;" horiz-adv-x="676" 
d="M266 917q3 -3 5 -4h1q8 -4 15 -8q6 14 21 15q1 1 2 1q10 0 17 -7t8 -16q1 -5 3 -13v-1l2 -2q2 -1 2 -2q4 -4 7 -7.5t4.5 -7t2.5 -6.5q2 -8 -1 -16q9 -6 13 -11q8 -9 8 -21q10 -10 15 -20q5 -9 1.5 -19t-12.5 -14.5t-18.5 -1.5t-14.5 12q-13 2 -18 13q-3 5 -5 10
q-4 3 -9 6v1q-15 11 -22 17q-9 7 -9 19q0 2 1 5q-16 17 -25 23q-3 3 -8 5h-1q-10 5 -20 14q-7 7 -7.5 17.5t7 18t17.5 7.5t18 -7zM92 705q84 18 253 21q62 1 175 1h54q11 0 18 -7.5t7 -18t-7 -17.5t-18 -7h-54q-112 0 -174 -1q-92 -2 -155 -8q1 -65 -4 -254q32 0 91 -3
q25 -1 38 -1q143 -6 225 8q10 1 18.5 -5t10 -16t-4.5 -18.5t-16 -10.5q-53 -8 -117 -10q-47 -1 -118 2q-13 0 -38 1q-59 3 -90 3q-3 -111 -3 -166q-1 -87 3 -118h1q66 1 155 1q216 0 245 -7q10 -2 16 -11t3.5 -19t-11 -15.5t-19.5 -3.5q-24 6 -234 6q-89 0 -154 -1
q-33 -1 -54 -2q-20 -1 -23 -2q-10 -2 -19 3.5t-11.5 15.5t3 18.5t14.5 11.5q1 1 1 2q3 37 0 115q-2 66 -8 180q-6 7 -6 16q0 8 4 15q0 14 -2 32q-10 174 -11 229q-1 2 0 4q-2 3 -3 8q-2 10 3.5 18.5t15.5 10.5z" />
    <glyph glyph-name="Eacute" unicode="&#xc9;" horiz-adv-x="676" 
d="M326 911q6 4 11 6q10 3 18 1q11 -2 17 -11q6 0 11 -3l2 2q4 3 6 5q4 2 8 3q1 1 3 1q8 6 15 9q13 7 24 8q13 1 23 -7.5t10 -23.5q0 -10 -7.5 -17.5t-17.5 -7.5q-6 0 -11 3q-5 -3 -11 -7l-2 -2q-8 -14 -26 -33.5t-42 -40.5q-23 -22 -32 -25q-2 -1 -5 -1q-5 -1 -10 1h-2
q-3 -3 -5 -6q-8 -7 -18 -7t-17.5 7.5t-7.5 17.5t7 18q22 21 49 67q2 3 3 6q0 1 -1 2q-6 9 -3.5 19t11.5 16zM182 636q-4 -52 -3 -119q0 -40 4 -122q50 0 121 3q22 1 68 3q122 5 183 5q10 0 17.5 -7t7.5 -17.5t-7.5 -18t-17.5 -7.5q-60 0 -181 -5q-45 -2 -68 -3
q-70 -3 -121 -3q2 -69 2 -118q-1 -80 -11 -144q58 5 143 3q133 -4 258 -22q10 -1 16.5 -9.5t5 -18.5t-10 -16.5t-18.5 -4.5q-122 17 -253 21q-115 3 -178 -9q-6 -3 -13 -3h-3q-18 -4 -29 -10q-9 -5 -19 -2t-14.5 12.5t-1.5 19.5t12 14q14 7 33 12v4q9 73 8 184q0 45 -2 89
q-10 1 -16 8.5t-6 17.5q1 19 19 23q-4 71 -13 129q-3 14 -3 34q-1 4 -1 12q-1 29 -3 42q-3 19 -12 32q-17 5 -18 23q0 10 7 17.5t17 8.5q93 3 215 4h192h93q10 0 17.5 -7.5t7.5 -17.5t-7.5 -17.5t-17.5 -7.5h-93h-191q-63 0 -116 -1q2 -5 1 -11z" />
    <glyph glyph-name="Ecircumflex" unicode="&#xca;" horiz-adv-x="703" 
d="M442 782q-3 -1 -6 -1q-9 -1 -17 4q-3 2 -7 4q0 1 -1 2q-3 -1 -6 -1q-16 0 -23 15l-8 16q-3 4 -6 9q-5 8 -6 10l-4 6q-40 -50 -59 -68q-8 -6 -17 -6q-5 0 -10 1q-12 -16 -22 -28q-8 -9 -19 -9q-10 0 -17 6q-8 8 -8 19q0 9 6 16l8 10q13 17 38 61h1q19 35 30.5 51.5
t30.5 9.5q1 0 2 1q4 2 9 3q5 2 10 1q4 -1 7 -3q3 2 5 3q19 8 31 -9q6 5 13 5q12 0 20 -10q6 -7 20 -27q15 -22 23 -33q16 -22 30 -35q7 -7 7 -17.5t-7.5 -18t-17.5 -7.5t-18 8zM94 56q0 16 -3 61q0 6 -3 47t-4 52q-6 94 -8 162q-6 170 10 256q-6 4 -10 10q-5 9 -2 19t12 15
q8 4 25 8q3 2 6 2q23 5 65 10q67 8 155 13q89 6 157 6q78 0 101 -8q10 -3 14.5 -12t1 -19t-12.5 -14.5t-19 -1.5q-15 5 -85 5q-66 0 -154 -6q-80 -5 -142 -12q-14 -56 -18 -253q51 4 112 4q44 0 130 -2q85 -3 128 -3q10 0 17.5 -7t7.5 -17.5t-7.5 -18t-17.5 -7.5
q-44 0 -129 3q-86 2 -129 2q-62 0 -113 -4q-1 -191 8 -276q69 -7 171 -9q193 -3 244 12q10 3 19 -2t12 -15t-2 -19t-15 -12q-58 -17 -258 -14q-183 3 -239 20q-10 0 -17.5 7t-7.5 18z" />
    <glyph glyph-name="Edieresis" unicode="&#xcb;" horiz-adv-x="691" 
d="M314 823q-1 -13 -3 -21t-5 -13q-5 -10 -15 -14q-11 -5 -20.5 -1.5t-14.5 12.5q-4 -2 -8 -2h-1q-10 1 -17 8t-7 17v1v7v1l-1 2q0 1 -0.5 3t-0.5 4q-3 11 -5 28q-2 20 17 27q7 8 18 8h1q6 0 11 -3q1 1 2 1q6 2 11 2q9 1 16 -5q6 -4 8 -9q9 -4 13 -12t2 -17v-2v-8l-1 -1v-2
v-3v-3v-5zM454 788q-3 0 -6 1l-4 2q-5 -2 -10 -1v-1l-6 -6q-7 -5 -16 -6q-11 0 -19 8q-4 4 -6 10q-2 5 -3 12t-1 19q-1 3 -1 6q-3 4 -4 8t0 8q0 14 9 26q6 14 21 15q5 2 10 2q5 1 11 -1q7 9 18 9q1 0 2 -1q10 0 16.5 -7.5t6.5 -16.5v-2v-8q15 -6 15 -23q0 -3 -1 -6v-1l-1 -1
v-2l-1 -1v-2q3 -3 5 -8q4 -9 0 -19t-13 -14q-11 -5 -22 1zM88 700q102 13 254 12q39 0 115 -1q82 -1 121 -1q11 0 18 -7.5t7 -17.5t-7 -17.5t-18 -7.5q-39 0 -122 1q-76 1 -114 1q-83 1 -145 -3q-17 -60 -21 -145q-3 -45 -2 -99q9 0 18 1q59 3 152 3q48 0 122 -2h16h16
q18 -1 29 -1h45q10 0 17.5 -7.5t7.5 -18t-7.5 -17.5t-17.5 -7h-46h-8t-10.5 0.5t-10.5 0.5h-16h-16q-73 2 -121 2q-92 0 -149 -3q-10 -1 -20 -1q0 -8 1 -17q1 -34 4 -97q6 -122 6 -174q5 1 10 1q61 3 160 -1q39 -1 96 -3q10 -1 23 -2q17 0 22 -1q25 -1 39 -1q41 -2 60 -2
q11 0 18 -7.5t7 -18t-7 -17.5t-18 -7q-20 0 -62 2q-15 0 -40 1q-7 1 -21 2q-14 0 -23 1q-57 2 -96 3q-97 4 -156 1q-70 -3 -88 -14q-9 -5 -19 -2t-15.5 12t-2.5 19t12 15l4 2v7v3q-1 3 -1 5q0 5 2 9v1q0 21 -2 54q-2 23 -5 58q0 6 -1.5 21t-3 29t-1.5 15q-10 101 -13 165
q-5 138 14 227q-10 6 -12 19q-1 10 5.5 18t16.5 9z" />
    <glyph glyph-name="Igrave" unicode="&#xcc;" horiz-adv-x="275" 
d="M89 922q10 3 19 -1.5t12 -14.5v-1q1 -1 2 -3l5 -10q4 -6 10 -16l6 -6q18 -16 28 -33q14 -23 12 -44q-1 -6 -5 -12q-1 -16 -16 -22q-10 -4 -19.5 0.5t-12.5 13.5q-7 18 -51 52t-63 36q-11 2 -17 10.5t-4.5 18.5t10 16t18.5 5q11 -2 27 -9q10 13 25 10q5 7 14 10zM197 703
q-43 -391 8 -696q1 -10 -5 -18.5t-16 -10.5q-16 -2 -25 11q-4 -2 -9 -2q-15 0 -22 13q-5 -5 -12 -6q-11 -2 -19 4t-10 16q-11 64 -12 144q-1 59 3 147q1 18 3 53q7 120 7 177q-1 94 -14 162q-3 10 3 18.5t16 10.5q17 4 26 -11q3 10 11.5 14.5t18.5 2.5q5 -1 10 -5q7 5 16 4
q11 -1 17 -9t5 -19z" />
    <glyph glyph-name="Iacute" unicode="&#xcd;" horiz-adv-x="298" 
d="M97 784q-7 -8 -14.5 -15.5t-18.5 -7.5q-10 0 -17 6q-8 8 -8 19q0 10 7 17q12 12 30 38q1 2 6 8l4 6q24 35 41 52q13 14 30 4q3 1 5 2q3 2 7 3q9 2 18 -3l4 -4q1 1 2 1q9 5 18.5 1.5t14.5 -12.5t1.5 -19t-12.5 -14q-26 -13 -46 -48q-5 -8 -21 -24q-10 -9 -16 -13
q-4 -2 -8 -3q-7 -3 -15 -1q-7 2 -12 7zM196 691q-19 -133 -10 -334q2 -34 5 -104q9 -156 9 -235q0 -10 -7.5 -17.5t-17.5 -7.5t-17 7q-6 -3 -13 -3q-14 0 -21 11q-5 -4 -12 -5q-10 -1 -18.5 5t-9.5 17q-49 390 2 679q2 11 10.5 17t18.5 4q6 -1 11 -5q8 5 17 3t14 -9
q8 6 18 5q10 -2 16.5 -10t4.5 -18z" />
    <glyph glyph-name="Icircumflex" unicode="&#xce;" horiz-adv-x="331" 
d="M173 901q8 3 17.5 0.5t13.5 -11.5q4 -7 14 -20q1 0 1 -1q13 -15 18 -25q14 -24 19 -34q4 -6 5 -10q0 -1 1 -3q0 -6 -1 -11q-5 -16 -21 -18q-8 -1 -15 3q-2 1 -3 2q-8 -9 -19 -9q-8 0 -14 4q-23 16 -33 34q-5 9 -9 24q-3 12 -5 16v2q-4 7 -6 12l-4 -4q-6 -10 -17 -28
q0 -1 -1 -2q-21 -35 -23 -39q-6 -17 -23 -17q-5 0 -9 2q-8 3 -13 10q-4 -1 -9 -1q-6 0 -12 3q-13 7 -13 22q0 6 3 12q8 13 35 56l1 1l11 17q6 10 10 16q5 9 15.5 11t18.5 -3l1 -1q6 5 8.5 7t5 2t3 -1t3.5 -5t6 -7q9 1 17 -1q6 -2 11 -6q4 1 7 1h5zM196 682q-40 -385 0 -664
q1 -10 -5 -18t-16.5 -9.5t-19 4.5t-9.5 16q-1 7 -2 13h-1v-9q0 -10 -7 -17.5t-17.5 -7.5t-18 7.5t-7.5 17.5v1v1v1v1v2q-1 2 0 5v4v5.5v9.5q-1 19 -2 50q-1 9 -2 35t-2.5 51t-1.5 28q-7 140 -8 235q-2 158 10 262q1 11 9 17.5t18 4.5q11 -1 18 -10q9 9 21 7q13 -3 19 -15h1
q11 -1 17.5 -9t5.5 -19z" />
    <glyph glyph-name="Idieresis" unicode="&#xcf;" horiz-adv-x="348" 
d="M106 807v-1q-1 -10 -7.5 -16.5t-15.5 -6.5q-5 -5 -12 -6h-2l-1 -1v0h-4q-5 -1 -11 0q-1 1 -5 2t-9 2q-3 0 -6 2q-3 -1 -7 -1q-3 0 -6 1q-19 4 -19 24q0 3 1 6q1 6 1 21q-1 25 3 40q5 16 21 18q8 7 18 8h1q10 0 18 -8q6 3 13 3h4q9 -2 15 -9t6 -16q0 -2 -1 -4
q-1 -10 -1 -17q3 -2 6 -5q8 -7 8 -17.5t-8 -17.5v-1zM272 827q3 -7 3 -16q0 -10 -7 -17.5t-18 -7.5q-14 0 -21 12q-7 -5 -16 -5q-8 -11 -21 -11h-5q-9 2 -14.5 9t-5.5 16v5q3 12 0 22v1q-5 15 -4 28q0 11 7.5 18t17.5 7q6 -1 11 -3q4 9 13 13q17 8 31 -6q3 -3 5 -8q3 1 6 1
t5 -1q20 -4 20 -24q0 -3 -1 -6q-5 -19 -6 -27zM204 698q-17 -139 -10 -360q2 -32 4 -95q6 -154 6 -231q0 -10 -7 -17.5t-18 -7.5q-9 0 -16 6q-6 -4 -14 -4t-14 4q-7 -9 -19 -9q-11 0 -18 7.5t-7 17.5q0 78 -11 245q-4 56 -5 85q-7 111 -6 188q1 102 14 184q2 10 10.5 16
t18.5 5q12 -2 18 -13q9 6 19 4q7 -2 11 -6q9 10 22 9q11 -1 17 -9.5t5 -18.5z" />
    <glyph glyph-name="Eth" unicode="&#xd0;" horiz-adv-x="716" 
d="M134 -13q-20 0 -25 19q-10 0 -17 7.5t-7 17.5q0 21 -5 74q-2 10 -7 59t-6 56q-9 86 -13 148q-24 -3 -42 -9q-10 -3 -19 1.5t-12.5 14.5t1 19t14.5 13q24 8 56 11q-8 170 16 260q-5 20 13 29q8 5 17 5q39 9 82 10q27 0 61 -3q18 -1 61 -7h1q11 -1 33 -4q38 -4 58 -7
q32 -5 58 -12q65 -19 110 -60q63 -58 80 -150q14 -81 -10 -174q-23 -89 -73 -164t-113 -112q-50 -30 -142 -36q-34 -3 -96 -3q-56 1 -70 -2q-2 -1 -4 -1zM338 357v1q-7 1 -16 2q-6 0 -30 2.5t-27 2.5q-52 5 -89 6v-46q1 -36 1 -107q1 -119 1 -178h30q61 0 93 3q80 5 119 29
q1 1 3 1v2q4 24 28 64q2 3 5 9q19 31 24 43q54 136 58 229q5 129 -86 178q-20 10 -65 25q-2 1 -3 1q-2 1 -3 1q-40 14 -61 24q-8 4 -12 12q-5 1 -11 1q-1 1 -2 1q-41 5 -59 6q-31 3 -55 3q-5 -109 -5 -251q39 -1 93 -6q4 -1 28 -3t29 -3q26 -2 36.5 -2t18 -7.5t7.5 -17.5
t-7.5 -17.5t-17.5 -7.5h-5h-1h-2h-7h-4h-4h-1h-1z" />
    <glyph glyph-name="Ntilde" unicode="&#xd1;" horiz-adv-x="734" 
d="M226 760q-7 -2 -14 0q-10 3 -15 12t-2 19q13 46 38 67q12 18 28 27q19 11 41 10q17 -1 36 -10q14 -6 36 -20q22 -13 29 -17q11 -5 15 -5q16 1 37 24l5 5l2 6q6 13 20 15q10 7 21 10q10 3 19 -2t12 -15t-2 -19t-15 -12q-6 -1 -16 -12q-25 -46 -68 -53q-20 -3 -43 2
q-16 4 -39 13q-4 1 -10 4q-26 10 -37 13q-16 5 -26 3q-4 0 -8 -2q-10 -17 -18 -45q-2 -9 -9.5 -14t-16.5 -4zM664 680q2 -124 -2 -336q0 -15 -1 -44q-3 -182 -3 -273q0 -11 -7.5 -18t-17.5 -7q-20 0 -25 19q-5 1 -9 4q-3 -10 -12 -16q-9 -5 -18 -2q-4 -6 -10 -9
q-9 -4 -19 -1t-14 13q-14 28 -55 79l-1 1v1q-32 40 -46 63q-6 9 -52 83t-57 93q-45 73 -78 129q-37 63 -66 117q8 -108 8 -255v-164q-1 -86 -1 -129q0 -11 -7.5 -18t-17.5 -7t-17 6q-3 -2 -8 -3q-6 -1 -12 1q-6 -4 -15 -4q-10 0 -17.5 7t-7.5 18v2v4q-1 2 0 5v4q-1 10 -2 26
l-5 60q-3 38 -5 64q-4 58 -3 97q1 38 6 118q4 50 5 77q6 125 -5 205q-2 10 4 18.5t17 9.5q18 3 26 -14q6 10 18 12q15 1 23 -10q7 -3 11 -10q18 5 28 -11q42 -68 118 -201q10 -16 13 -21q63 -110 100 -170q56 -94 104 -166q6 -9 15 -19v1v3l2 4q-1 26 -1 60q1 46 4 173
q2 72 3 115q2 155 -3 246q0 10 6.5 17.5t17.5 8.5q17 1 24 -15l4 2q10 2 19 -3t11 -15l1 -1q3 1 6 1q10 0 17.5 -7t8.5 -18z" />
    <glyph glyph-name="Ograve" unicode="&#xd2;" horiz-adv-x="799" 
d="M331 667q-70 -24 -114 -82.5t-59 -143.5q-13 -78 1.5 -160t51.5 -143q10 -15 -1 -29q82 -65 194 -58q24 1 47 8q94 59 153 134q35 73 36 163q2 121 -56 211q-14 22 -31 40q-96 75 -215 60q-4 -1 -7 0zM728 370q7 -109 -52 -203q-15 -22 -35 -43q-13 -14 -37 -34
q-1 -1 -6 -5t-6 -5q-6 -6 -11 -10q-13 -11 -22 -20t-21 -7q-58 -37 -131 -42q-142 -9 -243 81q-91 82 -117 211t25 239q57 123 188 170q2 1 3 1q1 1 7.5 3t7.5 3q10 3 16 6q19 6 33 9q4 0 7 1q10 8 26 9q12 1 29 -1q7 -1 16 -3q1 -1 6 -2t6 -1q4 -1 7 -1q32 -4 61 -15
q5 -1 6 -2q76 -18 123 -58q42 -36 77 -107q43 -86 37 -174zM354 909q24 -6 39 -24q8 -10 16 -30q2 -7 4 -10q3 -9 8 -15q7 -8 6 -18t-9 -17q-5 -4 -11 -5l-2 -2q-7 -9 -18 -9q-8 0 -15 4q-3 2 -5 4l-4 6q-2 2 -4 7q-1 1 -3 4l-1 3q-1 2 -2 3q-1 3 -2 4l-12 12q0 1 -6 6.5
t-8 7.5l-1 1q-30 30 -39 40v1q-6 7 -6 15q0 12 10 20q7 5 15 5q12 0 20 -9h1q5 -1 10 -4q1 0 2 -1q8 4 17 1z" />
    <glyph glyph-name="Oacute" unicode="&#xd3;" horiz-adv-x="782" 
d="M440 872l-2 -1q-15 -13 -49 -44l-1 -1q-1 -1 -10.5 -9.5t-11.5 -10.5q-13 -12 -20 -19q-7 -6 -17 -6q-11 0 -19 8q-6 7 -6 17v1q-3 6 -3 12q0 11 7 18q23 23 44 70q4 10 13.5 13.5t19.5 -0.5q3 -1 6 -4h1h1q5 3 11 3t10 -2q1 0 2 1q7 6 16 6q12 0 20 -9q5 -7 5 -16
q0 -10 -7 -18l-2 -2q-3 -4 -8 -7zM413 727q25 -3 51 -16q6 -3 12 -7q18 -4 33 -12q118 -57 171 -170q48 -103 27 -220q-21 -116 -102 -197q-88 -88 -217 -101q-159 -15 -266 103q-45 51 -72 119.5t-32 141.5q-4 77 17 145.5t65 118.5q104 120 295 105q11 -1 18 -10zM559 166
q3 9 6 22q1 3 2 5l13 41q40 140 30 222q-13 108 -110 172q-7 5 -18 12l-1 1l-1 1q-2 1 -3 2q-13 8 -21 13q-52 12 -135 -3q-85 -15 -129 -62q-38 -40 -47 -108q-7 -59 7 -141l4 -24q18 -48 40 -96q27 -62 49 -97q11 -20 19 -29q3 -3 5 -4q8 -2 14 -9t6 -16q0 -4 -1 -7
q45 -12 95 -7q66 7 121 37q1 8 7 14q26 26 48 61z" />
    <glyph glyph-name="Ocircumflex" unicode="&#xd4;" horiz-adv-x="794" 
d="M556 29l-3 -3q-1 -2 -3 -3q-4 -3 -9 -5q-4 -1 -8 -1q-56 -26 -124 -35q-33 -5 -78 8q-25 7 -62 22q-2 1 -17.5 7.5t-19.5 7.5q-134 56 -183 179q-43 109 -8 236q34 122 123 201q77 69 172 77l2 2q11 9 30 9q10 0 25 -3q5 -2 12 -4q1 0 6 -2l5 -1q5 -1 7 -1
q133 -26 217 -137q78 -103 84 -234q6 -136 -70 -235q-40 -52 -98 -85zM311 906q6 3 12 5q4 1 9 1q6 2 13 5q6 2 14 5h1q1 0 2 1h2l2 1h1q2 1 4 1h1q3 1 7 1q8 0 14 -4q4 1 8 0q12 -1 20 -10q4 -1 8 -3q3 1 7 1q1 0 2 -1q4 2 9 2q12 0 20 -9q12 -15 29 -40q0 -1 2 -3
q7 -11 13 -18q5 -7 5 -16q0 -5 -2 -10q4 -4 8 -7q8 -6 10 -16t-4 -18.5t-16.5 -10t-18.5 4.5q-13 9 -23 22h-1q-7 2 -13 9q-3 4 -8 11q-3 6 -9 15q-2 3 -5 6q-10 12 -24 26q-2 1 -5 2q-5 3 -11 8q-8 -6 -19 -15q-3 -3 -7 -6q-4 -4 -13 -12.5t-16 -15.5l-7 -6q-5 -4 -12 -6
q-1 0 -3 -1q-1 -2 -2 -3q-7 -11 -21 -11q-7 0 -13 4q-12 7 -12 21q0 7 4 14l2 2q2 3 9 13t8 12l4 6q1 1 2 3q-7 12 0 24q3 11 13 16zM325 656q-57 -9 -99 -83q-40 -71 -54 -177q-14 -102 2 -187t52 -109q11 -7 11 -20l14 -6q4 -2 19.5 -8.5t17.5 -7.5q34 -14 57 -20
q34 -10 58 -7q62 9 112 33q2 7 20.5 52.5t23.5 57.5q1 2 2 5q6 14 20 16q5 18 10 35q1 3 2 7t2 6l1 2q19 68 24 112q8 63 -4 114q-10 42 -35 80q-39 60 -69 74q-10 5 -13 16q-40 21 -85 29q-4 1 -11 3q-1 0 -4.5 1.5t-5.5 1.5q-7 -6 -17 -5q-16 1 -32 0q-5 -13 -19 -15z" />
    <glyph glyph-name="Otilde" unicode="&#xd5;" horiz-adv-x="791" 
d="M712 327q-4 -75 -35.5 -143t-87.5 -118q-7 -6 -16 -6q-80 -71 -193 -76q-156 -7 -242 115q-16 23 -29 51q-27 46 -41 101q-25 103 1 208q27 107 99 178q76 75 183 88q4 2 8 2q13 2 26 1q51 7 107 -13q48 -18 96 -53q154 -113 131 -295q-3 -20 -7 -40zM502 816q-9 1 -30 5
q-3 0 -9.5 1.5t-12.5 2.5l-12 2l-5 1q-13 3 -22 4q-35 7 -55 7q-11 1 -18 0q-2 0 -3 -1q-8 -6 -17.5 -4.5t-15.5 8.5q-1 1 -2 1q-15 -17 -27 -49q-4 -10 -13 -14.5t-19 -0.5t-14.5 13t-0.5 19q24 67 69 91q36 20 87 10q23 -5 60 -19l8 -3q8 -4 10 -4q10 -4 17 -6
q15 -6 23 -6h5h1q0 1 1 3q2 4 3 10q2 10 10 16t18.5 4.5t16.5 -10t4 -18.5q-6 -38 -33 -50q-8 -14 -24 -13zM244 625q-57 -27 -85 -120q-28 -92 -16 -203q12 -112 60 -184q8 -12 17 -23q4 -3 7 -6q7 -6 13 -10t10 -5q20 5 29 -13q3 -5 3 -10q21 -8 44 -8q12 0 20 -9
q15 -1 32 0q87 4 151 55q1 7 6 13q59 69 94 141q9 31 13 65q12 111 -33 204q-36 73 -99 112q-27 15 -57 23q-8 3 -13 10q-3 1 -9 4q-19 8 -30 12q-8 -5 -17 -5q-70 8 -127 -28q-3 -10 -13 -15z" />
    <glyph glyph-name="Odieresis" unicode="&#xd6;" horiz-adv-x="799" 
d="M355 899q10 -12 9 -31q0 -10 -4 -24q-1 -3 -2 -8q-4 -14 -4 -17q-2 -10 -10 -16t-19 -5q-14 2 -19 16q-8 -7 -18 -7h-4q-9 2 -15 9t-6 16q0 2 1 4q1 7 1 20v15q2 12 8 20q7 11 20 15q10 4 23 4q6 0 11 -3q4 2 9 2q12 0 19 -10zM525 864q-1 -17 -3 -27l-2 -6v-1l-1 -1v-1
v-1q0 -10 -7.5 -17.5t-17.5 -7.5q-9 0 -16 6t-9 14q-6 -5 -15 -5h-2q-10 1 -16.5 8.5t-6.5 16.5v3q1 5 0 11q-1 4 -5 16q-4 10 1 19.5t14 12.5h1q6 7 15 9h4q13 0 20 -10q7 4 14 4q4 0 8 -1q17 -6 17 -24q7 -7 7 -17v-1zM464 717q64 -8 117 -44q67 -45 107 -127
q38 -77 42 -166t-28 -166q-9 -24 -30 -47q-10 -10 -24 -23q-8 -15 -18 -30q-83 -118 -232 -125q-147 -6 -242 103q-85 97 -94 242t66 253q82 118 234 138q5 2 10 2q22 0 43 -3q24 1 49 -7zM247 625q-32 -31 -56 -79t-31 -95v-2q-1 -4 -1 -9q-1 -28 4 -75q7 -70 22 -136
q18 -76 42 -119q23 -42 44 -42q16 0 23 -14q47 -17 102 -15q78 3 135 45q8 24 29 47q11 13 34 33q19 28 33 56q22 67 19 143q-5 130 -76 218q-54 69 -134 88q-11 1 -22 0q-7 0 -13 3q-11 -2 -20 5q-2 -1 -4 -1q-59 -6 -108 -30q-4 -11 -16 -15h-1q-2 -4 -5 -6z" />
    <glyph glyph-name="multiply" unicode="&#xd7;" horiz-adv-x="618" 
d="M85 94l1 1q17 16 54 54q1 0 12 11.5t23.5 24l17.5 17.5l48 48q-81 72 -120 111q-63 64 -67 93q-2 10 4.5 18.5t16.5 9.5q5 1 9 0l4 2q8 6 18.5 4t15.5 -11q54 -82 163 -184l4 4l2 2q63 78 104 122q56 59 86 67q10 3 19 -2t12 -15t-2 -19q8 -4 11 -13q4 -9 1 -18t-12 -13
q-2 -9 -10 -14q-43 -30 -168 -144q104 -91 205 -158q9 -6 11 -16t-3.5 -19t-16 -11t-18.5 4l-16 10q1 -4 0 -9q-2 -10 -10.5 -16t-18.5 -4q-18 3 -20 22q0 1 -1 2q-2 4 -9 12q-13 17 -42 44q-30 29 -106 97q-8 -7 -15 -14q-12 -15 -28.5 -36t-27 -34.5t-12.5 -16.5
q-24 -30 -38 -47l-1 -2q0 -3 -2 -5q-3 -5 -27 -25q-7 -6 -16 -6q-12 0 -19 9q-3 3 -4 7q-6 -4 -13 -4q-12 0 -20 9q-5 7 -5 16q0 12 9 19q3 2 6 5q0 1 1 2q0 1 2 2q0 1 1 1q0 1 2 2q2 2 5 4z" />
    <glyph glyph-name="Oslash" unicode="&#xd8;" horiz-adv-x="792" 
d="M530 583q-36 42 -72 59q-6 3 -10 9q-86 31 -179 -10q-38 -23 -69 -60q-12 -14 -22 -30q-1 -5 -3 -9q-12 -23 -16 -91q-5 -75 5 -151q10 -70 29 -120q18 19 40 44q10 11 32 37q22 25 76 92q3 3 13 16l10 13q14 18 25 31q28 36 51 63q19 24 36 44q29 35 54 63zM560 542
q-21 -25 -45 -54q-17 -20 -36 -43q-23 -28 -51 -64q-11 -12 -25 -30l-10 -13q-10 -13 -13 -16q-55 -68 -77 -94t-32 -37q-30 -35 -54 -59q25 -37 56 -46q11 -3 16 -14l24 -4q119 -20 209 42q4 2 7 5q9 9 21 19l14 18q32 39 51.5 83.5t21.5 79.5q5 80 -52 186q-12 21 -25 41z
M318 723q74 11 143.5 -9.5t126.5 -68.5q59 61 97 81q9 4 18.5 1t14.5 -12t2 -19t-12 -15q-30 -15 -84 -70q11 -13 21 -26q58 -76 72.5 -168.5t-18.5 -182.5q-14 -38 -41 -68q-17 -20 -49 -47l-5 -5q-15 -15 -32 -29q-9 -9 -19 -18q-4 -4 -8 -9q-7 -8 -17 -9
q-53 -37 -105 -37q-7 0 -13 4q-52 -7 -105 2q-85 14 -143 64l-10 -8q-15 -12 -45 -40q-9 -7 -14 -13q-3 -9 -11 -13q-5 -3 -9 -4q-3 -1 -5 -1q-7 0 -12 2q-10 4 -14 14q-2 7 -1 14q1 4 4 9q1 2 2 3q2 2 4 5q7 7 22 21q32 29 49 42q2 3 5 5q-14 17 -25 38q-44 77 -42 179
q-6 82 13 150q38 136 167 197q3 2 6 3q25 15 53 25q6 11 19 13z" />
    <glyph glyph-name="Ugrave" unicode="&#xd9;" 
d="M412 805q11 -9 9 -23q0 -5 -4 -10q-6 -10 -16 -11q-8 -2 -15 1q-2 1 -5 3l-7 7q0 1 -1 2q-1 0 -2 -1q-4 -1 -9 -1q-17 0 -23 15q-6 14 -23 31q-11 12 -39 36q-1 1 -3 2l-2 2q-25 20 -37 33q-7 7 -7 17.5t7 17.5t17.5 7t17.5 -7q9 -8 20 -18q4 7 12 11q5 2 11 2
q10 0 17 -6h5q15 0 22 -13q20 -36 34 -61q12 -21 18 -31q2 -3 3 -5zM643 699q0 -1 1 -17.5t2 -21.5q9 -144 4 -234q-8 -166 -59 -267q-39 -76 -102 -117q-40 -29 -92 -40q-10 -7 -25 -10q-13 -2 -31 0q-5 1 -14 2q-11 2 -15 2q-68 6 -109 57q-17 3 -29 11q-51 31 -72 140
q-15 75 -19 208q-1 31 -2 96q-1 81 -3 117q-3 55 -9 82q-3 10 2.5 19t15.5 11q18 4 27 -11q5 4 12 5q10 1 18 -5q8 12 22 12q10 0 17.5 -7.5t7.5 -17.5v-32q-1 -7 -1 -19v-3.5v-4.5v-2v-11q-1 -143 1 -234q3 -114 12 -189q7 -53 16 -86q15 -18 39 -30h2q15 -1 26 -4
q14 -4 30 -16q14 -5 23 -10q15 -9 20 -22v-1q6 6 14 8q76 12 121 84q41 65 56 176q13 91 9 208q-4 86 -16 175q-2 10 4.5 18.5t16.5 9.5q9 2 16.5 -3t10.5 -14q4 1 7 2q7 9 19 10q10 0 18 -7t8 -17z" />
    <glyph glyph-name="Uacute" unicode="&#xda;" horiz-adv-x="717" 
d="M460 883q-3 -12 -14 -16q-2 -3 -5 -6q-5 -5 -13 -14q-1 0 -4 -3l-6.5 -6.5l-4.5 -4.5q-2 -3 -6 -7q-17 -17 -27 -29q-11 -13 -18 -16q-5 -3 -11 -3q-7 0 -13 4q-1 -2 -3 -3q-5 -6 -10 -8q-5 -3 -11 -3q-12 0 -20 9q-5 6 -5 14q-1 3 0 6q1 9 15 36q17 30 41 72
q6 9 16 11.5t19 -2.5l6 -6q14 2 22 -9q10 11 14 16q7 11 20 11q8 0 15 -5q10 -7 10 -20q0 -8 -4 -15zM643 706q9 -53 0 -140l-3 -30q-6 -59 -7 -86q-1 -23 1 -74q1 -39 1 -59q-1 -100 -23 -158q-31 -78 -105 -111q-22 -20 -58 -36q-41 -18 -84 -24q-135 -20 -205 77
q-49 68 -65 204q-5 43 -9 124q-2 31 -8 95q-5 41 -7 62q-7 94 4 159q2 10 10.5 16t18.5 4q9 -2 15 -9q7 4 14.5 4t13.5 -5q3 10 11 15t18 3q10 -1 16 -9.5t4 -18.5q-10 -60 -14 -160q-4 -123 7 -226q13 -126 47 -196q5 -10 10 -19q1 -1 3 -1q63 -32 118 -35q7 0 13 -5h2
q5 2 8 3h1l67 56q31 25 45 41q28 30 35 71.5t0 136.5q-5 68 -2 164q1 32 4 90q2 52 3 74q0 11 7.5 18t17.5 7q10 -1 17 -8v1q8 1 15 -2q6 6 14 7q10 2 18.5 -4t10.5 -16z" />
    <glyph glyph-name="Ucircumflex" unicode="&#xdb;" 
d="M231 796q8 11 28 41q1 1 2 3l3 4l6 10t7 10.5t5 7.5q11 17 16 23q2 3 4 5q4 3 8 5q5 2 12 2q9 -1 15 -7q7 8 18 8q6 0 11 -3l4 -2h1q6 4 13 4q4 0 9 -2q2 2 5 3q4 2 10 2q16 0 22.5 -14.5t22.5 -39.5q5 -7 10 -15q1 -2 3 -4q3 -1 5 -4l4 -2q9 -7 10 -19v-1l10 -15
q5 -6 5 -15q0 -12 -10 -20q-6 -5 -15 -5q-12 0 -20 10q0 1 -3 5q-4 -1 -8 -1q-9 0 -16 5h-3q-15 0 -22 13q-13 23 -24 31q-5 3 -9 3q-15 -4 -52 -49q-8 -9 -20 -9q-8 0 -15 6q-3 2 -5 5q-5 -5 -8 -10q-6 -8 -16.5 -9.5t-18.5 5t-9.5 17t5.5 18.5zM652 704q-1 -27 -1 -91
q0 -126 -5 -193q-10 -135 -43 -223l-10 -24q-9 -24 -20 -44q-76 -142 -249 -142q-69 0 -127 50q-49 42 -78 107q-28 63 -38 149q-8 65 -7 158q0 31 2 88q4 112 1 161q0 10 7 17.5t17 8.5q14 1 22 -11q9 16 27 12q11 -2 16 -12q5 0 9 -1q10 -3 15 -11.5t2 -18.5
q-11 -42 -13 -142q-2 -113 10 -218q23 -196 84 -257q8 6 18 5t17 -9q12 -16 65 3q48 17 83 43q48 37 72 114q20 66 24 165q2 53 -1 147q-2 60 -2 83q0 11 -1 32q-1 10 -1 15q-2 28 1 48q1 10 9.5 16.5t18.5 4.5q14 -2 20 -15q4 1 8 1h3q8 10 20 9q11 0 18 -7.5t7 -17.5z" />
    <glyph glyph-name="Udieresis" unicode="&#xdc;" horiz-adv-x="725" 
d="M348 865q1 -2 1 -5q0 -8 -5 -14q-1 -6 -1 -8q-1 -3 -1 -6q-4 -16 -4 -23q-1 -10 -8 -16.5t-17 -6.5h-2q-7 1 -13 5v-2q0 -10 -7 -17.5t-18 -7.5q-10 0 -17.5 7t-7.5 18q0 17 -4 45v1v2v2q-3 18 -3 30q-1 10 6 17.5t17 8.5q9 1 16 -4.5t10 -13.5q5 6 12 8q7 13 22 13h2
q10 -1 16.5 -8.5t6.5 -16.5v-3q-1 -2 -1 -4v-1zM484 888q18 0 23 -17q6 -16 0.5 -34.5t-18.5 -27.5q-8 -5 -17 -4q-8 -11 -21 -11h-2h-2q-2 -9 -8.5 -14.5t-15.5 -5.5h-4q-9 2 -15 9t-6 16v4q3 16 1 37v5q-1 13 0 23.5t8.5 17t18.5 6.5q9 -1 16 -8q7 14 22 14h1
q12 -1 19 -10zM655 706v-7q0 -82 -2 -135q-3 -96 -11 -175q-16 -143 -51 -232q-45 -118 -124 -145q-7 -2 -14 0q-45 -16 -106 -21q-39 -3 -79 11q-18 4 -33 15q-5 2 -9 5q-12 0 -19 9l-10 14q-19 18 -31 40q-42 73 -63 172q-18 79 -24 185q-3 55 -5 165q-1 62 -2 92
q0 11 7 18.5t17 7.5q9 0 16 -4q6 14 22 14q14 0 21 -11q10 1 17.5 -5.5t8.5 -16.5q2 -21 2 -113q-1 -139 3 -219q7 -142 29 -223q19 -67 47 -88q10 -5 20 -9q5 -1 8 -3q27 -8 53 -6q68 5 111 26q6 8 15 16q6 5 17 12q0 1 0.5 1t0.5 1q18 12 22 21q42 93 45 284q1 72 -3 160
q-3 55 -9 139q-1 10 5.5 18t17.5 9q19 1 25 -17l6 2q5 1 10 -1q5 19 24 19q10 0 17.5 -7.5t7.5 -17.5z" />
    <glyph glyph-name="Yacute" unicode="&#xdd;" horiz-adv-x="720" 
d="M349 817h-1q-2 -1 -3.5 -3l-4.5 -6l-6 -8l-4 -3q-8 -10 -14 -16q-1 -2 -3 -4q-9 -11 -22 -22q-7 -5 -16 -5q-12 0 -20 9q-5 7 -5 16q0 11 9 19q3 3 8 7v1q0 5 2 10q4 8 12 23q12 20 15 27q4 6 6 11q9 15 13 26q5 9 14.5 13t18.5 0q8 -4 12 -11q6 5 15 10q5 3 11 3
q16 0 23 -14q2 -5 2 -11v-3q5 -16 -9 -27q-17 -12 -33 -33q-8 -9 -20 -9zM136 707q31 -47 83 -137q0 -1 3 -6t6 -10.5t4 -7.5q42 -73 68 -114q23 -36 44 -65q54 106 166 311q17 30 22 39t15 12t19 -2q2 -1 4 -3q11 7 23 1q7 -3 11 -10q5 9 15 11.5t19 -2t12 -14.5t-2 -19
q-127 -234 -253 -396q0 -47 3 -141v-11q2 -87 2 -135q0 -10 -7.5 -17.5t-17.5 -7.5q-8 0 -14 4q-4 -1 -8 -1q-13 0 -21 10q-9 -10 -23 -8q-10 1 -16 9.5t-5 18.5q8 51 2 132q-3 32 -8 83q-1 3 -2 14.5t-2 13.5q-2 16 -3 26q-1 9 4 17q-29 33 -61.5 80.5t-77.5 123.5
q-5 10 -28.5 50t-26.5 45q-31 53 -52 85q-6 8 -3.5 18t11 16t18.5 4t16 -11l4 -6q2 17 20 21t27 -12q6 -3 10 -9z" />
    <glyph glyph-name="Thorn" unicode="&#xde;" horiz-adv-x="622" 
d="M457 242q-57 -41 -146 -51q-53 -5 -124 15q-22 2 -37 5h-7q4 -109 19 -198q1 -10 -5 -18.5t-16 -10.5q-17 -2 -26 12q-5 -3 -11 -3q-8 0 -15 5q-4 -1 -9 -1q-10 0 -17.5 7t-7.5 18q0 90 -4 270q-4 138 -4 207q-1 115 1 208q1 10 8.5 17t17.5 7q12 0 20 -10q8 6 18 4
q14 -3 19 -16q8 -2 13.5 -8.5t5.5 -15.5q0 -43 -1 -91q74 17 143 11q63 11 120.5 -8t94.5 -64q42 -49 45.5 -112.5t-32.5 -128.5q-13 -23 -35 -37q-12 -7 -28 -13zM193 256q1 -1 3 -1q8 -1 16 -1q55 -3 86 3q119 23 164 84q36 51 10 108q-29 61 -109 90q-32 12 -69 16
q-3 -1 -7 -2q-10 -2 -19 3q-55 2 -116 -13q-2 -1 -4 -1q-1 -21 -2 -51q-3 -87 -3 -131q-1 -50 -1 -93q9 0 16 -5q5 2 10 2h3h3q11 0 19 -8z" />
    <glyph glyph-name="germandbls" unicode="&#xdf;" horiz-adv-x="604" 
d="M106 7q-35 180 5 434q2 53 7 94q14 107 57 144q29 24 67 31q16 4 37 4q24 9 48 8q32 -2 60 -22q43 -5 71 -34q31 -31 38 -83q4 -28 0 -58q-1 -16 -6 -31q-16 -53 -52 -84q-6 -5 -14 -5q-3 -3 -6 -5q53 -23 83 -71q40 -61 32 -139q-8 -77 -55 -129q-50 -55 -122 -54h-11
q-1 -1 -3 -1.5t-3 -1.5q-9 -3 -16 -4q-13 -2 -24 4q-4 2 -7 5q-8 2 -14 6q-14 9 -14 25q0 11 7.5 18t17.5 7q12 0 19 -9h17h11q8 2 15 2q1 0 2 -1q10 2 14 3q10 2 18 5q3 13 14 18q18 7 33 28l4 10q19 48 3.5 111.5t-55.5 102.5q-40 40 -88 33q-10 -1 -18.5 5t-9.5 17
q-2 9 4 17t15 10q8 10 20 10q30 0 56.5 19.5t40.5 47.5t14 61t-17 59q-16 23 -32 37h-3q-9 -1 -17 5q-32 7 -68 -1h-6q-9 -7 -18 -16q-34 -33 -61 -91l-4 -8q-4 -33 -4 -72q-1 -55 7 -168v-3q6 -89 7 -135q1 -75 -7 -135q-2 -11 -12 -17q0 -10 -7 -17.5t-17 -7.5q-9 0 -16 5
q-4 -2 -8 -3q-10 -2 -18.5 4t-10.5 16z" />
    <glyph glyph-name="agrave" unicode="&#xe0;" horiz-adv-x="582" 
d="M256 727q6 -15 35 -70q15 -29 21 -42q5 -9 1.5 -19t-12.5 -14.5t-19 -1.5t-14 12l-9 18q-5 1 -12 4q-11 5 -29 17q-21 15 -49 45q-1 1 -2 3l-2 2q-3 3 -4 5q-9 10 -16 16q-7 7 -7 17.5t7.5 18t18 7.5t17.5 -8l1 -1q7 8 18 8q4 0 8 -1.5t9 -4.5q3 3 7 4q4 2 9 2
q17 0 23 -17zM435 442q11 -29 17 -61q5 -28 6 -62q0 -9 1 -17q4 -29 9 -83v-11q6 -69 12 -101q8 -46 22 -77q14 -10 9 -26q-2 -10 -11 -15.5t-19 -2.5q-35 8 -55 39q-16 24 -23 62q-20 -23 -40 -37q-91 -65 -168 -64q-71 1 -112 55q-37 48 -31 112q6 66 56 107q27 23 73 34
q26 6 80 12q4 1 6 1q43 5 65 10q32 7 52 19q7 4 14 4v12q-4 12 -8 22q-26 72 -89 97q-4 2 -8 5q-28 1 -58 -6q-5 -2 -11 -4q-4 -5 -10 -7q-22 -10 -33.5 -27.5t-16.5 -47.5q-2 -10 -10 -16t-19 -5l-6 2q-7 -15 -24 -15q-11 1 -18 8.5t-6 17.5q2 53 46 93q39 34 96 49
q56 15 107 4q59 -12 88 -55q5 -6 8 -14q7 -4 9 -11zM154 224q-33 -101 -1 -164q3 -7 2 -15q18 -9 41 -9q60 -1 138 54q27 19 43 44q-7 57 -1 143q-15 -5 -33 -9q-24 -5 -71 -11h-5q-51 -6 -74 -12q-22 -5 -38 -13q0 -4 -1 -8z" />
    <glyph glyph-name="aacute" unicode="&#xe1;" horiz-adv-x="575" 
d="M275 627l-12 -12q-14 -12 -21.5 -20t-18.5 -8q-10 0 -17 7q-8 7 -8 18q0 10 7 17q13 15 28 44q1 1 2 4q1 0 1.5 1.5t0.5 2.5q16 31 28 46q13 17 32 7q7 10 19 10q7 0 13 -4q1 0 2 -1q15 5 27 -6q7 -7 7 -17.5t-7 -17.5l-52 -52q-9 -8 -13 -11t-7 -5q-5 -3 -11 -3z
M187 456q-12 -17 -19 -39.5t-4 -39.5q2 -10 -4 -18.5t-16 -10.5q-9 -1 -16 3q-6 -9 -17 -11q-10 -2 -18.5 4t-10.5 16q-10 56 26 102q31 40 85 59q19 6 38 9q118 23 179 -64q29 -40 44 -105q12 -52 17 -122q3 -52 2 -146v-35q0 -6 -3 -12q3 -4 5 -5q1 -1 2 0q11 1 19 -5.5
t9 -16.5t-5 -18.5t-17 -9.5q-32 -4 -54 27q-15 20 -25 60q-3 12 -6 28q-34 -29 -44 -37q-52 -41 -92 -61q-55 -26 -98 -18q-54 9 -86 69q-58 110 11 170q25 23 71 39q29 10 82 22q4 1 9 2l1 1q6 1 7 1q72 17 99 29q3 2 7 3q1 9 2 19q0 3 1 5q-2 9 -3 19q-10 55 -22 74
q-19 28 -57 36q-22 5 -47 1q-17 -3 -36 -10q-3 -1 -5 -1q-3 -1 -6 -3q-1 -5 -5 -10zM162 202q-19 -34 -19 -76q0 -45 22 -71q6 -7 6 -16h2q27 -5 67 14q35 17 83 55q9 8 45 37q-1 3 -1 5q0 21 -2 65v21q-1 20 -1 35q-16 -6 -37 -11q-19 -6 -56 -14q-1 -1 -3 -1.5t-4 -0.5h-2
q-5 -2 -8 -2q-51 -12 -77 -22l-12 -4q1 -7 -3 -14z" />
    <glyph glyph-name="acircumflex" unicode="&#xe2;" horiz-adv-x="583" 
d="M285 726q8 11 22 10q9 -1 16 -7q4 -2 7 -6q6 -7 14 -18q6 -10 17 -28l1 -1q1 -2 1 -3q20 -33 34 -47q7 -7 7 -17.5t-7 -17.5q-8 -7 -17.5 -7.5t-17.5 6.5q-4 -1 -8 -1q-12 0 -20 10q-5 7 -12 17q0 1 -3 5l-3 4q-4 5 -6 9q-23 33 -33 32q-8 -1 -22 -15q-19 -21 -43 -65
q-5 -9 -15 -12t-19 2q-16 9 -12 27q-6 13 1 24l10 15q5 9 9 16q32 49 55 77q7 8 17 9t18 -5q7 -5 9 -13zM358 110v1q-11 69 -7 158q-16 -5 -41 -12q-1 0 -8 -2t-15.5 -4t-17.5 -4.5t-13 -3.5q-53 -14 -82 -28q-22 -32 -19 -69q1 -18 7 -42q4 -13 15 -47q2 -4 3 -7
q31 -8 69 0q71 15 109 60zM74 377q7 49 54 88q40 33 97.5 49t106.5 8q30 -4 53 -18q50 -21 77 -73q20 -41 26 -104q5 -46 1 -115q-1 -20 -3 -55q-4 -72 -4 -101q0 -9 -7 -16q3 -4 6 -7q2 -3 4 -5q2 -1 4 -1q10 0 17.5 -7t7.5 -17.5t-7.5 -18t-17.5 -7.5t-19 3q-17 -2 -25 14
q-7 6 -13 14q-1 3 -3 5q0 1 -0.5 1t-3.5 3l-2 1q-13 10 -19 18q-12 13 -17 27q0 2 -1 4q-50 -50 -127 -66q-54 -11 -98 2q-53 16 -78 63q-53 98 14 159q25 23 67 41q31 12 79 25q4 1 13.5 3.5t17.5 5t16 4.5l7 1q64 17 83 30l1 1q3 42 4 65q0 4 2 8q-5 25 -12 37
q-5 7 -14 13q-38 14 -98 5q-9 -2 -18 4l-6 -2q-37 -10 -66 -29q-18 -33 -18 -59q0 -11 -7 -18t-18 -7q-7 0 -13 3q-9 -9 -22 -7q-10 1 -16 9.5t-5 18.5z" />
    <glyph glyph-name="atilde" unicode="&#xe3;" horiz-adv-x="583" 
d="M115 606q6 44 22 68q18 26 47 31q12 2 25 1q21 3 46 -4q13 -4 42 -15q26 -10 40 -13q17 -4 30 -3q16 11 27 45q3 9 12.5 14t19 1.5t14.5 -12.5t1 -19q-15 -48 -44 -69q-5 -7 -14 -9q-7 -3 -16 -5q-21 -6 -46 -1q-18 4 -42 13q-8 3 -20 8q-28 12 -40 16l-8 2
q-8 -3 -14 -10q-13 -13 -25 -41q-3 -8 -10 -12q-7 -18 -26 -15q-10 2 -16.5 10t-4.5 19zM201 447q-38 -38 -44 -79q-1 -10 -9.5 -16t-18.5 -5q-7 1 -12 6q-10 -16 -28 -11q-10 2 -15 11t-3 19q11 44 49.5 82.5t88.5 58.5q54 21 100 11q16 -3 30 -9q67 -18 97 -83
q16 -34 22 -84q5 -37 4 -91v-46q-2 -83 3 -114v-5q8 -28 20 -45q3 -5 4 -10q9 0 16 -5.5t8 -14.5q2 -11 -4 -19.5t-16 -9.5q-36 -6 -61 23q-16 19 -26 54q-2 1 -5 3q-6 5 -9 14q-9 -6 -22 -16q0 -1 -4 -4t-5 -3q-30 -22 -49 -33q-30 -17 -61 -24q-46 -11 -90 1t-74 42
q-33 34 -35.5 79t28.5 92q25 40 76 58q18 7 44 12q14 2 44 6q6 1 8 2q50 6 74 15q23 8 39 22q3 12 8 21q-1 9 -2 17q-7 50 -19 69q-12 20 -30 30q-17 3 -37 3q-9 0 -16 6q-20 -2 -42 -10q-10 -4 -20 -10q-2 -5 -6 -10zM157 219q-36 -86 12 -156q3 -5 4 -11q33 -9 67 -2
q24 6 48 19q16 9 42 29q1 1 5 4t5 4q14 11 24 18q0 2 -1 5q-7 48 -8 97q0 22 1 41q-6 -3 -13 -5q-29 -11 -84 -18q-3 0 -9 -1q-54 -8 -78 -16q-8 -3 -15 -6v-2z" />
    <glyph glyph-name="adieresis" unicode="&#xe4;" horiz-adv-x="593" 
d="M244 682q-5 -32 -5 -36q0 -3 2.5 -13t-2.5 -19t-15 -12q-20 -5 -29 13q-15 -10 -30 1q-6 5 -9 13q-1 3 -3 8q-3 13 -5 47q0 11 6.5 18.5t17.5 8.5h1q8 10 21 10h3q11 -2 17 -11q2 1 5 1q2 0 4 -1q9 -1 15 -8t6 -16v-4zM361 616q-1 0 -2 -1q-7 -9 -19 -10h-2
q-9 0 -16.5 6.5t-8.5 16.5v8q-1 12 -3 18q-2 12 -10 28q-5 9 -1.5 19t12.5 15q10 5 21 0h1q2 1 4 1q12 0 19 -10h6h1h1q1 2 2 3q7 8 17.5 9t18.5 -5.5t8.5 -17t-5.5 -18.5q-4 -5 -9 -15q-3 -7 -7 -18l-1 -4q-1 -2 -1 -4q-2 -6 -4 -9q-3 -5 -8 -8q-6 -4 -14 -4zM164 53v-6
q38 -13 99 13q57 25 119 76v3q0 24 1 71q1 23 1 35q1 17 1 32q-17 -8 -39 -14q-26 -8 -76 -18h-3q0 -1 -1 -1h-2q-45 -9 -66 -15q-16 -4 -29 -9q-7 -18 -10 -39q9 -11 5 -25q-9 -29 -8 -52q2 -24 8 -45v-6zM181 438q-10 -14 -14 -27q-1 -4 -2 -12q-3 -20 -7 -31
q-2 -10 -11.5 -15t-18.5 -3l-4 2q-9 -12 -23 -10q-10 1 -16.5 9t-5.5 18q5 49 45 89.5t97 59.5q58 18 107 6q59 -14 87 -66q6 -10 10 -26q12 -19 21 -41q16 -40 22 -97q3 -37 4 -104v-10q1 -82 5 -119q2 -12 -7 -21q4 -9 7 -13q3 1 6 3q8 7 18 5.5t16.5 -9.5t5.5 -18t-9 -17
q-37 -29 -68 -4q-19 16 -31 59q-5 20 -9 45q-64 -51 -123 -77q-45 -19 -83 -21q-47 -3 -82 22q-57 38 -61 114q-5 83 64 123q25 15 64 26q22 6 69 15q2 0 3 1h3q48 10 72 17q31 9 51 22q-1 16 -4 33q-1 8 3 15v1q-2 17 -4 29q-34 43 -105 54q-10 1 -16 10q-10 -2 -20 -5
q-28 -9 -52 -25q-1 -4 -4 -7z" />
    <glyph glyph-name="aring" unicode="&#xe5;" horiz-adv-x="595" 
d="M266 739q-23 -9 -25 -27q-2 -34 16 -48q16 -12 41 -7q24 5 32 22q9 17 -8 44q-16 23 -22 26q-1 1 -3 0q-6 0 -17 -6q-6 -4 -14 -4zM267 792q31 14 56 2q12 -7 23 -20q6 -7 17 -24q34 -50 12 -94q-20 -38 -67 -48q-46 -10 -81 16q-40 31 -35 92q2 30 25 51q17 15 45 24
q2 1 5 1zM122 352q-9 -13 -25 -10q-10 3 -15.5 11.5t-3.5 18.5q11 49 58 94q3 5 7 10q6 8 16 9q28 22 59 35q55 24 104 16q44 -7 75 -40q21 -17 37 -43q23 -37 34 -95q9 -46 10 -108q1 -38 -1 -106q-1 -47 -1 -65q0 -5 -3 -11q3 -4 5 -7q8 -8 19 -6q10 1 18.5 -5t10 -16.5
t-5 -18.5t-16.5 -10q-37 -5 -62 23q-19 20 -30 60v2q-52 -41 -100 -66q-93 -50 -159 -32q-39 10 -66.5 37t-34.5 63q-16 85 50 139q43 35 134 62l72 19q33 9 51 16l7 2l8 4q5 2 8 4v0l1 1q1 0 2 2.5t1 3.5q2 5 4 7v1q-1 15 -3 29q-5 49 -16 65q-4 7 -8 12q-10 7 -20 11
q-36 13 -90 0q-9 -2 -18 3q-33 -15 -60 -39q-6 -10 -10 -22q-4 -13 -8 -41q-2 -10 -10.5 -16t-18.5 -4q-3 0 -6 1zM148 171q-3 -37 6 -71q14 -53 44 -57q6 -1 11 -4q35 5 80 29q40 21 85 55q-1 2 -1 4v95v58q-19 -7 -51 -16q-56 -15 -72 -19q-57 -17 -89 -35q-1 -1 -1 -2
q-7 -17 -12 -37z" />
    <glyph glyph-name="ae" unicode="&#xe6;" horiz-adv-x="890" 
d="M580 476q-13 -4 -26 -13q-2 -1 -5 -2q-7 -4 -14 -9q0 -11 -7 -18q-50 -50 -63 -145q9 -1 20 -2q7 -1 20 -3q27 -5 39 -6q20 -1 36 2q2 0 29.5 5.5t36.5 7.5q20 4 37 7q35 6 59 7l-10 28q-21 50 -46 85q-29 42 -60 54q-12 5 -24 5l-10 -2q-6 -2 -12 -1zM71 381
q10 46 45 84.5t83 57.5q45 18 89.5 12t78.5 -35q25 -11 42 -35q14 -18 24 -45q45 65 126 103q6 3 13 2q12 3 24 4q97 20 157 -61q52 -69 53 -170q6 -3 9 -8q7 -8 6 -18t-10 -17q-12 -10 -27 -2q-3 -1 -6 -1q-9 0 -16 6h-5q-25 -1 -65 -7q-17 -3 -37 -7q-8 -2 -36 -7.5
t-30 -5.5q-22 -4 -48 -3q-15 2 -44 6q-13 2 -19 3q-9 1 -16 2q0 -78 30 -130q2 -4 3 -8q36 -42 81 -54q4 2 9 2q104 0 141 113q4 9 13 14t19 1q13 -4 16 -16q13 6 26 -2q8 -6 10 -16t-3 -18q-93 -139 -209 -132q-50 3 -94 33t-75 80q-3 6 -7 13q-17 -48 -71 -79
q-58 -32 -131 -32q-77 0 -121 37q-55 46 -33 125q18 60 72 93q36 21 101 36q7 1 17 3q3 1 8 2l4 1q3 0 4 1q49 10 70 18q26 11 34 27q0 1 1 2q-11 73 -32 97q-2 4 -5 7q-8 2 -19 2q-9 1 -16 7.5t-8 15.5q-37 11 -80 -6q-18 -7 -34 -18q1 -10 -6 -18q-10 -12 -18 -29
q-1 -6 -4 -14q-5 -13 -6 -17l-2 -8q-5 -19 -24 -19q-3 0 -6 0.5t-6 2.5q-9 -8 -21 -5q-10 2 -15.5 10.5t-3.5 19.5zM278 256q-1 0 -4 -1q-5 -1 -8 -2q-9 -2 -16 -3q-56 -12 -84 -29q3 -11 -3 -21q-15 -22 -14 -46q0 -5 1 -16q3 -30 0 -50q-1 -8 -6 -13q30 -17 76 -17
q60 0 107 26q17 10 29 22q-1 3 -1 6q0 16 -1 47v25q-1 56 2 92q-23 -9 -73 -19q-2 -1 -5 -1z" />
    <glyph glyph-name="ccedilla" unicode="&#xe7;" horiz-adv-x="525" 
d="M148 24q-7 7 -17 16q-31 33 -46 55q-31 50 -43 113.5t0 123.5q13 68 54.5 114.5t105.5 62.5q10 2 18 -3q13 3 28 4q10 1 32 3q7 0 11 1q71 5 113 -41q31 -33 50 -101q3 -10 -2 -19t-15 -12q-13 -4 -24 6q-3 -1 -7 -1q-10 0 -17.5 7.5t-7.5 17.5q0 37 -17 57
q-13 16 -53 36h-16q-4 -1 -12 -1l-30 -3q-57 -5 -83 -29q-29 -27 -44.5 -79t-12.5 -111q3 -61 24.5 -107.5t56.5 -67.5q20 -11 59 -8q7 1 20 2q16 2 23 3l2 2q27 20 51 52t34 63q3 9 12.5 13.5t19 1.5t14.5 -12q7 -1 13 -6q8 -6 9 -16.5t-5 -18.5q-9 -11 -24 -38h-1
q-11 -19 -17 -29q-11 -17 -23 -28q-29 -29 -68 -33q-16 -10 -32 -16l-2 -4q-8 -18 -24 -41q23 0 42 -7q23 -8 36.5 -26.5t13.5 -41.5q1 -48 -52 -76q-53 -27 -143 -17q-10 1 -16.5 9t-5.5 18t9 16.5t18 5.5q61 -7 100 6q-1 9 4 16q7 11 4 22t-13 14q-7 3 -11 9
q-14 -3 -29 -10q-7 -4 -15 -4q-16 -1 -23 14t4 27q8 15 27 41l15 21q-38 5 -70 32z" />
    <glyph glyph-name="egrave" unicode="&#xe8;" horiz-adv-x="565" 
d="M260 731q4 -9 14 -23q3 -5 9 -14q1 0 3 -3t4.5 -6.5t3.5 -5.5q31 -43 40 -71q3 -10 -1.5 -19t-14.5 -12.5t-19 1.5t-12 14q-1 1 -1 2q-5 -3 -11 -3q-13 0 -21 11q-17 25 -67 72q-6 6 -9 8q-10 9 -17 16t-7.5 17.5t6.5 18.5q8 8 20 7q8 9 20 9q7 0 14 -4l8 -6q2 2 5 3
q5 2 11 2q16 0 22 -14zM283 458q-54 -5 -95 -32q-28 -41 -47 -134q59 2 166 11q3 0 9.5 0.5t12.5 1.5q25 2 37 3q17 1 47 -4q-2 49 -38 101q-39 55 -80 51q-6 0 -12 2zM153 462q0 1 1 2q6 7 14 9q70 41 164 36q33 -3 62 -13q41 -15 58 -43q18 -30 29 -94q2 -8 3 -18
q1 -1 2 -8t1 -9q5 -25 8 -38q2 -9 -3 -18t-15 -11q-5 -6 -13 -7q-20 -3 -54 3q-1 0 -4 1q-25 5 -36 4q-12 -1 -37 -3q-14 -1 -22 -2q-115 -10 -178 -11q-10 -94 11 -142q11 -16 25 -30q3 -2 6 -5l10 -10q22 -18 53 -23q52 -3 93 30q43 34 68 99q3 10 12.5 14t19.5 0
q18 -6 16 -25q9 -4 13 -13t1 -18q-14 -41 -49 -74t-81 -50q-51 -19 -99 -12q-7 0 -14 1q-5 1 -9 4q-32 8 -56 29q-8 6 -15 14q-24 15 -38 44q-38 56 -49 123t8 131q25 84 93 133h1z" />
    <glyph glyph-name="eacute" unicode="&#xe9;" horiz-adv-x="558" 
d="M328 679q-2 -2 -5 -6q-7 -9 -34 -47q-7 -10 -20 -10h-2q-8 -9 -16 -19q-8 -9 -19 -9q-9 0 -16 6q-9 7 -9 19q0 9 5 16q16 19 25 35q4 7 12 25q4 10 7 16q8 14 19 26q8 7 18 7.5t18 -6.5q2 -2 3 -5q3 1 7 1q6 1 11 3q10 3 19 -1.5t12.5 -14.5t-1 -19.5t-14.5 -12.5
q-7 -2 -13 -3q-2 -1 -5 -1h-2zM135 379q-12 -34 -13 -76q125 16 282 -4q-3 88 -66 139q-9 7 -10 19q-11 3 -25 6q-54 12 -92 -1q-4 -7 -11 -11q-38 -19 -65 -72zM242 -6h-1q-43 3 -65 10q-15 5 -29 13q-58 33 -83 106q-22 64 -14 142q8 74 39 134q4 12 9 22q29 59 84.5 83
t130.5 8q103 -22 139 -83q16 -27 24 -70q6 -26 12 -86q1 -10 -5.5 -18t-16.5 -9q-3 -1 -6 0q-8 -5 -17 -4q-177 30 -319 11q3 -29 12 -57q15 -55 44 -94t64 -52q30 -11 64 -1q5 3 10 8q24 18 52 57q4 4 20.5 27.5t20.5 27.5q6 8 16 9.5t19 -4.5q10 -9 9 -22q5 -1 8 -4
q8 -7 9 -17t-5 -18q-61 -77 -124 -104l-14 -6q-33 -19 -67 -19q-12 0 -20 10z" />
    <glyph glyph-name="ecircumflex" unicode="&#xea;" horiz-adv-x="569" 
d="M346 720q31 -56 58 -83q7 -8 7 -18t-7 -18q-5 -4 -11 -6q-3 -8 -11 -12q-5 -3 -12 -3q-14 0 -22 13q-19 36 -37 64q-13 20 -22 30l-2 2h-1q-10 -10 -25 -29q-5 -6 -10 -13q-8 -10 -27 -37q-6 -8 -11 -15q-8 -10 -20 -10q-9 0 -15 5q-10 7 -10 20q0 8 5 15q4 6 11 15
q33 47 55 87q5 9 14 12t17 0q12 6 23 4q10 -1 21 -10l2 -2q4 2 8 2q15 0 22 -13zM197 425q-42 -45 -52 -131v-6q147 -11 269 -5q-2 36 -16 78q-18 56 -50 94l-1 1q-48 18 -104 -4q-22 -8 -42 -22q-1 -3 -4 -5zM195 95q35 -53 106 -29q34 11 60.5 36t35.5 54q4 10 13 15t19 1
q11 -3 16 -15q10 2 18 -5t9 -17.5t-5 -17.5q-63 -76 -125 -104q-82 -37 -170 5q-37 17 -60 54q-14 20 -32 66q-23 56 -23 111q-12 9 -10 23q1 13 13 20q6 38 23 74q22 46 59.5 80.5t82.5 52.5q47 19 94 14.5t84 -31.5q82 -59 90 -202q5 -6 6 -14q2 -10 -4.5 -18.5
t-16.5 -9.5q-73 -9 -204 -6q-68 2 -131 6q1 -49 12 -96q1 -8 12 -25q1 -1 1 -2t1 -1q2 -4 4 -7q14 0 22 -12z" />
    <glyph glyph-name="edieresis" unicode="&#xeb;" horiz-adv-x="558" 
d="M211 602q-4 0 -8 2q-7 -13 -22 -13h-2q-10 1 -16.5 8.5t-6.5 16.5v2q1 10 -2 34v7q-2 17 -1 28q0 10 7.5 17.5t17.5 7.5q2 0 4 -1q4 3 8 5q4 1 8 1q8 0 15 -6l2 2q7 3 14 2q8 -1 15 -6q3 -3 5 -7t3 -8q1 -6 1 -15q-2 -15 -5 -32q-1 -2 -1 -4q1 -9 2 -12q4 -10 -0.5 -19
t-13.5 -13q-13 -5 -24 3zM354 616q-1 0 -1 -1q-3 -3 -6 -5q-6 -4 -13 -5q-9 0 -16 5q-4 3 -7 7t-4 9q-2 9 -2 43v1v26q-1 10 6 17.5t18 8.5q17 0 24 -15h5q0 1 1 2q6 7 15 9q14 3 24 -8q4 -4 5 -8q1 -3 1 -6q1 -3 1 -9q0 -5 -1 -9q17 -10 10 -29q-6 -19 -9 -27q-3 -6 -6 -10
q-4 -5 -10 -8q-16 -8 -28 4q-4 3 -6 7zM212 437q-2 -10 -9 -16q-16 -13 -30.5 -47t-23.5 -77q9 0 19 1q28 0 84 4h1q72 4 107 4q18 0 34 -1q0 29 -7 57q-10 42 -32 63q-8 8 -7 20q-36 17 -80 10q-29 -4 -56 -18zM186 120q52 -64 114 -52q63 11 101 88q5 10 15 13t19 -1
q4 -3 7 -6q8 2 16 -1q10 -4 14 -13t0 -19q-34 -93 -110 -122q-69 -27 -145 6q-73 32 -119 101q-50 74 -45 162q4 88 68 154q59 63 139 75q87 13 149 -42q68 -60 79 -184v-4q1 -3 0 -5q-2 -11 -10 -17t-19 -4q-42 7 -98 7q-35 0 -106 -4q-57 -4 -86 -4q-14 -1 -27 -1
q-7 -83 20 -118q15 3 24 -9z" />
    <glyph glyph-name="igrave" unicode="&#xec;" horiz-adv-x="251" 
d="M130 622q-9 -1 -20.5 3t-24.5 14q-27 20 -57 59q-6 9 -4.5 19t9.5 16q17 14 32 -1q2 5 6 9q7 7 17.5 7t17.5 -7q40 -40 53.5 -57t15.5 -32q0 -2 1 -4q0 -7 3 -14q4 -10 0.5 -19.5t-13 -13.5t-19.5 0t-14 13q-2 5 -3 8zM164 502q12 -74 10 -190q-1 -51 -4 -135
q-4 -79 -5 -103v-47q1 -6 2 -9l-1 1q2 -6 2 -12q0 -1 -1 -3v-1v-1q0 -9 -6.5 -16t-15.5 -9h-3q-9 0 -16.5 6.5t-8.5 15.5v4q-6 -4 -13 -4q-11 0 -18 7.5t-7 17.5v25q0 14 1 34q0 3 0.5 37.5t0.5 44.5q1 94 1 160q1 107 -1 178q0 11 7.5 18.5t17.5 7.5q13 0 20 -10q5 3 10 4
q10 1 18.5 -5t9.5 -16z" />
    <glyph glyph-name="iacute" unicode="&#xed;" horiz-adv-x="296" 
d="M167 645q-1 -3 -3 -5q-4 -6 -12 -9q-20 -19 -31 -27q-5 -5 -10 -7q-4 -2 -7 -3q-9 -3 -18 1q-13 5 -16 19q-1 6 0 12q2 6 6 14q7 16 25 44l1 1q18 29 25 44q4 10 14 13.5t19 -1.5q13 -5 14 -19q8 5 15 9q6 3 12 3q15 0 22 -12q3 -6 3 -13q0 -14 -12 -21q-3 -2 -16 -14
q-7 -6 -17 -16q-2 -2 -3 -4l-7 -7zM166 506q-1 -73 -2 -182v-217v-53v-1l1 -1v-2v-4v-11.5v-11.5v-1v-2v-5v-3h-1q0 -10 -7 -17.5t-18 -7.5q-10 0 -18 8q-6 -4 -14 -4q-10 0 -17.5 7t-7.5 18q0 50 -3 151q-1 45 -2 68q-4 163 9 270q1 10 9 16.5t19 5.5q5 -1 9 -3q8 8 19 7
q10 0 17 -7.5t7 -17.5z" />
    <glyph glyph-name="icircumflex" unicode="&#xee;" horiz-adv-x="338" 
d="M233 587q-4 -1 -9 0t-10 4l-2 2q-11 2 -16 12q-17 28 -39 52q-8 10 -15 15q-16 -18 -21 -24q-1 0 -2 -1.5t-2 -1.5q-33 -35 -45 -44l-6 -4q-8 -4 -16 -3q-9 1 -15 7.5t-7 15.5q-1 6 1 13q3 9 18 31q16 25 39 67q6 9 16 11.5t19 -2.5q4 -3 7 -7q7 5 16 5q10 0 17 -7
q1 -1 2 -1q6 5 14 5q8 1 14 -3q3 -2 5 -4t3.5 -4t3.5 -5q3 -5 10 -19q1 -3 3 -7q15 -2 20 -16q4 -8 13 -25q2 -2 3 -5q10 -16 14 -23q4 -9 1 -19t-12 -14q-3 -2 -6.5 -2t-8.5 0.5t-7 0.5zM176 492v-46q-1 -77 2 -232q3 -131 3 -196q0 -10 -7.5 -17.5t-17.5 -7.5
q-16 0 -23 14l-6 -2q-10 -1 -18 5.5t-10 16.5q-24 219 0 467q0 10 8 16.5t19 5.5q5 0 10 -3q7 5 16 5q10 0 17.5 -7.5t6.5 -18.5z" />
    <glyph glyph-name="idieresis" unicode="&#xef;" horiz-adv-x="349" 
d="M110 673q9 -4 13.5 -12.5t1.5 -18.5q-9 -30 -16 -40q-5 -7 -11 -10q-16 -7 -29 4q-6 5 -9 13q0 3 -1 6q-1 -3 -2 -5q-1 -9 -8 -14.5t-16 -5.5h-5q-9 2 -14.5 9t-5.5 16v5q2 10 4 36q0 22 2 34q1 10 9.5 16.5t18.5 4.5h3q2 1 5 1h3q10 0 17 -6q7 7 17 7h3q10 -1 16 -8
t6 -17v-3zM274 659q0 -2 -0.5 -4t-1.5 -4v-2q-1 -5 -2 -9q-2 -11 -2 -18q-1 -10 -8.5 -16.5t-16.5 -6.5h-3q-10 1 -16.5 8.5t-5.5 17.5l-1 1q-1 1 -1 2h-1h-2v-3v-1q-1 -9 -8.5 -15.5t-16.5 -6.5h-2q-10 0 -16.5 7.5t-6.5 16.5v3q1 9 0 13v3v1q-1 15 1 47q0 10 7.5 17
t18.5 7q4 -1 7 -2q1 0 2 1h4q9 0 16 -6q7 6 17 6q3 0 6 -1q8 -2 13 -8q9 -1 15.5 -7.5t7.5 -15.5q0 -2 1 -4q2 -11 -5 -21zM173 494q-7 -102 -8 -242q-1 -91 2 -149q4 -67 12 -82q4 -9 1 -19t-12 -15q-18 -9 -31 7q-8 -9 -20 -9q-10 0 -17.5 7.5t-7.5 17.5q0 64 -2 192
q-2 88 -2 130q-1 100 1 176q0 10 7.5 17.5t18.5 6.5q15 0 22 -14q6 3 13 2q10 0 17 -8t6 -18z" />
    <glyph glyph-name="eth" unicode="&#xf0;" horiz-adv-x="561" 
d="M236 -8q-75 9 -127 63q-54 57 -68 147q-14 86 16 166q32 87 104 132q8 5 18 3q66 30 154 1q15 -5 29 -12q-8 18 -18 34q-19 35 -55 66q-23 20 -72 55l-2 2q-1 0 -2 1q-23 -15 -68 -43q-9 -6 -19 -3.5t-15.5 11.5t-3 19t11.5 16q32 19 51 31q-2 1 -3 2q-27 21 -46 40
q-7 7 -7 17.5t7 17.5q6 7 15 8q0 1 1 2q3 10 12.5 14.5t19.5 1.5q43 -15 86 -46q24 17 44 34q8 6 18 5.5t16.5 -8.5t6 -18.5t-8.5 -17.5q-17 -13 -36 -27q92 -84 147 -212q46 -106 49 -206q4 -112 -48 -190q-27 -40 -55 -62q-36 -29 -81 -34q-5 -1 -19 -5q-6 -1 -9 -2h-2
q-6 -4 -13 -4h-9h-6q-6 0 -13 1zM212 441q-85 -88 -68 -198q7 -47 32 -102q17 -37 44 -81q20 -6 42 -4q81 8 121 59q35 46 38 123q2 70 -21 154q-9 1 -15.5 6.5t-7.5 14.5q-2 11 -18.5 23t-41.5 20q-56 19 -99 8q3 -13 -6 -23z" />
    <glyph glyph-name="ntilde" unicode="&#xf1;" horiz-adv-x="572" 
d="M242 460q-3 -2 -5 -4q-28 -20 -58 -56q-13 -16 -27 -35v-51q0 -66 3 -167v-5v-12t0.5 -16t0.5 -17.5t0.5 -15.5t0.5 -11v-12q0 -1 0.5 -2t0.5 -2v-2.5v-4.5q1 -3 1 -11v-11q1 -6 -1 -12q0 -1 -1 -3q-1 -9 -8 -15t-16 -6q-19 0 -24 18h-3q-10 0 -17.5 7t-7.5 18
q0 20 -1 65q0 7 -0.5 22.5t-1.5 30t-1.5 27.5t-0.5 14q-3 80 -4 136q-2 106 1 176q0 11 8 18t18 6q13 0 20 -11q7 4 15 3q10 0 17 -8t6 -18q-2 -21 -3 -45q27 29 53 48q43 32 85 35q7 1 13 0q81 19 130 -53q47 -68 61 -221q7 -80 6 -204v-31q0 -11 -7.5 -18t-17.5 -7
q-18 0 -24 16q-6 -15 -23 -15q-10 0 -17.5 7.5t-7.5 17.5q0 40 7 125q2 35 3 54q8 128 -12 200q-6 22 -28 41q-2 1 -6.5 5t-8.5 8l-5 3q-22 19 -45 22q-20 -6 -44 -20q-12 -8 -24 -1zM128 622q24 53 50 75q27 25 59 20q16 -3 36 -14q6 -3 15 -9q1 -1 12 -8q9 -2 24 -5
q24 -5 33 -6q14 -2 23 0q3 1 5 2q1 1 1 2v1l1 1q5 11 8 17q7 12 15 19q4 3 9 5q9 4 19 1t14.5 -12.5t1.5 -19.5q-10 -31 -30 -48q-3 -6 -7 -12q-15 -18 -37 -21q-30 -3 -60 8q-17 7 -38 20q-9 1 -17 1q-41 1 -68 -34q-10 -13 -26 -8q-12 -17 -31 -8q-9 4 -13 13.5t1 19.5z
" />
    <glyph glyph-name="ograve" unicode="&#xf2;" horiz-adv-x="560" 
d="M297 632q8 -4 12 -12.5t1 -17.5q-4 -10 -13 -14.5t-19 -1.5q-1 0 -3 1q-4 -2 -8 -2q-14 0 -21.5 12t-23.5 30q-9 8 -36 34q-29 27 -43 44q-7 8 -6.5 18t8.5 17t18 6.5t17 -8.5q7 13 22 14q9 1 19 -4q6 -3 11 -9q8 -7 16 -20q7 -9 14 -23q3 -4 11.5 -21t9.5 -18q2 -3 4 -8
q3 -5 4 -8q3 -6 5 -8q0 -1 1 -1zM215 520q4 3 10 4q7 1 27 6q22 5 35 6q40 5 67 -6q76 -30 112 -116q33 -78 22 -171q-12 -96 -66 -165q-62 -79 -159 -98q-93 -18 -155 70q-52 74 -57 186q-6 114 43 194q44 72 121 90zM191 450q-32 -43 -43.5 -120t2.5 -153q13 -74 42 -109
q23 -29 51 -15q9 4 19 1t14 -12q60 24 99 76q44 58 50 132t-28 134q-36 64 -109 90q-5 2 -9 7q-7 -6 -15 -6q-38 0 -68 -14q-1 -6 -5 -11z" />
    <glyph glyph-name="oacute" unicode="&#xf3;" horiz-adv-x="569" 
d="M287 635q-6 -5 -15 -6q-17 -20 -28 -33q-7 -9 -19 -9q-9 0 -16 6q-9 7 -9 19q0 9 6 16q12 15 23 37q7 13 19 42v2q6 13 9 20q4 10 13.5 14t19.5 0q6 -3 10 -9v1q8 8 19 8q9 0 16 -6q18 5 28 -10q6 -8 4 -18.5t-10 -16.5q-39 -27 -70 -57zM429 100q-32 -52 -86 -89
q-34 -23 -56 -33q-41 -19 -74 -14q-89 14 -138 110q-43 83 -38 191q6 111 61 184q65 85 173 80q2 0 4 -1q25 2 50 -8q69 -11 115 -63q59 -67 59 -167q0 -103 -63 -181q-4 -5 -7 -9zM181 449q-45 -60 -51 -143q-1 -12 6 -59t16 -91q12 -56 24 -89l2 -2q7 -5 17.5 -9.5
t21.5 -6.5q8 -1 11 -1q101 17 160 82q16 27 24 59q18 73 -8 153q-23 73 -69 113q-12 10 -24 16q-17 2 -35 0q-7 0 -13 3q-15 -8 -28 4q-26 -4 -49 -17q0 -7 -5 -12z" />
    <glyph glyph-name="ocircumflex" unicode="&#xf4;" horiz-adv-x="567" 
d="M327 735q24 -37 75 -100q6 -9 5 -19t-9 -17q-11 -9 -25 -3q-3 -7 -10 -11q-6 -3 -12 -3q-15 0 -22 13l-2 4l-6 12t-7 14.5t-5.5 12t-2.5 6.5q-12 23 -20 35q-2 4 -4 7q-6 -8 -14 -20q-19 -29 -34 -59q-7 -15 -23 -15q-5 0 -10 3q-3 1 -5 3q-3 -3 -5 -6q-8 -9 -19 -9
q-9 0 -16 6q-9 7 -9 19q0 9 5 16q15 17 39 53l2 4q22 33 35 50q6 7 15 9t17 -3h1h5q2 1 5 2q10 4 19 2q1 1 3 2q6 4 13 4q14 0 21 -12zM216 461q-57 -39 -87 -113q-13 -32 -19 -67v-12q5 -91 50 -151q47 -63 121.5 -59t116.5 72q40 64 34 151q-7 87 -58 138q-56 56 -148 41
q-5 -1 -10 0zM213 525q22 21 58 15q23 -3 49 -18l14 -7l5 -2.5l6 -3t4 -1.5q29 -15 46 -26q26 -18 44 -39q42 -50 54 -120t-9 -138q-21 -70 -70 -118.5t-116 -60.5q-105 -20 -172 39q-58 52 -68 147q-5 45 2 93q0 95 41.5 161t111.5 79z" />
    <glyph glyph-name="otilde" unicode="&#xf5;" horiz-adv-x="569" 
d="M292 527q3 0 7 1h1q11 2 18 3q13 1 22 -2q45 -14 75 -41.5t52 -76.5q56 -117 17 -229q-34 -98 -123 -151q-91 -54 -174 -24q-94 34 -121 159q-11 51 -13 88q-3 52 11 93q24 71 80 123t125 64q14 3 23 -7zM114 625q30 62 78 74q20 5 44 2q16 -3 39 -10q5 -2 14 -5
q23 -8 34 -11q15 -4 26 -2q24 2 42 38q5 10 14.5 13t19 -1.5t13 -14.5t-1.5 -19q-1 -1 -1 -2q3 -10 -2 -19q-26 -53 -69 -56q-16 -1 -37 6q-7 2 -16 5q-3 2 -8 4q-6 2 -8 3q-37 15 -59 14q-33 -2 -67 -34q-4 -4 -10 -6v-1q-5 -9 -15 -12.5t-19 1t-12.5 14t1.5 19.5zM245 469
q-55 -27 -90.5 -77.5t-43.5 -106.5t10.5 -113t64.5 -96q9 -7 9 -18q4 -2 9 -4q61 -22 131 20q34 20 61 52q0 3 1 6q19 42 25.5 93.5t-0.5 98.5q-18 109 -100 138q-13 4 -16 16q-14 -2 -21 -2q-8 -1 -14 1q-6 1 -10 4q-2 -1 -5 -1q-3 -8 -11 -11z" />
    <glyph glyph-name="odieresis" unicode="&#xf6;" horiz-adv-x="569" 
d="M248 658q-2 -21 -7 -32q-3 -7 -9 -11q-15 -12 -31 0q-5 1 -9 3q-7 -5 -15 -5q-3 0 -5 1q-9 1 -14.5 8t-5.5 16v5q1 5 0 15q0 4 -1 11q-1 11 -1 15q0 10 5.5 17.5t15.5 8.5q4 4 10 5h4q11 0 19 -8q4 1 8 1q5 0 9 -2l1 1q10 0 17 -6.5t8 -16.5q2 -15 2 -20q-1 -2 -1 -4v-2z
M402 674q1 -1 1 -3q1 -2 1 -3.5v-4.5q0 -9 -6 -16q-3 -14 -8 -20q-6 -7 -14 -10q-1 -1 -3 -1q-10 -11 -25 -10l-2 -2q-15 -10 -30 1q-6 4 -9 11q-3 6 -6 16q-4 18 -7 54q-1 10 5.5 18t16.5 9q9 1 16 -4q3 1 6 1q9 0 16 -6q5 2 10 2q6 4 14 4h1q10 -1 17 -8t7 -17v-1
q0 -7 -1 -10zM246 523l4 2q69 23 130 -21q49 -36 82 -109q30 -68 36.5 -140.5t-13.5 -119.5q-19 -41 -50 -70q-23 -22 -64 -47q-8 -4 -24 -14q-4 -2 -9 -5l-4 -3q-4 -2 -5 -2q-20 -12 -33 -18q-23 -9 -43 -8q-112 7 -171 104q-50 84 -43 198t65 186q58 70 142 67zM206 452
q-18 -16 -40 -72q-23 -59 -34 -124q-12 -71 -4 -118q5 -29 18 -42q6 -2 10 -6q3 -2 6 -5q8 -3 12 -9q45 -31 95 -23q49 9 119 61l2 2q44 60 35 160q-8 102 -60 166q-5 6 -5 14l-10 8q-27 19 -55 19q-9 -15 -27 -12q-28 5 -54 0q0 -11 -8 -19z" />
    <glyph glyph-name="divide" unicode="&#xf7;" horiz-adv-x="613" 
d="M355 442q2 -7 2 -15q0 -10 -7 -17.5t-18 -7.5t-18 8h-1q-6 -3 -13 -4q-5 0 -10 1q-4 -4 -10 -6q-13 -3 -24 5q-6 4 -9 12q-3 7 -4 18q-2 18 1 49q1 10 9 17t18 6l6 -2q7 7 16 7q3 0 5 -1q5 -1 10 -4q5 2 11 2h3q14 -2 20 -15q19 -5 19 -24q0 -3 -1 -6q-4 -16 -5 -23z
M292 5h-5q-7 1 -13 1q-11 1 -18 9q-14 7 -14 23v1q2 29 -9 59q-3 10 1.5 19.5t14.5 12.5t19 -1q7 8 19 8q19 0 24 -19q6 4 13 4q4 0 7 -1q12 -4 17 -16q12 -7 12 -22v-2q0 -2 -1 -4q1 0 1 -1q2 -5 2 -12q2 -14 -10 -23q-3 -13 -4 -22q-2 -9 -9 -15t-16 -6q-2 0 -4 1
q-6 1 -11 5h-2q-6 -1 -12 1h-1h-1zM54 286q91 3 238 0q16 0 49 -1q119 -2 177 -2q11 0 18 -7.5t7 -18t-7 -17.5t-18 -7q-59 0 -178 2q-33 1 -49 1q-146 3 -235 0q-11 0 -18.5 7t-7.5 17.5t7 18t17 7.5z" />
    <glyph glyph-name="oslash" unicode="&#xf8;" horiz-adv-x="621" 
d="M442 371q-11 -13 -23 -27q-44 -52 -133 -153l-1 -1l-1 -2q-52 -59 -82 -94q55 -47 144 -36q19 3 34 9q20 11 36 25q20 20 32 50q28 71 10 168q-6 32 -16 61zM233 459q-12 -6 -23 -14q-20 -18 -35 -43q-43 -69 -39 -157q3 -65 33 -113q29 34 77 89l3 3q88 100 132 152
q19 24 37 45q-5 9 -11 16q-62 45 -149 16q-14 -5 -25 6zM487 427q37 -51 47 -119q17 -107 -35 -194q-20 -34 -48 -59q-22 -21 -50 -33q-38 -20 -84 -27q-12 -2 -20 5q-80 -7 -139 43q-31 -37 -62 -75q-6 -8 -16.5 -9t-18.5 5.5t-9 16.5t5 18q33 41 67 81q-44 60 -52 143
q-9 98 36 179q27 49 71 82q47 41 109 50q7 1 13 -2q71 18 129 -44q7 -7 13 -15l10 -8q28 36 53 70q6 8 16 9.5t18.5 -4.5t10 -16t-4.5 -19q-28 -38 -59 -78z" />
    <glyph glyph-name="ugrave" unicode="&#xf9;" horiz-adv-x="566" 
d="M307 628q8 -5 10.5 -14t-1.5 -18q-5 -9 -14.5 -12.5t-18.5 -0.5q-7 3 -12 9q-2 2 -4 5q-12 2 -17 14q-1 1 -1 2q-5 -3 -10 -4q-6 -1 -13 1q-5 2 -11 6q-7 6 -18 17q-24 27 -50 74q-5 9 -2 19t12 15q8 4 18 2q5 2 10 2q10 0 17 -6l2.5 -2.5l4 -4t4.5 -3.5q3 11 15 15
q4 2 9 2q17 0 23 -16q13 -31 30 -68q10 -22 16 -32q0 -1 1 -2zM153 499q-8 -56 -11 -121q-3 -85 6 -151q11 -81 38 -124q28 -45 74 -45q15 0 22 -13q17 4 31 20q32 36 53 123q8 36 15 81q2 15 4 34q3 22 4 27q1 8 3 23q1 3 1 7l1 3v3q2 8 2 14q4 22 6 38q7 58 0 80
q-4 9 1 18.5t14 12.5l8 2q7 4 15 4q8 -1 14 -6q8 5 17 4q10 -1 16.5 -9.5t4.5 -18.5q-5 -48 -5 -111q1 -38 5 -115q4 -88 4 -132q0 -74 -10 -131q-1 -10 -9.5 -16t-18.5 -5q-8 2 -13 6h-5q-10 0 -17.5 7t-7.5 16q0 1 -1 2v2q-1 5 -1 9v2q0 3 1 10v12v4v13q0 8 -1 39t-1 34
v16q-23 -92 -61 -135q-25 -28 -56 -36q-12 -16 -31 -7q-4 2 -20 2h-1q-20 0 -32 3q-88 25 -124 124q-28 77 -16 171q0 7 5 13q-1 1 -1 2q-5 124 4 203q1 10 9.5 16.5t18.5 5.5q6 -1 11 -4q7 3 14 2q10 -2 16.5 -10t4.5 -18z" />
    <glyph glyph-name="uacute" unicode="&#xfa;" horiz-adv-x="576" 
d="M302 736q7 9 19 9q9 0 16 -5h8q10 0 17.5 -7t7.5 -17.5t-7.5 -18t-17.5 -7.5h-1q-10 -4 -27 -25q0 -1 -5.5 -7t-10.5 -12.5t-7 -8.5q0 -1 -2 -3l-2 -2l-2 -3q-2 -3 -3 -4q-8 -10 -14 -14q-13 -7 -25 -3q-3 -1 -5 -2q-3 -2 -7 -3q-7 -2 -15 0q-12 3 -17 15q-2 7 -2 14
q2 9 11 25q7 13 10 19q20 34 40 55q2 3 4 5q7 8 17.5 8t18.5 -7q0 -1 1 -1zM487 511q0 -16 1 -47q1 -22 1 -31q4 -20 7 -43q9 -61 10 -148q1 -48 -2 -132q-1 -67 -1 -91q0 -10 -7.5 -17.5t-17.5 -7.5q-14 0 -22 13q-7 -13 -21 -13q-4 0 -8 1q-17 6 -17 24q0 4 1 7q2 7 3 20
q-1 4 0 8q0 3 1 6v1v19q1 1 0.5 15t-0.5 17q-3 -8 -8 -15q-63 -111 -205 -100q-42 3 -75 38q-27 28 -41 67q-1 5 -1 10q-2 3 -2 7q-38 224 -8 390q2 10 10.5 16t18.5 4q6 -1 11 -4q10 6 21 3q10 -3 14.5 -12.5t1.5 -19.5q-28 -91 -17 -222q11 -144 65 -197q14 -14 4 -30h2
q110 -9 158 74q38 67 43 207q2 41 1 117q-1 38 -1 54q0 9 6.5 16.5t16.5 8.5q6 2 12 1q7 9 19 10q10 0 17.5 -7t8.5 -17z" />
    <glyph glyph-name="ucircumflex" unicode="&#xfb;" horiz-adv-x="547" 
d="M360 703q3 -7 8 -19q1 -1 3 -6t2 -6q7 -16 11 -24q7 -1 12 -5q18 -12 15 -37q-1 -10 -9 -16.5t-18 -5.5q-13 1 -19 12h-1q-2 -1 -4 -1h-7q-4 0 -8 1q-4 2 -8 5q-2 1 -5 2q-1 0 -2 -1h-7q-19 0 -24 18q-3 11 -13 30v1l-2 2q-1 2 -1 3q-4 7 -6 11q-2 -2 -4 -6q-4 -5 -8 -12
l-4 -6l-4 -6q-4 -7 -7 -11q-6 -11 -14 -20t-19 -9q-9 0 -16 7h-1l-16 -16q-7 -7 -17 -7q-11 0 -19 8q-6 7 -6 17q0 11 7 18q16 15 41 54v0q0 1 1 1q22 34 35 50q13 14 29 7h5q6 0 11 -2q2 1 3 2q7 4 14 4q12 0 19 -8h3q9 0 15 -6q6 -4 10 -9q17 1 25 -14zM477 485
q-13 -51 -9 -219q1 -50 3 -119q1 -11 2 -42.5t1 -33.5q1 -11 1 -20h1v-2v-5v-2v-8v-2v-9q0 -10 -7.5 -17.5t-17.5 -7.5q-4 0 -8 2q-8 -8 -18 -8q-11 0 -18 7t-7 18q0 36 3 81q-15 -28 -33 -49q-35 -41 -79 -54q-46 -19 -90 -12.5t-79 37.5q-36 31 -52 79.5t-8 99.5
q-30 135 6 312q3 10 11.5 15.5t18.5 3.5q9 -2 14 -8h4q10 1 18 -6t8 -17q1 -10 1 -54q1 -112 3 -174q3 -95 11 -150q2 -14 4 -26q26 -35 59 -48q27 -11 54 -5q5 3 11 6q6 4 12 4q19 10 35 29q63 74 68 235q1 15 4 52q2 22 2 35q3 55 -5 83q-3 10 2.5 19t15.5 12q11 3 21 -4
q9 5 18 2q10 -2 15.5 -11t3.5 -19z" />
    <glyph glyph-name="udieresis" unicode="&#xfc;" horiz-adv-x="542" 
d="M245 676q-1 -4 -1 -11q-2 -16 0 -20q3 -10 -1.5 -19t-13.5 -12q-6 -16 -23 -16q-2 0 -5 1q-5 1 -10 4q-6 0 -11 2t-9 7q-13 -1 -22 8q-20 22 1 74q4 9 11 13q3 2 5 4q10 5 20 2q4 -1 6 -2q8 6 17 6h3q16 -2 21 -18q12 -8 12 -22v-1zM367 596q-6 0 -12 4q-3 -1 -6 -1
q-4 0 -7 1q-8 -8 -18 -8h-3q-10 2 -16 9t-6 16v3q1 10 -1 42v2q-1 19 -2 29q0 10 7 17.5t18 7.5q13 1 20 -10q6 0 11 -2q6 6 15 6h1q10 -1 17 -8t7 -17v-2q0 -7 -1 -14q9 -5 12 -15t-2 -19q-3 -4 -7 -9v-1l-1 -1l-1 -1v-1v-3q0 -9 -6.5 -16t-15.5 -8q-2 -1 -3 -1zM149 495
l-1 -5q-1 -6 -1.5 -12.5t-1.5 -9.5q-2 -18 -4 -32q-11 -87 -12 -152q-3 -162 48 -213q7 -7 8 -16q4 -2 9 -4q28 -11 65 -5.5t67 25t42 44.5q23 49 37 186q2 24 4 51q-1 2 -1 4q-2 8 -3 16q-2 17 1 38q0 7 1 14q0 3 1 8q4 37 2 51q-3 16 11 25q1 10 8 16.5t17 6.5q1 0 3 -1
q9 -1 15.5 -8t6.5 -16v-3q-1 -8 -2 -19q-1 -7 -1 -16q3 -67 4 -163q1 -85 1 -220q-1 -63 -1 -77q0 -10 -7 -17.5t-18 -7.5q-17 0 -23 16q-3 0 -5 1q-10 1 -16.5 9.5t-4.5 18.5q4 24 6 50q-20 -32 -57 -53.5t-80 -28.5q-50 -7 -90 8q-48 18 -69 62q-23 49 -27 134
q-2 20 -2 60q-1 30 -2 44q0 14 -3 48q-3 25 -3 40q-5 70 7 111q3 10 12 15t19 2h2q7 5 17 4q10 -2 16 -10t5 -19z" />
    <glyph glyph-name="yacute" unicode="&#xfd;" horiz-adv-x="547" 
d="M272 616q-6 -4 -13 -4l-7 -7q-11 -10 -19 -15q-7 -4 -13 -6q-12 -3 -23 3q-9 5 -12 16q-1 5 0 10q0 4 2 8q1 4 4 10l2 2q1 3 3 6q1 1 1 2h1q2 4 6 10.5t5 8.5q31 51 51 77q7 8 17 9t18 -5q5 -4 7 -9q7 6 16 6q4 0 8 -1q16 14 32 0q8 -6 9 -16.5t-5 -18.5q-15 -18 -43 -45
t-47 -41zM119 491q4 -59 28 -127q15 -42 54 -123q3 -7 4 -9q31 -66 46 -104q3 -7 5 -14q17 45 34 97q24 76 52 172q10 33 21 74q2 5 4.5 15.5t5.5 20t5 17.5l2 8q3 10 12 15t19 3q13 -4 17 -17q2 2 4 5q8 11 20 11q9 0 15 -5q10 -7 10 -20q0 -8 -4 -15q-3 -4 -6 -10
q0 -2 -1 -4q-1 -5 -5 -11q0 -1 -1 -2q-11 -28 -30 -92l-4 -14q-4 -13 -8.5 -29t-9.5 -33.5t-8 -26.5q-19 -65 -36 -114q-54 -160 -110 -246q-36 -56 -75 -86q-46 -35 -96 -35q-11 0 -18 7.5t-7 17.5v5q-14 8 -12 25q2 10 10 16t18 5q52 -7 71 16q9 11 19 27q21 32 43 81
q-1 2 -1 4q-7 51 -33 121q-15 41 -54 130q-7 16 -11 26q-29 65 -44 107q-22 59 -31 107q-2 10 3.5 19t16.5 11q14 2 24 -9q6 6 15 6q10 1 18 -6t9 -17z" />
    <glyph glyph-name="thorn" unicode="&#xfe;" horiz-adv-x="569" 
d="M142 221q5 -11 -1 -22q0 -18 -1 -34q4 -13 11 -26q25 -46 70 -74q47 -30 87 -20q49 12 80 83q37 85 17 176q-19 83 -71 127q-48 40 -95 15q-59 -31 -96 -152v-15q-1 -33 -1 -58zM269 511q48 6 90 -14q1 -1 2 -1q0 -1 1 -1q5 -2 10 -5q31 -18 55 -39q37 -31 53 -66
q15 -33 18.5 -91t-6.5 -115q-12 -64 -38 -106q-33 -53 -84 -61q-6 -2 -12 0q-17 -11 -38 -16q-61 -15 -126 26q-30 20 -55 48v-64q0 -132 8 -182q1 -2 1 -4q0 -15 -13 -22q-2 -7 -7 -11q-7 -8 -17.5 -8t-17.5 7q-2 1 -3 3q-2 -1 -4 -1q-10 0 -17.5 7.5t-7.5 17.5
q0 119 -5 359q-1 20 -1 31q-8 320 -3 493q0 11 7.5 18t18.5 7q10 -1 18 -9q8 17 26 14q10 -2 16 -10.5t5 -18.5q-2 -10 -4 -19q6 -7 7 -16q2 -90 0 -240q31 48 70 68q18 10 37 13q7 7 16 8z" />
    <glyph glyph-name="ydieresis" unicode="&#xff;" horiz-adv-x="545" 
d="M195 602q-17 1 -22 17q-1 -1 -2 -1q-6 -5 -13 -5q-12 -1 -21 7q-7 6 -9 15q-1 5 0 11q1 15 13 40q3 6 9 10q5 18 24 18q4 0 8 -1q5 2 11 2h2q10 -1 16.5 -8t6.5 -17q0 -1 -1 -2v-5q8 -7 8 -18q0 -6 -1 -13q0 -2 -1 -6v-4v-2q-1 -8 -2 -15q0 -10 -7.5 -16.5t-17.5 -6.5h-1
zM333 616l-1 1q-4 -19 -24 -19h-1q-10 0 -17 7.5t-7 17.5v1v17v26q1 15 5 28q3 10 12 15t19 2q2 0 4 -1q6 0 10 -3q7 5 14 5q2 0 3 -1q17 -2 21 -17q17 -6 17 -24q0 -10 -4 -25v-1q-3 -15 -2 -21v-4q0 -9 -6 -16t-15 -8q-2 -1 -4 -1q-9 0 -16 6t-8 15zM474 493
q-11 -22 -46 -124q-49 -141 -71 -203q-35 -95 -65 -162q-35 -82 -64 -128q-39 -61 -74 -66q-7 -2 -14 1q-7 -1 -17 -3q-7 -1 -32 -4q-4 -1 -8 -1h-3h-3q-9 0 -16 5.5t-8 14.5q-1 2 -1 5q0 9 5.5 16t14.5 8q7 2 11 2q32 4 33 4q13 2 21 4q4 1 7 2h1q23 18 54 83q7 16 15 34
q-8 49 -29 107q-15 41 -48 110q-2 5 -9 19q-41 87 -58 134q-25 68 -32 127q-4 5 -7 10q-7 8 -5.5 18t10.5 17q15 11 30 0q18 -4 20 -23v-5q42 -68 96 -222q33 -92 66 -203q19 54 41 123q19 62 55 187q30 103 41 134q3 10 12.5 14.5t18.5 0.5q10 -3 14 -11q5 7 14 9.5
t17 -1.5q10 -4 13.5 -13.5t-0.5 -19.5z" />
    <glyph glyph-name="Amacron" unicode="&#x100;" horiz-adv-x="726" 
d="M456 264q-3 11 -5 19q-4 11 -6 18q-36 123 -61 193q-27 77 -57 138q-25 -43 -48 -93q-1 -3 -2 -8v-1q-20 -62 -32 -93q-13 -32 -30 -72q-12 -39 -27 -91q48 3 137 -2q78 -3 131 -9v1zM190 810q60 18 151 18q78 1 150 -11q10 -2 16 -10.5t4 -18.5t-10 -16t-19 -4
q-67 11 -141 10q-84 0 -137 -16q-9 -3 -18.5 2t-12.5 14.5t2 19t15 12.5zM408 696q24 -87 64 -194q23 -65 74 -193l1 -1q75 -190 108 -288q3 -9 -1.5 -18.5t-14.5 -12.5t-19 1.5t-12 13.5h-2q-9 -3 -18 2t-12 14q-4 -6 -12 -9q-9 -4 -18.5 0.5t-13.5 14.5q-26 70 -60 184
q-49 8 -149 12q-110 6 -149 1q-1 -5 -3 -12.5t-3.5 -12t-1.5 -5.5q-33 -118 -53 -180q-4 -10 -13 -14.5t-19 -1.5t-14 12q-7 -5 -15 -5q-5 0 -9 1q-16 6 -16 24q0 4 1 8q2 6 4 11v2v3v2t1 1v2t0.5 1.5t0.5 1.5q1 1 1 2q1 3 2 5q2 6 3 8q1 1 1 2q2 3 3 5q1 0 1 1
q22 56 90 219q0 1 1 1q22 53 32 78q16 52 33 96q15 42 31 79q13 41 22 65q16 43 35 75q11 18 30 10q9 4 18 0q3 5 7 7q6 5 14 5q10 0 17 -6h2q10 3 19 -2t12 -15z" />
    <glyph glyph-name="amacron" unicode="&#x101;" horiz-adv-x="593" 
d="M372 327q0 7 -1 15q0 12 9 20q-2 12 -5 24q-12 58 -32 82q-4 5 -9 9q-4 2 -8 3q-38 10 -97 -10q-6 -2 -11 -1q-2 -1 -3 -1q-19 -12 -32 -29q-17 -23 -30 -68q-3 -10 -12 -15t-19 -3q-8 -6 -17 -5q-10 0 -17 7.5t-7 18.5q1 38 31.5 75t77.5 62q16 9 34 17q5 2 11 2
q31 10 60 9q36 0 62 -17q37 -16 61 -54q23 -37 35 -99q8 -41 14 -112q1 -10 2 -32q5 -68 10 -98q7 -47 19 -71q2 -5 3 -10l1 -1q11 -2 17 -10t4 -18.5t-10.5 -16.5t-18.5 -4q-30 5 -50 33q-15 22 -25 59q-1 4 -2 9q-4 -3 -8 -7q-14 -11 -36 -24l-39 -22q-83 -47 -150 -44
q-64 2 -98 46q-33 41 -24 97.5t54 99.5q25 23 69 40q34 13 82 24q25 6 64 13l6 1q6 1 12.5 2t9.5 2q7 1 13 2zM129 657q46 6 118 2q11 0 31 -1q46 -3 69 -4q36 0 64 3q11 1 19 -5t9.5 -16.5t-5 -18.5t-16.5 -9q-32 -4 -72 -4q-24 1 -71 4q-20 1 -30 2q-68 3 -109 -2
q-11 -2 -19 4.5t-9.5 16.5t5 18.5t16.5 9.5zM170 214q-21 -25 -20.5 -73.5t22.5 -76.5q5 -6 5 -14h9q52 -2 123 38l3 2q4 1 8.5 3.5t10 5.5t10 5.5t7.5 4.5q24 14 35 26q-8 7 -8 18q0 53 -2 124q-2 -1 -5 -1q-3 -1 -9.5 -2t-12.5 -2l-6 -1q-38 -7 -62 -13q-67 -15 -102 -34
q-2 -6 -6 -10z" />
    <glyph glyph-name="Abreve" unicode="&#x102;" horiz-adv-x="728" 
d="M245 901q43 -46 84 -53q39 3 73 22t47 45q4 9 14 12.5t19 -1.5t13 -14q0 -1 1 -2q7 -7 7 -17.5t-7 -17.5q-75 -75 -145 -78q-12 -1 -24 1h-2q-55 -3 -91 21q-44 29 -39 86q1 10 8.5 16.5t18 6t17 -8.5t6.5 -18zM378 516q-26 61 -52 116q-7 -21 -17 -55q-1 -4 -1 -11
q-1 -6 -2 -9q-1 -11 -9 -18q-33 -102 -51 -155q-21 -64 -40 -115q27 -1 89 -5h15q78 -4 114 -4h8q-6 30 -18 91q-5 23 -6 32q-17 84 -30 133zM388 711q58 -110 126 -322q5 -14 27 -85t27 -85q15 -46 27 -81q5 -16 27 -46l1 -2l1 -2q13 -18 19 -28q10 -18 14 -34
q3 -10 -2 -19t-15 -11.5t-19 2.5t-12 15q-1 2 -2 5q-2 -5 -5 -9q-17 -16 -36 -3q-6 4 -10 11q-4 -5 -11 -7q-9 -4 -18.5 1t-12.5 14q-7 22 -25 59q-21 43 -29 69.5t-16 56.5h-20q-37 0 -116 4q-6 0 -16 1q-77 3 -104 4q-30 -78 -57 -133q-14 -28 -27 -50q-7 -12 -20 -12
q-1 -1 -2 -3v-1h-1q-5 -17 -23 -17q-4 0 -8 1q-17 6 -17 24q0 4 1 8q17 51 18 53q1 1 1 2q102 282 233 597q3 8 10 12q1 3 2 5q3 10 12.5 14.5t19.5 1.5l6 -4q6 0 10 -2q4 4 9 7q9 5 19 1.5t14 -12.5z" />
    <glyph glyph-name="abreve" unicode="&#x103;" horiz-adv-x="610" 
d="M154 736q16 -2 21 -17q23 -65 84 -66q14 3 29 9q55 23 81 66q5 9 15 11.5t19 -2.5q5 -4 8 -9q17 -14 6 -32q-24 -41 -64 -66t-84 -27h-6q-54 -9 -95 19q-13 8 -24 25q-6 9 -14 27l-2 5q-3 5 -3 7q-6 13 -10 18q-6 9 -4.5 19t10.5 16q7 6 16.5 5t16.5 -8zM402 76
q-1 -1 -2 -1q-18 -20 -40 -37q-62 -48 -133 -61q-80 -16 -129 22q-56 44 -48 144q7 81 80 117q27 14 67 23q25 6 72 13q2 0 6 1q46 6 67 11q29 6 48 15q-3 39 -17 67q-29 56 -114 81q-5 1 -9 5l-10 -4q-10 -4 -20 -9q-52 -46 -60 -93q-2 -11 -10.5 -17t-18.5 -4q-4 1 -7 2
q-10 -8 -22 -5q-10 2 -15.5 11t-3.5 19q10 38 39 72t69 56l1 1q4 4 10 5q10 5 20 9q54 22 106 13t86 -49q33 -40 40 -102q5 -40 -1 -110q-1 -7 -2 -20q-5 -51 -5 -73v-7q5 -9 1 -19q0 -1 -1 -3q2 -18 5 -32q13 -54 71 -71q10 -2 15.5 -11.5t2.5 -19.5t-12 -15t-19 -2
q-28 8 -49 22q-5 1 -10 4q-32 19 -48 52zM175 220q-31 -39 -35.5 -86t18.5 -90q1 -1 1 -2q17 2 25 -12q2 -4 3 -8q14 0 31 4q42 8 83.5 33t68.5 57q4 15 5 36q1 17 0 54v1v46q1 6 1 12q-11 -3 -23 -6q-23 -5 -70 -12q-5 -1 -7 -1q-45 -6 -68 -12q-16 -3 -29 -7q-1 -4 -4 -7z
" />
    <glyph glyph-name="Aogonek" unicode="&#x104;" horiz-adv-x="726" 
d="M445 274q-26 80 -62 173q-34 90 -60 149q-50 -126 -102 -283l-8 -24q30 0 71 -4q20 -2 53 -7q51 -7 70 -9q14 -1 38 5zM372 714q35 -15 71 -96q32 -71 75 -214q10 -34 24 -83q1 -1 10 -34.5t12 -41.5q23 -82 34 -110q5 -12 19 -32l2 -4l1 -1q2 -2 2 -3q23 -32 30 -55
q4 -10 -1 -19t-15 -12q-4 -2 -9 -2q-2 -2 -4 -3q-17 -16 -32 -35q-23 -73 -6 -144q13 9 29 25q7 7 17.5 7t17.5 -7.5t7 -17.5t-7 -18q-57 -57 -101 -52q-25 3 -40 23q-13 17 -16 43q-5 47 19 104q14 32 35 61q0 1 1 1q0 2 1 4q-4 1 -8 3t-7 6q-3 3 -5 8q-1 3 -2 8q-1 3 -2 9
q0 1 -0.5 5t-1.5 5q-1 7 -2 11v3q-16 27 -27 60q-8 21 -18 61q-9 32 -13 47q-1 1 -1 2h-1q-17 -4 -26 -5q-17 -3 -32 -1q-20 1 -72 9q-32 4 -51 6q-49 5 -82 4q-37 -113 -54 -182v-4q-3 -12 -3 -16q-1 -2 -1 -4q0 -5 -3 -9q0 -2 -1 -3q-6 -16 -24 -16h-5q-8 2 -14 8l-4 -14
q-3 -10 -12.5 -14.5t-19.5 -1.5t-14.5 12.5t-1.5 19.5q20 61 69 176q1 3 1 4q14 32 22 53q-2 3 -2 7q-2 10 3 18t14 11q16 41 29 79q7 22 20 59q2 7 5 16q0 1 1 4t2.5 7t1.5 6q6 20 11 33q4 14 8 27q35 105 54 150q0 1 1 3q0 1 0.5 2.5t1.5 3.5l3 6q3 6 10.5 18.5t21.5 12.5
q6 0 11 -2q4 4 10 6q9 3 18 0q8 2 16 -1z" />
    <glyph glyph-name="aogonek" unicode="&#x105;" horiz-adv-x="607" 
d="M361 117q-1 1 -1 3v47q-1 24 -1 36q0 40 2 68l-8 -4q-1 0 -1 -1q-37 -20 -59 -26q-19 -6 -41 -9q-12 -2 -36 -3q-36 -2 -52 -7q-3 0 -7 -2q-16 -46 -11 -87q5 -37 30 -87q26 -6 57 1q60 13 128 71zM518 -3q-61 -50 -74 -89q-8 -24 5 -41q12 -16 35 -21q5 -2 10 -2
q4 2 8 3q5 3 11 3q7 0 13 -4q12 -7 12 -21q0 -7 -4 -13q-4 -7 -7 -11q-1 -2 -2 -3.5t-2 -2.5q-3 -3 -7 -5q-7 -3 -14 -2h-3q-15 -4 -32 -4q-42 1 -70 26q-36 32 -25 85q12 52 71 117q-19 16 -30 50q-4 13 -8 27q-83 -75 -161 -92q-81 -18 -139 28q-53 41 -59 107.5t42 105.5
q29 23 63 32q21 5 61 8q44 3 67 9q17 6 49 23v1q36 19 57 26q-2 25 -4 44q-3 21 -6 34q-2 5 -4 9q-1 2 -1 3q-22 24 -51 37l-14 4q-20 5 -46 1.5t-40 -13.5q-10 -8 -21 -4q-43 -34 -43 -77q0 -11 -7.5 -18t-17.5 -7q-9 0 -15 5q-4 -9 -12 -13.5t-17 -2.5q-10 3 -15.5 11.5
t-3.5 18.5q10 48 39 84t67 53.5t82 20t84 -16.5q76 -29 110 -110q27 -65 28 -177q0 -34 -2 -97q-3 -54 -3 -73q3 -3 6 -5q2 -2 6 -1q6 0 15 5t19 2.5t15 -11.5q4 -8 2.5 -17.5t-9.5 -14.5q-1 -9 -8 -14z" />
    <glyph glyph-name="Cacute" unicode="&#x106;" horiz-adv-x="779" 
d="M465 886.5q-4 -3.5 -7 -5.5l-3 -3l-2 -2t-1 -2l-4 -4q-5 -4 -12 -8l-4 -2q-44 -38 -71 -68q-7 -8 -18 -8q-10 0 -17 6q-8 8 -8 19q0 10 6 17q15 17 34 49l2 2q1 2 1 3q1 1 3 5v1q19 32 32 48q6 9 16.5 10t18.5 -5q5 -4 7 -10l6 4q6 5 14 5q13 0 21 -11q4 -6 4 -14
q0 -13 -10 -21q-4 -2 -8 -5.5zM570 498q-7 17 -18 51l-1 2v1q0 2 -1 3q-13 41 -22 58q-1 0 -1 1q-4 3 -7 7q-19 12 -32 13q-4 0 -8 2h-5q-6 1 -20 1q-10 1 -15 1q-107 8 -175 -30q-61 -35 -88 -102q-25 -66 -14.5 -152t54.5 -173q2 -5 9 -24q1 -1 1.5 -3t1.5 -4.5t1.5 -4.5
t1.5 -3l1 -2q4 -11 7 -19q2 -5 3 -10q6 -14 10 -23q54 -30 118 -32q68 -1 121 31q57 34 80 99q1 4 3 8q1 1 2 4t1 4q3 5 4 9q2 5 2 8v1q-3 9 1 18t13 13t18.5 0t14.5 -13q0 -2 1 -4q2 9 10 15t18 5h1q5 9 14.5 13t19 -0.5t13 -14t-0.5 -19.5q-73 -160 -181 -222
q-120 -69 -252 2q-4 -1 -8 -1q-9 0 -18 5q-11 4 -26 16q-3 3 -8 7q-2 2 -7.5 7t-6.5 5q-6 5 -8 6q-61 39 -93 129q-29 80 -27 177q2 99 36 176q37 86 103 119l8 6q80 53 183 42q7 0 20 -1h1q38 -3 58 -8q35 -9 59 -29q10 -5 17 -13q21 -14 40 -34q56 -59 56 -110
q0 -10 -7.5 -17.5t-17.5 -7.5q-9 0 -16 5q-4 -4 -9 -6q-9 -5 -19 -1t-14 13z" />
    <glyph glyph-name="cacute" unicode="&#x107;" horiz-adv-x="548" 
d="M311 728q6 8 13 16q6 9 16.5 10t18.5 -5.5t9.5 -17t-5.5 -18.5q-22 -27 -67 -76l-2 -2q-35 -39 -52 -60q-7 -8 -17.5 -8.5t-18.5 5.5q-14 12 -6 30q-3 6 -3 12q0 8 4 14q6 9 18 29q2 3 6 8q4 7 5 9q7 12 12 19q3 4 5 8q12 18 20 31q6 8 16 10t19 -3q6 -4 9 -11zM404 348
q-11 11 -31 43v1q-11 17 -15 24q-4 5 -6 8q-2 1 -2 2l-1 1q-74 49 -131 38q-28 -14 -50.5 -63.5t-30.5 -118.5q-9 -69 0 -123q4 -25 11 -41q3 -6 6 -10q2 -3 3 -3q9 -5 12 -14q34 -25 80 -25q32 0 54 3q31 4 40 11q12 9 21 23q7 9 17 30q1 2 2 3q1 2 1 3q13 25 24 39
q6 8 16 10t19 -4q9 5 18.5 1.5t14.5 -13t1 -18.5q-38 -116 -145 -142q-94 -24 -197 30q-16 8 -14 25q-24 23 -40 56q-46 91 -24 205q10 56 36.5 99.5t65.5 66.5q21 12 44 18l8 2q6 2 12 1q9 1 19 1q7 13 22 13q76 0 127 -35q60 -40 72 -116q2 -11 -4.5 -19t-16.5 -10h-3v-1
q-7 -7 -17.5 -7.5t-17.5 6.5z" />
    <glyph glyph-name="Ccircumflex" unicode="&#x108;" horiz-adv-x="739" 
d="M387 880q-9 -6 -26 -33q-12 -21 -23 -34q-3 -4 -6 -7q-7 -8 -19 -8q-5 0 -11 2q-2 -2 -3 -4l-6 -6l-3 -3q-5 -4 -11 -5q-12 -3 -21.5 4t-9.5 19q0 5 2 11q1 3 3 7q6 10 21 33q39 57 51 70q7 7 16.5 8t17.5 -5q5 3 12 3q5 0 10 -2q26 4 46 -20q11 -1 24 -11q9 -6 18 -16
q19 -20 34 -44q19 -30 19 -49q0 -11 -7.5 -18t-17.5 -7q-17 0 -24 15q-6 -11 -19 -13h-3q-9 0 -16.5 6t-8.5 15v3q-2 10 -13 32q-9 19 -13 30q-2 6 -3 12q-1 1 -2 3q-2 4 -5 8q-1 2 -3 4zM204 570q-13 -27 -15.5 -106t6.5 -173q8 -92 23 -153q0 -1 1 -2v-1q43 -42 84 -61
q6 2 12 1h14q13 9 27 1q45 5 82 35q22 18 45 48q15 20 40 59q1 1 4.5 6.5t4.5 6.5q9 14 15 23q5 8 15.5 10t18.5 -3q7 -5 10 -12q13 3 22 -7q3 -2 4 -5q3 5 6 9q5 9 15 11.5t19 -2.5t11.5 -15t-3.5 -19q-75 -127 -162 -179q-81 -49 -171 -33q-26 -15 -60 -7q-41 10 -90 54
q-39 35 -73 82.5t-43 76.5q-15 56 -4 133q1 10 3 21q4 31 17 74q10 37 21 64q24 100 93 150q21 15 63 30q1 0 3 1l2 1q25 8 37 14q128 64 227 10q90 -48 139 -183q3 -10 -1.5 -19.5t-13.5 -12.5q-4 -2 -8 -2q-3 -7 -9 -12q-13 -9 -27 -1q-9 -7 -20 -6q-11 2 -17 10t-5 19
q3 14 -1 31q-41 48 -82 73q-69 43 -152 23q-86 -21 -125 -55q0 -4 -2 -8z" />
    <glyph glyph-name="ccircumflex" unicode="&#x109;" horiz-adv-x="559" 
d="M315 730q24 -12 44 -34q12 -13 31 -40v-1q1 -1 1 -2q19 -27 30 -39q8 -7 8 -17.5t-7.5 -17.5t-18 -7t-17.5 7l-5 5q-9 -4 -18 -1q-16 5 -17 22q-2 2 -4 6q-3 4 -7 9q-6 4 -11 9t-11 10q-9 9 -22 23q0 1 -6.5 7.5t-7.5 8.5h-1l-4 -10q-1 -7 -5 -13l-2 -2q-3 -6 -6 -14
q-4 -9 -5 -9q-1 -4 -2 -6q-1 -1 -3 -4q-1 -2 -2 -3l-1 -1v-1q-1 0 -2 -1v-2q-7 -12 -22 -12q-6 0 -12 3q-3 2 -5 4q-3 -5 -6 -9l-10 -12q-8 -9 -19 -9q-10 0 -17 6q-8 8 -8 19q0 10 6 17q4 4 9 11q9 11 17 24q3 4 11 17t9 15q17 27 36 40l4 2q2 3 4 5q7 4 13 6q12 2 21 -5
q11 2 20 -4q10 4 20 0zM266 80h3q62 10 80 22q8 5 12 19q0 1 1 3v3q1 4 2 7l6 16q8 19 22 37q7 8 17 9.5t18 -5.5q6 -4 9 -11q8 10 22 8q10 -1 16.5 -9.5t4.5 -18.5q-3 -24 -19 -48q-10 -15 -30 -36v-1q-8 -9 -10 -11q-6 -6 -10 -11q-1 -1 -2 -3q-5 -5 -11 -7
q-13 -12 -28 -20q-55 -29 -130 -10q-68 17 -122 65q-58 52 -71 116q-18 89 28 172q41 75 116 114q28 15 58 21q38 16 74 17q52 1 87 -30q14 -13 26 -30q8 -11 20 -31q5 -9 7 -12q12 -19 22 -31q6 -7 5.5 -17.5t-8.5 -17.5q-14 -12 -30 -2q-3 -4 -9 -6q-9 -3 -18.5 1
t-13.5 14q-28 75 -85 94q-29 9 -63 3q-4 -2 -9 -4q-35 -18 -61.5 -45t-32.5 -52q-13 -57 -5 -130q2 -17 9 -60q4 -28 6 -46q1 -7 -2 -13q36 -28 79 -40q5 14 20 17z" />
    <glyph glyph-name="Cdotaccent" unicode="&#x10a;" horiz-adv-x="763" 
d="M421 851q16 -14 5 -32q-5 -9 -15 -11.5t-19 2.5q-11 6 -16 17q-4 -8 -6 -14q-5 -18 -24 -18q-3 0 -6 1q-19 5 -19 24q0 3 1 7q3 11 3 37v10q1 18 3 31q2 11 10.5 16.5t18.5 3.5q16 -2 20 -18l2 2v1q2 9 9 14.5t16 5.5q2 0 4 -1q9 -1 15 -8t6 -16q0 -3 -1 -5q0 -3 -2 -9
q-1 -6 -2 -10q-1 -8 -2 -14q-2 -11 -1 -16zM284 74q5 -2 13 -6q1 -1 6 -4q59 -2 90 -2q10 4 21 6h1q59 10 86 36q19 17 37 61l2 5q2 4 4 9t3 7q5 13 10 23q13 27 28 48q6 9 16.5 10.5t18.5 -4.5q4 -2 6 -6q5 3 12 3q6 0 12 -3q15 16 32 4q9 -6 11 -16t-4 -19
q-58 -87 -84 -119q-39 -47 -77 -68q-33 -17 -78 -23q-49 -19 -89 -21q-2 -1 -6 -2q-18 -6 -33 -7q-35 -1 -65 15q-18 10 -45 34q-1 1 -6 5v1q-14 13 -22 19q-5 3 -9 7q-16 2 -20 18q-47 45 -75 107t-33 131q-6 82 21.5 156t84.5 129q25 23 60 41q22 12 63 28l4 2h1l1 1h1h1
l1 1q21 8 31 13q36 15 76 16q16 5 40 3q47 -3 99 -25q60 -25 96 -66q46 -51 42 -116q-1 -10 -8.5 -17t-18.5 -6q-4 0 -8 2q-3 -3 -6 -4q-9 -5 -19 -2t-14 12q-13 24 -33 45q-14 14 -42 38l-4 3q-18 15 -26 22h-1l-6 2h-2q-4 1 -6.5 2t-4.5 1l-6 4q-4 3 -6 7q-6 9 -3 20
q-2 3 -5 6q-13 17 -44 19q-9 -11 -23 -10q-8 1 -14 7q-18 -3 -33 -9q-11 -5 -33 -14h-2q-2 -1 -2 -2q-3 -1 -5 -1q-2 -1 -5 -3q-4 -11 -16 -15q-30 -9 -54.5 -55.5t-40.5 -120.5q-12 -59 -16.5 -125t0.5 -106q16 -47 36 -80q30 -47 62 -53q12 7 24 1z" />
    <glyph glyph-name="cdotaccent" unicode="&#x10b;" horiz-adv-x="554" 
d="M286 612q-3 0 -5 1q-6 1 -11 5q-6 -16 -23 -16h-3q-10 1 -16 8.5t-6 16.5v3q4 29 4 44v6q-8 11 -3 26q1 3 6 12q4 9 14 12t19 -2q11 -5 13 -17q7 13 22 13q5 0 9 -2q16 -6 16 -23q0 -5 -1 -9q-8 -21 -11 -33h-1q7 -4 12 -10q7 -8 5.5 -18.5t-9.5 -16.5q-15 -13 -31 0z
M484 174q-2 -57 -52 -103q-21 -19 -50 -36q-15 -12 -32 -21q-70 -36 -157 -7q-85 27 -135 98q-57 80 -41 178q19 124 94 191q66 60 153 61q83 2 139 -45q62 -52 50 -129q-2 -11 -10.5 -17t-18.5 -4t-16 11q-7 -8 -17 -9q-10 0 -18 6.5t-9 16.5q-6 78 -57 96q-53 17 -121 -34
q-6 -4 -14 -4q-13 -16 -24 -38q-23 -60 -32 -123q-9 -66 2 -110q2 -3 5 -6l1 -1l2 -2q14 -17 19 -31q1 -5 0 -9q1 0 1 -1q9 -8 37 -15q3 -1 7 -2l2 -1h4q18 -5 28 -8q48 -18 82 -16q25 19 42 55t14 64q-1 10 5.5 18t17.5 10q10 1 17.5 -5.5t9.5 -16.5q7 3 14 2q5 -1 10 -4
q6 18 24 17q11 0 18 -7.5t6 -18.5z" />
    <glyph glyph-name="Ccaron" unicode="&#x10c;" horiz-adv-x="750" 
d="M413 807q-5 -3 -11 -4q-7 -6 -16 -6h-4q-8 1 -13 7q-14 -15 -33 -8q-9 4 -17.5 14t-18.5 30q-5 5 -11 10l-34 28q-8 6 -13 10l-3 3q-9 6 -11.5 16t3 19t15.5 11t19 -3q2 -1 7 -5q4 6 11 9q5 2 10 2q15 0 22 -14q0 -1 1 -2q3 -3 9 -8q5 -5 14 -11q1 -1 4.5 -4t7.5 -6l4 -3
q6 -5 7 -5q10 -9 17 -15q23 44 43 61q7 7 16 7q12 0 19 -9q2 2 3 2q5 4 10 5q12 2 21 -6t9 -20q0 -5 -3 -11q-2 -4 -7 -10q-8 -11 -22 -27q-38 -44 -55 -57zM295 631q-54 -30 -87.5 -86t-45.5 -132q-11 -68 -1.5 -139t35.5 -128q3 -8 15 -16q1 0 3 -1l2 -2q2 -1 3 -2
q21 -6 54 -23h1l1.5 -1.5l0.5 -0.5h1q3 -2 5 -3q11 -5 18 -9q10 3 20 7t19.5 -0.5t12.5 -14.5h1q28 5 57 16q65 25 114 68q45 39 50 67q1 9 8 15t16 6h5q13 -2 18 -14q2 2 3 4q6 9 16 11t19 -4q3 -2 5 -4q17 -6 17 -24q0 -40 -34 -82q-27 -34 -72 -64q-50 -32 -100 -47
q-77 -33 -174 -19q-15 3 -30 9q-9 3 -24 11h-1q-2 1 -5 2q-56 3 -97 40q-62 56 -76 173q-9 76 6 157q-1 13 1 26q10 109 93 188q75 72 178 93q106 21 187 -25q16 -9 30 -21q14 -9 27 -19q65 -51 74 -131q2 -10 -4.5 -18t-17.5 -9q-7 -1 -13 2q-4 -2 -7 -2q-12 -2 -21 6
q-14 -2 -23 9q-12 15 -20 35q-5 12 -11 33q0 1 -1 3q-10 34 -19 47q-5 7 -26 15q-23 9 -54 14t-58 4q-24 -1 -32 -5q-17 -10 -30 5q-11 -3 -21 -7q-3 -9 -11 -13z" />
    <glyph glyph-name="ccaron" unicode="&#x10d;" horiz-adv-x="545" 
d="M394 697q-4 -5 -9 -11q-2 -4 -13 -19.5t-12 -17.5q-5 -7 -9 -12q-12 -17 -21.5 -28.5t-17.5 -16.5q-18 -10 -33 4q-16 -8 -31 -6h-4q-8 0 -15 5v1h-1h-1l-2 2l-2 2q-9 9 -15 19q-3 5 -4 9q-2 2 -4 5v2q-14 1 -20 13q0 1 -1 2q-2 3 -6 7q-8 9 -19 19q-12 10 -21 17
q-4 3 -6 5q-18 5 -18 24v3q2 10 9 16t16 6q2 0 4 -1q9 -1 19 -4q3 -1 4 -2q4 -1 8 -3q1 1 3 1q7 1 13 -2q6 -2 11 -8q3 -2 5 -6q4 -5 11 -13v-1q6 -3 10 -9q11 -19 17 -32q2 -2 4 -7q3 -2 7 -4q7 -5 10 -13q2 1 5 3q16 13 28 36v1q9 21 19 42q7 14 22 14q6 0 11 -2
q6 -3 10 -8l2 2v1q2 2 3 4l6 6q8 8 19 8q10 0 17 -7q8 -7 8 -18q0 -3 -1 -7q0 -1 -1 -2q-2 -14 -14 -19zM248 66q34 3 55 17q13 9 33 34q0 1 2 3l2 3q3 3 5 6q27 34 55 50q15 9 28 -1q2 -1 4 -1q11 -2 17 -10t4 -19q-15 -86 -80 -126q-58 -35 -134 -19q-73 15 -127 70
q-58 61 -66 146q-10 92 36 177q20 36 48 66q8 10 20 19q22 19 46 32q63 32 121 16q57 -1 86 -26q24 -20 46 -66q19 -39 26 -72q3 -10 -3 -18.5t-16 -10.5q-9 -2 -18 3q-3 -2 -6 -3q-10 -3 -19 2t-12 15q-26 95 -81 122l-10 4q-24 0 -49 -5q-36 -7 -64 -22q-1 -1 -1 -2
q-56 -56 -71 -162q-15 -109 26 -176q3 -5 3 -10q33 -32 76 -45q7 8 18 9z" />
    <glyph glyph-name="Dcaron" unicode="&#x10e;" horiz-adv-x="732" 
d="M493 877q-34 -48 -69 -82q-6 -5 -11.5 -7.5t-10.5 -2.5q-9 -8 -18 -13q-5 -3 -10 -4q-16 -3 -31 5q-7 4 -14 12v-1q-4 -1 -8 -1q-18 0 -24 17q0 1 -2 3q-2 4 -5 8q-6 8 -17 19q-3 4 -7 7q-16 17 -20 21q-12 12 -17 19q-6 9 -4 19t10 16q18 12 32 -2h1q14 12 31 9.5
t27 -18.5q4 -6 11 -23l2 -6q2 -5 3 -7q3 -8 6 -14q9 -21 16 -30q1 -1 1 -2q0 1 1 1q3 3 7 9q7 9 15 24q2 5 5 12q1 3 3 6q4 9 9 20l4 8l2 4l1 1v1q7 15 23 15q5 0 10.5 -2.5t8.5 -7.5l3 3q1 2 2 3q7 12 21 12q7 0 13 -4q12 -7 12 -21q0 -7 -4 -13q-5 -10 -8 -12v-1zM332 667
h-5q-39 0 -129 -7q-4 -1 -7 -1q-2 -37 1 -262v-37q2 -144 1 -212q0 -47 -1 -74q0 -8 -1 -14q12 1 26 3q12 2 25 5l42 9l32.5 6.5l42.5 8.5t22 4q54 11 82 22.5t45 30.5q34 38 45 140q-1 11 -2 23q0 19 2 54q-1 10 -3 22q-1 7 -3 20q-7 40 -9 59q-7 82 -37 129q-2 3 -5 7
l-2 2q-75 47 -140 49q-15 0 -22 13zM385 31q-68 -18 -162 -28q-22 -2 -51 4q-8 1 -14 3q-7 1 -12 4q-4 1 -6 3q-17 -10 -31 4q-6 -8 -17 -9h-2q-10 0 -17 6.5t-8 15.5q-4 32 -3 37q0 3 1 6q1 20 3 47q2 32 10 120q2 15 3 26q9 92 10 141q1 42 -5 125q-1 7 -1 10
q-6 77 -5 119q-3 5 -3 12q-1 9 5 16v6q1 10 9 17t18 6q17 -2 22 -18q1 1 2 1q7 6 16 7t17 -5q12 1 30 3q92 7 133 7q73 0 122 -18q50 -19 82 -59q85 -58 103 -129q4 -16 5 -34q23 -50 23 -111q1 -85 -37 -165q-38 -82 -102 -128q-65 -47 -138 -42z" />
    <glyph glyph-name="dcaron" unicode="&#x10f;" horiz-adv-x="714" 
d="M644 856q-1 -11 -2 -44q0 -34 -1 -52q-3 -44 -14 -73q-14 -42 -46 -61q-9 -5 -19 -2.5t-15 11.5t-2.5 19t11.5 15q30 18 35 94v12h-4q-3 -5 -5 -10q-5 -18 -24 -18q-3 0 -6 1q-19 5 -19 24q0 3 1 6q5 17 -2 55q-1 9 -2 13q-2 10 4.5 18.5t16.5 10.5q7 1 14 -2q4 1 9 2h2
q6 0 12 -3q6 3 13 4q7 8 18 8h3q10 -1 16 -8.5t6 -16.5v-3zM485 689q-9 -52 -2 -130q1 -13 4 -41q5 -47 6 -72q5 -89 5 -219q0 -29 -1 -88q-1 -82 -1 -122q0 -11 -7.5 -18t-17.5 -7q-12 0 -20 10q-9 -8 -21 -6q-10 2 -16 10t-4 19q6 33 8 70q-39 -57 -88 -85
q-54 -29 -103 -25.5t-88 39.5q-67 60 -84 182q-16 118 27 209q25 51 66 79.5t95 28.5q53 0 89.5 -14t71.5 -47q-3 43 -4 80q-3 91 5 162q1 11 9.5 17.5t18.5 4.5q11 -1 17 -10q7 3 14 2q10 -2 16 -10t5 -19zM205 457q-38 -46 -52 -89q-6 -21 -10.5 -72.5t-2.5 -100.5
q2 -59 12 -96q10 -34 23 -38q3 -2 6 -3q17 5 27 -8q5 -6 6 -13q41 -11 92 17q33 19 62.5 58t44.5 83q2 7 7 11q0 38 -3 84q-3 18 -4 21q-3 18 -6 31q-12 58 -34 80q-29 28 -57 39.5t-73 11.5q-17 0 -32 -4q-2 -7 -6 -12z" />
    <glyph glyph-name="Dcroat" unicode="&#x110;" horiz-adv-x="727" 
d="M485 609q-14 9 -28 15q-5 2 -11 5q-1 0 -6.5 2.5t-7.5 3.5q-7 3 -12 5q-25 11 -45 8q-10 -2 -18 3.5t-10 14.5q-33 0 -92 -4q-2 0 -6 -0.5t-7 -0.5q-32 -2 -52 -4q0 -95 3 -246l45 -3q66 -5 96 -5q11 0 18 -7t7 -17.5t-7 -18t-18 -7.5q-32 0 -100 5q-27 2 -40 2v-15
q1 -25 1 -38q3 -139 3 -220q8 -1 14 -6q11 -10 7 -25q10 -2 24 -4q23 -2 51 -1q11 1 20 2q4 0 6 1q3 6 8 10q14 11 28 2q106 38 152 94q54 66 60 204q2 44 -16 111q-1 6 -5 21q-8 26 -11 41q-1 2 -1 4q-22 33 -50 68zM119 706q37 -1 120 5q8 0 12 1q65 4 102 4q57 -2 98 -14
q80 -25 115 -99q32 -39 50 -91l10 -32q30 -71 31 -139q2 -148 -146 -296q-9 -9 -21 -7q-45 -26 -94 -21q-1 1 -12 -2h-5q-14 -3 -23 -2q-8 -3 -18 -6q-12 -4 -42.5 -5.5t-57.5 1.5q-31 3 -47 10q-8 -7 -18 -7t-17 8q-5 -2 -10 -2h-3q-4 1 -8 3q-7 -5 -15 -5q-10 0 -17.5 7.5
t-7.5 17.5q0 86 -9 259q-3 45 -4 66q-29 -3 -54 -9q-10 -3 -19 2t-12 15t2.5 19t15.5 12q30 8 65 11q-8 163 0 276q1 10 8.5 17t18.5 6q5 0 9 -3h3z" />
    <glyph glyph-name="dcroat" unicode="&#x111;" horiz-adv-x="663" 
d="M391 387q-33 71 -88 88q-32 10 -65 1q-2 -17 -18 -22q-28 -8 -50 -22q-27 -30 -41 -72q-25 -78 3 -170q15 -50 47 -78t75 -30q40 -3 79.5 15t71.5 53q-4 14 6 24v26q2 71 2 107q1 35 1 65q-16 0 -23 15zM274 647q23 -2 56 0q20 1 62 5q6 1 9 1q-2 20 -5 41q-1 10 5 18
t17 10q12 1 20 -7q6 6 15 8q10 1 18.5 -5t9.5 -16q3 -21 5 -44h7q48 0 82 -10q10 -3 15 -12t2.5 -19t-11.5 -15t-19 -2q-29 8 -69 8h-3q1 -24 0 -51q0 -59 -5 -156q-1 -14 -3 -37q-7 -128 -8 -185q0 -93 14 -149q2 -10 -3 -19t-15 -11q-9 -2 -17 1q-7 -9 -19 -9q-11 0 -18 7
t-7 18v69q-50 -40 -108 -51q-2 -10 -11 -15q-38 -22 -75.5 -17t-71.5 35q-60 52 -84 150q-25 101 6 185q22 61 72 97q19 19 40 32q69 44 141 21q56 -18 95 -74q-1 84 -7 154q-3 0 -9 -1q-43 -4 -64 -5q-37 -2 -63 0q-11 1 -17.5 9t-5.5 18.5t8.5 17t18.5 5.5z" />
    <glyph glyph-name="Emacron" unicode="&#x112;" horiz-adv-x="672" 
d="M215 834q65 12 142 13q97 1 146 -21q9 -4 13 -13.5t0 -19t-14 -13.5t-19 1q-39 17 -126 16q-71 -1 -133 -13q-10 -2 -18.5 4t-10.5 16t4 19t16 11zM102 78v3v13v13v5q1 0 1 1q-3 93 -10 223q-16 4 -18 20q-3 20 15 27q-9 167 -19 277q-2 20 17 26q6 10 18 12q84 13 224 9
q12 0 35 -1q71 -2 106 -2q58 0 104 4q10 1 18 -5.5t9 -17t-5.5 -18.5t-16.5 -9q-48 -4 -109 -4q-36 0 -108 2q-23 1 -34 1q-89 2 -144 -1q3 -69 0 -215q-1 -33 -1 -49h16q39 0 103 -3q6 0 18 -1q76 -3 113 -3q62 0 109 8q11 2 19 -4t10 -16.5t-4 -19t-16 -9.5
q-52 -9 -117 -9q-39 0 -117 4h-17q-63 3 -101 3h-16q-1 -70 2 -123q3 -86 14 -154q62 0 187 -2h5q118 -2 180 -2q10 0 17.5 -7.5t7.5 -17.5t-7.5 -17.5t-17.5 -7.5q-62 0 -181 2h-5q-193 3 -290 1q-11 -1 -18.5 6.5t-7.5 17.5t7 17.5t17 8.5h10v4q-1 0 -1 1q-1 3 -1 4v5z
" />
    <glyph glyph-name="emacron" unicode="&#x113;" horiz-adv-x="582" 
d="M163 95q2 -3 5 -8v-1h1v-1q7 -11 11 -13q73 -34 139.5 -5t88.5 104q3 10 12 15t19 2q16 -4 18 -21q13 0 21 -10q6 -8 5 -18t-9 -17q-9 -7 -23 -30v-1q-10 -18 -17 -26q-12 -16 -26 -25q-106 -65 -205 -38q-89 24 -139 110q-49 85 -33 181q17 105 107 175q67 52 148 43
q67 -8 129 -56q55 -42 81 -96q14 -28 16 -51q2 -30 -13 -50q-6 -8 -17 -11q-6 -2 -13 -3h-8q-7 0 -16 2q-4 0 -10 1q-14 3 -15 3q-144 0 -282 -8v-3q3 -24 12 -67q10 -50 13 -71v-6zM126 644q174 -8 314 -8q10 0 17.5 -7t7.5 -17.5t-7.5 -18t-17.5 -7.5q-141 0 -316 8
q-10 0 -17 7.5t-7 18t8 17.5t18 7zM178 420q-32 -33 -41 -82q-4 -21 -3 -47q140 9 286 9q4 0 12 -2h6v-1h2q-6 63 -68 117q-8 6 -9 16q-41 26 -83 31q-51 6 -95 -21q1 -12 -7 -20z" />
    <glyph glyph-name="Ebreve" unicode="&#x114;" horiz-adv-x="674" 
d="M254 911q25 -42 52 -59q23 -15 48 -12q43 4 98 54v2q-2 10 4 18.5t16 10.5q16 2 25 -11q4 -2 6 -5q8 -7 8 -17.5t-8 -17.5q-1 -1 -1 -2q-5 -34 -33 -60q-35 -33 -90 -38q-57 -5 -104 23q-54 32 -75 96q-3 10 2 19.5t15 12.5t19 -2q12 -2 18 -12zM190 643
q-12 -106 -10 -254h8l75 6q87 7 131 6q20 -1 64 -8q6 -1 10 -2q47 -7 71 -4q10 1 18.5 -5.5t9.5 -16.5t-5.5 -18.5t-16.5 -9.5q-31 -4 -85 5q-4 0 -10 2q-41 6 -58 7q-41 1 -124 -6h-1q-51 -4 -77 -5q-5 -1 -9 -1v-17q1 -28 3 -83q4 -123 4 -181h32q39 0 119 4q6 1 9 1
q74 4 115 4q65 0 116 -7q11 -2 17 -10t4.5 -18.5t-10 -16.5t-18.5 -5q-48 7 -109 7q-39 0 -112 -4q-3 0 -9 -1q-81 -4 -122 -4q-69 0 -122 8q-11 1 -17 9.5t-4 18.5q1 9 8 15t15 7v7v1v3v14v4q0 22 -2 56q0 11 -1.5 39.5t-3 56t-1.5 28.5q-2 48 -3 86q-1 3 -1 7q-1 38 -2 73
q-4 131 -1 219q1 2 1 3q-2 5 -1 9q0 11 7.5 18t17.5 6q89 -3 233 1q17 0 52 1q123 3 184 3q11 0 18 -7.5t7 -17.5t-7 -17.5t-18 -7.5q-60 0 -183 -3q-35 -1 -52 -1q-93 -3 -154 -2v-2z" />
    <glyph glyph-name="ebreve" unicode="&#x115;" horiz-adv-x="565" 
d="M212 446q2 -18 -14 -26q-21 -11 -36 -46.5t-21 -85.5q48 2 107 2q36 0 107 -1q35 -1 54 -1q-1 42 -18 76t-52 69q-5 5 -7 12q-16 6 -33 9q-46 7 -87 -8zM186 716q22 -68 91 -60q31 3 60.5 21.5t45.5 45.5q5 8 14 10.5t18 -0.5q7 1 14 -3q10 -4 13 -14t-1 -19
q-20 -40 -64 -65.5t-95 -27.5q-53 -3 -92 21q-44 28 -55 84q-2 10 4 18.5t16 10.5q19 4 27 -14q3 -4 4 -8zM269 37q46 19 83 49q41 34 53 71q4 10 13 14.5t19 1.5q14 -5 17 -20q7 2 15 -1q10 -3 14 -12.5t0 -19.5q-32 -86 -115 -121q-78 -32 -159 -3q-85 30 -126 114
q-45 93 -17 223q21 96 93 142q66 42 148 28q80 -13 133 -71q58 -65 55 -157q0 -3 -1 -7v-5q0 -11 -7 -18t-18 -7q-38 0 -114 1q-72 1 -107 1q-61 0 -109 -2q0 -60 14 -109t37 -67l3 -3q15 -10 33 -16q19 -7 38 -9q3 2 5 3z" />
    <glyph glyph-name="Edotaccent" unicode="&#x116;" horiz-adv-x="669" 
d="M418 875q0 -2 -1 -12t-2 -12q0 -7 -0.5 -11t-0.5 -12q0 -10 -7.5 -17.5t-17.5 -7.5q-6 0 -11 2q-8 -4 -17 -2q-2 0 -4 1q-6 -16 -23 -16h-1q-10 0 -17 7.5t-7 17.5v1q0 17 -8 55q-2 10 3.5 19t15.5 11q16 3 26 -10q2 1 3 1q11 3 21 -2h1q6 15 23 15h3q9 -1 15.5 -8
t6.5 -17q0 -1 -1 -3zM183 648q-9 -81 -7 -181q1 -35 3 -71q44 1 115 -4q9 0 26 -1q72 -5 108 -6q58 -1 103 5q10 2 18.5 -4.5t10 -16.5t-4.5 -18.5t-17 -9.5q-48 -7 -111 -6q-37 1 -111 6q-16 1 -25 1q-68 5 -110 4q2 -24 4 -62q1 -10 1 -14q9 -137 9 -212v-1q67 -4 139 -4
q155 -2 233 11q10 2 18.5 -4t10.5 -16t-4.5 -18.5t-16.5 -10.5q-82 -14 -241 -12q-143 1 -233 12q-10 1 -16.5 9t-5.5 19q2 12 13 18v4q6 64 4 143q-1 54 -8 140q-7 6 -8 15q-1 11 5 19v1q-7 92 -10 138q-3 77 0 138q0 4 1 8q1 9 7 15t14 8q110 17 240.5 19.5t240.5 -11.5
q10 -1 16.5 -9.5t5 -18.5t-9.5 -16.5t-18 -5.5q-184 23 -389 2v-2z" />
    <glyph glyph-name="edotaccent" unicode="&#x117;" horiz-adv-x="571" 
d="M327 618q-2 -22 -8 -32q-5 -8 -13 -12q-14 -6 -26 4q-6 4 -9 10q-2 3 -3 7q0 1 -1 3q-8 -3 -16 0.5t-13 11.5q-2 3 -3 7q-2 4 -3 12q-3 13 -7 41q-1 10 5 18.5t16 9.5q13 2 22 -8h4q3 0 5 -1q5 2 11 2h1q5 0 8 -2q7 4 15 3q8 0 14 -5q3 -3 5.5 -6.5t3.5 -7.5q3 -8 6 -29
q2 -18 -14 -26zM222 438q-3 -8 -9 -12q-49 -37 -61 -124q52 10 115 16q72 7 124 6q-5 36 -10 56q-9 34 -24 58q-4 5 -4 12q-42 20 -93 5q-19 -6 -38 -17zM180 87q59 -35 122 -27q38 11 69 31q44 29 48 56q2 10 10.5 16t18.5 4q8 -1 14 -7q15 11 30 -1q8 -6 9 -16.5t-5 -18.5
q-67 -83 -155 -107q-14 -4 -28 -6q-21 -6 -42 -8q-81 -10 -136 31q-65 48 -75 155q-2 21 -2 42q-6 3 -9 9q-5 9 -2.5 19t11.5 15q2 1 4 3q11 65 45 118q54 83 139 108q90 26 159 -27q71 -54 86 -174q8 -12 1 -25q-5 -10 -15 -13q-4 -1 -7 -2q-11 -1 -19 7q-20 5 -60 5
q-51 1 -119 -6q-69 -6 -124 -18q0 -86 28 -161z" />
    <glyph glyph-name="Eogonek" unicode="&#x118;" horiz-adv-x="667" 
d="M194 658q-7 -108 0 -271q68 7 157 9q52 1 155 1h38q10 0 17.5 -7.5t7.5 -17.5t-7.5 -17.5t-17.5 -7.5h-38q-102 0 -154 -1q-88 -2 -156 -9q0 -13 2 -41q7 -151 8 -224q25 1 105 3q17 1 28 1q100 3 150 3q77 -1 96 -12q9 -6 11.5 -16t-3 -19t-15.5 -11.5t-19 3.5v-1
q-1 1 -3 1q-6 2 -16 3q-6 0 -14 1q-3 -4 -7 -7q-44 -28 -78 -58q-20 -25 -32 -48q-13 -26 -13 -46q-1 -11 3 -20q20 -11 54 0q10 4 19 -1t12.5 -14.5t-1 -19t-14.5 -12.5q-27 -9 -49 -9q-12 1 -22 3q-15 -4 -26 7q-6 5 -10 12q-38 31 -31 76q6 35 41 75q14 15 32 32
q14 16 28 31q-35 -1 -91 -3q-11 0 -28 -1q-87 -3 -119 -3q-59 -1 -81 2q-10 1 -16 9.5t-5 18.5q1 7 5 12q0 5 1 10l1 1q0 4 2 14v3q1 31 0 81l-8 164q-2 60 -4 97q-6 142 -3 227q1 6 4 12q0 19 19 24q53 12 122 14q52 2 128 -2q22 -2 62 -4q103 -8 148 -8q11 0 18 -7
t7 -17.5t-7 -18t-18 -7.5q-47 0 -152 8q-40 2 -61 4q-100 5 -162 0v-1z" />
    <glyph glyph-name="eogonek" unicode="&#x119;" horiz-adv-x="560" 
d="M199 438q0 -9 -6 -17q-30 -31 -45 -126q6 0 11 1q48 4 127 3q36 0 91 -2l26 -1q0 62 -33 151q-44 32 -102 21q-37 -7 -69 -30zM260 -221q-6 -2 -12 -1q-59 10 -65 59q-4 33 22 80q18 33 50 72l9 9q-33 -5 -63 1q-5 0 -9 1q-72 12 -102 68q-18 35 -23 95q-1 11 -2 33
q-1 20 -2 30q-10 115 51 198q57 76 144 93q92 17 157 -42q71 -64 76 -194q0 -7 -3 -12q-1 -10 -8 -17t-17 -7q-13 0 -38 1h-24l-12 1h-14q-54 2 -89 2q-77 1 -122 -3q-12 -1 -21 -2q-1 -8 -1 -15q-3 -67 11.5 -114.5t40.5 -60.5l6 -4q4 -1 9 -2q32 -3 72 6q15 4 30 12
q33 16 59.5 42.5t39.5 55.5q4 9 13.5 12.5t19.5 -0.5q8 -3 12 -11q2 1 4 1q11 0 18 -7.5t7 -17.5v-1v-25q-1 -4 -1 -7q0 -2 -0.5 -3.5t-0.5 -3.5q-2 -4 -5 -8q-9 -11 -23 -9q-11 -11 -25 -21t-30 -18l-6 -6q-48 -46 -84 -88q-44 -53 -57 -87q-6 -16 -5 -25q1 -5 6 -8
q8 -4 25 1l6 3q24 7 39 7q10 0 17.5 -7t7.5 -17.5t-7.5 -18t-17.5 -7.5q-7 0 -23 -5q-5 -1 -7 -2q-16 -5 -28 -6h-5z" />
    <glyph glyph-name="Ecaron" unicode="&#x11a;" horiz-adv-x="679" 
d="M369 778l-6 -6q-6 -5 -13 -7q-9 -2 -18 1q-3 -4 -7 -6q-6 -3 -12 -3q-15 0 -22 13q-4 6 -15 19q-1 2 -11 14t-13 15q-23 29 -35 50l-6 12q-4 9 0 19t13 14t18 1t14 -12q1 0 2 1q14 3 29 -5q10 -5 19 -15q11 -12 26 -37q1 -2 4.5 -7.5t3.5 -6.5l3 -3q4 7 11 20q0 1 1 1
q15 28 21.5 38t12.5 15.5t12 7.5q14 5 26 -4q1 0 1 -1q8 8 18 8t17 -7q8 -7 8 -18q0 -7 -4 -14q0 -1 -1 -3q-4 -7 -11 -11q-3 -3 -6 -7q-2 -2 -4 -5q-5 -5 -7 -9q-10 -17 -16 -25q-8 -12 -15 -20q-8 -8 -15 -12q-12 -7 -23 -5zM113 711q47 -3 105 -1q36 2 106 7q66 6 99 7
q55 3 100 1q32 -2 61 -6q10 -1 16 -9.5t5 -19t-9.5 -16.5t-18.5 -5q-27 4 -56 6q-43 2 -96 -1q-32 -1 -97 -6q-71 -6 -108 -8q-17 -1 -32 -1q-6 -56 -4 -127q1 -48 6 -133q52 -5 111 -7q69 -3 210 -2h42q10 0 17.5 -7.5t7.5 -18t-7.5 -17.5t-17.5 -7h-41q-142 -1 -213 2
q-56 2 -105 6q5 -80 6 -131q1 -83 -9 -149q34 1 86 4q6 1 19 2q85 6 128 6q23 0 72 -7q4 0 6 -1q54 -7 80 -4q10 1 18 -5t9.5 -16.5t-5 -18.5t-16.5 -10q-32 -4 -93 5q-2 0 -6 1q-45 6 -65 6q-41 0 -124 -6q-13 -1 -20 -1q-57 -5 -93 -5q-52 -1 -94 4q-10 1 -16.5 9.5
t-5.5 18.5q2 13 14 19q9 56 6 128q-1 47 -11 136q-1 3 -1 10q-2 15 -3 27q-6 8 -5 18q1 4 2 7q-7 67 -8 113q-2 93 17 163q1 6 5 10q-1 3 -1 7q1 10 9 17t18 6z" />
    <glyph glyph-name="ecaron" unicode="&#x11b;" horiz-adv-x="564" 
d="M298 601q-4 -3 -8 -5l-1 -1q-1 -1 -2 -1q-11 -6 -21 -9q-9 -3 -18 -1q-13 2 -20 14q0 1 -1 2q-8 3 -13 10q-12 17 -45 56l-4 4l-3 4q-4 4 -8 9l-8 10t-6 7q-7 8 -6 18t8.5 17t18 6t17.5 -9q2 -2 8 -9q2 2 4 3q7 5 15 4q5 -1 9 -3q4 -1 8 -4q7 -7 31 -40q15 -20 19 -25h1
q0 -1 2 -2l4 -4q3 3 5 6q14 16 28 43v1q1 2 2 3q2 6 4.5 10.5t4.5 7.5q3 7 7 11q5 5 11 7q13 6 25 -2l2 -2l4 4q9 5 19 3t16 -10q6 -9 4 -18.5t-9 -15.5l-2 -2q-3 -4 -8 -10q-6 -8 -23 -31q-18 -25 -26 -35q-6 -8 -10 -13q-4 -3 -7 -6l-8 -4q-11 -3 -20 2zM208 452
q-1 -2 -3 -4q-49 -57 -58 -154q39 1 115 7q85 6 127 8v3l-3 17q-4 31 -8 48q-8 30 -22 57l-2 4q-28 19 -74 24q-40 4 -72 -10zM377 36q-56 -31 -134 -22q-96 11 -147 97q-33 56 -37 130q-10 1 -17.5 8t-7.5 17.5t7.5 17.5t17.5 7h1q9 95 62 157q64 75 163 63q80 -8 125 -55
q19 -19 35 -49q11 -21 25 -57q1 -4 5 -14l8 -20t4 -11q1 -1 1 -3q6 -7 6 -17t-7 -17.5t-18 -7.5q-67 0 -203 -9q-81 -6 -121 -8q2 -92 39 -156q28 -19 65 -23q4 -1 9 -1q7 7 17 7q47 0 81 12q37 22 67 72q6 9 16 11.5t18 -2.5q4 -2 6 -5q11 2 19 -5t9 -17.5t-5 -18.5
q-49 -59 -109 -81z" />
    <glyph glyph-name="Gcircumflex" unicode="&#x11c;" horiz-adv-x="773" 
d="M449 916q5 -10 17 -25q2 -3 11.5 -15.5t11.5 -14.5q19 -25 30 -44q5 -9 2.5 -19t-11.5 -15t-19 -2.5t-15 11.5q-1 2 -3 4q-3 -1 -7 -1q-8 0 -15 6q-15 12 -33 39l-14 22l-4 4q-5 -9 -18 -26v-1q-22 -30 -28 -46q-3 -10 -12.5 -14t-19.5 -1q-8 3 -12 10q-7 -4 -15 -4
t-15 5q-10 7 -10 20q0 8 5 15q6 8 18 25q16 26 22 34q8 12 14 22l12 16t16.5 9.5t18.5 -5.5q2 -1 4 -4q2 1 4 1l3 3q15 12 30 1q5 2 10 2q15 0 22 -12zM257 614q-79 -104 -66 -276q11 -148 79 -285v-1q54 -25 112 -21q95 7 159 84q50 60 66 148q2 57 2 81h-2q-20 -1 -71 -8
q-8 -1 -13 -1q-40 -6 -64 -7q-36 -2 -60 4q-10 3 -15.5 11.5t-3 18.5t11 15.5t18.5 3.5q29 -7 107 3q4 1 12 2q53 7 76 8q44 2 67 -10h1h4q10 1 17.5 -6.5t8.5 -17.5q1 -44 -4 -136q-1 -14 -1 -22q-1 -19 -2 -35q1 -32 0 -95q2 -21 5 -41q1 -12 -7 -21q-7 -14 -23 -14
q-8 0 -14 5q-2 -1 -4 -1q-10 -4 -19.5 0.5t-12.5 14.5q-14 43 -17 101q-11 -18 -25 -34q-78 -92 -193 -101q-116 -9 -206 73q-97 88 -121 252q-19 133 53 246q66 104 177 149q116 47 216 5q3 -2 6 -3q134 -50 176 -175q3 -10 -1.5 -19t-14.5 -12q-6 -2 -12 -1q-5 -9 -15 -12
t-19 1.5t-12 14.5q-1 4 -3 8q-1 2 -1 5q-1 1 -1 2q-1 -17 -17 -22q-10 -3 -19 1.5t-13 14.5q-5 16 -13 51q-7 30 -15 44q-10 21 -34 37q-8 6 -10 17q-4 2 -9 3q-4 2 -7 4q-76 25 -163 -10q-24 -10 -46 -23q1 -10 -5 -18z" />
    <glyph glyph-name="gcircumflex" unicode="&#x11d;" horiz-adv-x="558" 
d="M348 567q-4 -2 -9 -3q-7 -1 -9 -7q-1 -3 -8 7q-1 1 -2 3q-4 5 -6 8q0 1 -1 2q-8 3 -13.5 10t-10.5 16q-4 5 -16 24.5t-13 19.5q-3 5 -5 10q-5 -7 -12 -18q-1 -2 -2 -3l-4 -6q-1 -2 -3 -5l-6 -9q-3 -5 -5 -7l-1 -2v-1q-4 -9 -13.5 -13t-18.5 0q-3 1 -5 2q-10 -11 -13 -16
q-7 -11 -21 -11q-7 0 -14 5q-11 7 -11 20q0 8 5 14q27 40 68 107q6 9 16 11.5t19 -2.5q0 -1 1 -1l1 1q8 6 18 5t17 -9q3 -3 6 -7q6 4 13 3q5 0 11 -2q3 -1 6 -3q10 -7 19 -19q6 -8 11 -20q1 -1 4 -7.5t3 -7.5q1 -3 2 -4q1 -2 4 -7h1q0 -1 1 -2q8 -11 24 -31q0 -1 2.5 -4
t3.5 -4q3 -4 6 -7q6 -8 5 -18.5t-9 -17t-18.5 -5t-16.5 9.5q-1 0 -1 1zM176 79q75 -35 139 -5q59 28 77 84q7 24 9 59q2 21 1 68q0 38 1 57q0 18 2 34q-4 3 -6 7q-12 24 -40 44q-22 15 -60 31q-67 28 -120 -11q-7 -6 -15 -13q-37 -70 -35 -161q1 -75 33 -185l10 -6l4 -2v-1z
M139 -69q10 -30 20 -45q12 -16 22 -15q13 2 23 -8h21q111 6 153 40q6 7 12 16q-4 11 2 21q13 21 11 89q0 19 -2 47q-25 -28 -65 -47q-85 -41 -182 5q-2 1 -4 3h-1q-74 37 -97 133q-20 85 7 176q21 72 65 118q3 6 6 11q7 11 19 12h1q75 55 168 17q43 -17 70 -36q9 -7 17 -14
q-1 23 -1 41q0 10 7.5 17t18.5 7q4 0 7 -1q8 11 21 11h4q9 -2 15 -9t6 -16v-3q-2 -17 -1 -43q1 -11 3 -30q3 -31 3 -42q1 -50 -3 -120q-2 -25 -5 -69q0 -7 -1 -11q0 -7 -1 -11v-2v-18q0 -74 -7 -129q-2 -31 -5 -54q-9 -50 -31 -82q-10 -13 -23 -24q-25 -27 -59 -32
q-48 -17 -126 -21q-113 -5 -164 84q-5 9 -2 19t12 15t19 2q5 10 15 14q10 3 19 -1.5t13 -14.5z" />
    <glyph glyph-name="Gbreve" unicode="&#x11e;" horiz-adv-x="786" 
d="M245 886q-6 9 -4 19q-1 4 -1 8q-2 10 4.5 18t17 9t18.5 -5t9 -17q1 -3 1 -7q52 -49 106 -48q59 1 92 66q4 10 14 13t19 -1q1 -1 2 -1q9 -3 14.5 -11t3.5 -18q-9 -57 -56 -91q-42 -30 -97 -30t-96 30q-34 25 -47 66zM700 343q13 -40 16 -93q1 -31 -1 -91q0 -1 -1 -4
q-2 -43 -2 -64q0 -34 4 -61q2 -10 -4.5 -18t-16.5 -10q-19 -3 -27 15q-15 3 -19 18q-5 -3 -10 -4q-11 -1 -19 5.5t-9 16.5q-3 24 -3 54q-16 -19 -41 -34q-23 -15 -58 -29q-8 -3 -18 -7q-2 -1 -9 -3.5t-8 -2.5q-97 -37 -183 -13q-9 -5 -19 -1q-117 39 -171 142
q-48 93 -33 211q14 115 83 208q73 101 183 141q10 3 20 -1q6 1 13 2q109 22 193 -31q25 -15 44 -36q1 -1 3 -2q40 -26 63 -55q30 -37 30 -75q0 -10 -7.5 -17.5t-17.5 -7.5q-7 0 -14 4q-6 -11 -19 -13q-17 -2 -25 14q-9 -2 -17.5 3t-11.5 14q-15 45 -73 88q-49 35 -101 50
q-7 -9 -17 -10q-77 -10 -132 -86q-50 -70 -71 -176q-19 -100 -4 -183q14 -79 51 -97q9 -5 12 -14q87 -56 204 -12q1 0 8 2.5t9 3.5q9 4 16 6q65 26 87 58q19 28 31 71q0 22 -2 39q-3 28 -8 48q-29 -1 -66 2q-26 2 -67 8q-1 0 -13 1.5t-16 1.5q-15 2 -25 3.5t-16.5 9.5
t-5.5 18t9 16.5t18 5.5q11 -1 27 -3q3 0 15 -2t13 -2q40 -5 65 -7q70 -6 108 5q6 5 14 6q14 2 23 -9q14 -3 19 -17z" />
    <glyph glyph-name="gbreve" unicode="&#x11f;" horiz-adv-x="564" 
d="M151 726q62 -56 124 -66q9 -2 18 -2q56 25 73 78q4 10 13 14.5t19 1t14.5 -12.5t1.5 -19q-3 -7 -5 -13v-1q-26 -90 -105 -97q-21 -8 -43 -10q-53 -7 -95 19q-46 29 -62 89q-2 10 3 19t15 12q19 4 28 -12h1zM183 440q-36 -51 -52.5 -123.5t-7.5 -135.5q2 -10 11 -31
q0 -1 1 -1q6 -16 9 -25q4 -12 5 -22q32 -31 84 -42q34 -7 72.5 5t57.5 36q28 35 37 121q4 46 3 120v29v2q-3 3 -5 6q-41 59 -84 83q-36 19 -71 12q-30 -6 -57 -29q-1 -3 -3 -5zM478 506q19 -132 16 -300q-3 -211 -44 -298q-8 -18 -22 -34q-8 -9 -23 -24q-1 0 -1 -1l-1 -1
l-2 -1l-22 -22q-6 -8 -16 -10q-21 -12 -46 -18q-6 -15 -23 -15q-83 0 -143 20q-90 31 -109 105q-3 10 2.5 19t15.5 11q18 5 28 -12q12 7 24 -1q17 -9 39 -35q1 0 1.5 -0.5t0.5 -1.5q23 -26 37 -30q76 -25 125 -9q41 14 67 60q35 65 39 192q-8 -17 -19 -30q-28 -36 -80 -52
t-99 -6q-66 13 -108 53t-58 101q-14 52 -7 109.5t32 110.5q26 56 65.5 92t85.5 45q88 18 168 -68q-1 22 -1 37q0 10 7 17.5t18 7.5q4 0 8 -1q6 9 17 11q11 1 19 -5t9 -16z" />
    <glyph glyph-name="Gdotaccent" unicode="&#x120;" horiz-adv-x="779" 
d="M404 802q-8 -5 -22 2q-2 2 -4 3.5t-4 3.5q-18 -8 -32 5q-8 8 -10 22q-3 17 -1 54q1 10 9 17t18 6t17 -9q3 1 5 1h2q2 4 6 6q9 6 20 4q14 -3 19 -16q2 -5 2 -10v-1q1 -2 1 -3q12 -7 12 -22q0 -29 -1 -40q-1 -5 -2 -8q-2 -4 -5 -8q-7 -10 -20 -9q-5 0 -10 2zM704 56
q-2 4 -7 7q4 -3 7 -7zM694 331q0 -71 2 -152q2 -58 5 -91q1 -19 3 -29q1 -2 1 -4q9 -13 1 -26q-8 -14 -24 -13q0 -1 -1 -2t-2 -3q-6 -16 -23 -16q-11 1 -18 8t-7 17v1v18q-4 4 -7 9q-12 24 -17 56q-62 -63 -153.5 -86t-172.5 2q-9 -8 -21 -6q-103 17 -164 125
q-56 100 -50 225q7 134 85 229q89 108 246 129q4 0 8 -1q86 33 185 -24q47 -27 80.5 -67.5t44.5 -84.5q2 -10 -3 -19t-16 -12t-21 5q-1 -17 -17 -22q-18 -5 -29 11q0 -1 -1 -1q-10 -3 -19 2t-12 15q-23 82 -101 127q-84 28 -170 -10q-78 -35 -124 -113q-43 -88 -34 -192
q9 -111 76 -232q51 -40 121.5 -46t138 22t108.5 83q6 8 11 19q0 11 1 25v12q2 40 2 58q-1 20 -3 36q-4 -1 -9 -1q-25 0 -76 1h-2q-78 2 -116 -1q-11 -1 -19 5.5t-9 16.5t6 18t17 9q41 4 122 2h2q50 -1 74 -1q22 1 41 2q3 3 7 5q11 4 21 -1h2q11 2 19.5 -4t9.5 -16
q1 -6 0 -11q1 -3 1 -6z" />
    <glyph glyph-name="gdotaccent" unicode="&#x121;" horiz-adv-x="573" 
d="M292 663q-2 -21 -3 -27q0 -10 -7.5 -17t-17.5 -7q-14 0 -21 12q-1 -1 -3 -1q-12 -4 -22 2q-7 4 -11 11q-7 11 -12 40q-1 7 -3 22q0 7 -1 11q-1 10 5.5 18t16.5 9q19 2 26 -14h1q6 5 14 5q7 7 17 7t17.5 -7.5t7.5 -17.5v-1v-18q0 -2 1 -7q2 -11 -5 -20zM145 -80
q0 -17 5 -26q4 -5 16 -14l3 -2l2 -2q17 -12 26 -24q12 -2 23 -1q8 1 26 3q56 7 81 16q24 8 42 24q28 34 46 79q7 26 10 59q5 38 5 86q-25 -59 -85 -91q-73 -39 -159 -24q-48 9 -82 41t-51 83q-30 89 -4 199q27 111 93 166q80 68 176 15q1 -1 15.5 -8.5t18.5 -10.5
q29 -16 47 -32q5 -4 10 -9q-4 41 -5 51t6 18t17 9q11 1 19 -6q7 10 20 10q10 0 17.5 -7t7.5 -17q1 -31 6 -111q7 -107 7 -167q0 -124 -22 -211q-8 -31 -19 -58q-12 -45 -33 -72q-12 -15 -25 -27q-9 -11 -19 -21q-9 -9 -22 -7l-20 -8q-20 -8 -46 -12q-16 -3 -46 -6
q-18 -2 -26 -3q-17 -2 -35 1q-15 -5 -26 6q-32 11 -60.5 33.5t-45.5 51.5q-5 9 -2.5 19t11.5 15q14 9 28 -2q2 9 9 15t16 5q11 0 18 -7.5t6 -18.5zM175 451q-25 -42 -39 -100t-11 -115q5 -131 87 -180q4 -3 6 -6q57 -4 104 21q59 32 72 96q3 17 5 37q2 24 2 72q-3 17 -8 38
q-4 17 -11 46l-2 8q-1 5 -2 8q-2 9 -4 15q-2 10 2 18q-16 17 -49 36q-4 2 -18 9.5t-15 8.5q-63 35 -116 -5q0 -4 -3 -7z" />
    <glyph glyph-name="Gcommaaccent" unicode="&#x122;" horiz-adv-x="773" 
d="M390 -173q-7 -2 -14 -1q-1 -2 -3 -4q-8 -10 -20 -10q-16 0 -24 13q-4 8 -5 22q-2 20 3 62q2 10 10 16.5t18 4.5q5 0 9 -2h1q12 0 20 -10q5 4 11 5q8 12 21 12q2 0 4 -1q9 -1 15 -8t6 -16v-4q-2 -17 -2 -55v-40q-2 -45 -16 -77q-18 -43 -59 -74q-8 -6 -18.5 -4.5
t-16.5 9.5t-4.5 18.5t9.5 16.5q30 23 43 53q10 24 12 61v13zM389 645q-73 -3 -133 -55q-56 -48 -89 -128q-16 -39 -24 -81q-4 -65 14 -136q28 -114 116 -164q79 -44 175 -23q95 20 151 91q7 8 12 16q-1 40 -1 68v19q-5 33 -12 66q-29 0 -70 2q-10 0 -30 1q-70 3 -104 2
q-10 0 -17.5 7t-8 17.5t7 18t17.5 7.5q35 1 107 -2q20 -1 30 -1q91 -4 144 5q10 1 18.5 -5t9.5 -16q3 -14 -8 -23q3 -6 4 -12q7 -66 5 -168v-48q-1 -55 -1 -82q0 -10 -7.5 -17.5t-17.5 -7.5t-17 7q-3 -1 -6 -1q-17 0 -23 16q-17 6 -17 23v24.5v24.5q-64 -62 -156 -81
q-48 -11 -96 -6q-11 -11 -25 -6q-16 5 -31 11q-10 -2 -18 3q-2 1 -4 2.5t-21.5 12.5t-24.5 14q-24 14 -41 27q-126 88 -165 213q-32 101 5 196q40 103 155 180q49 33 82 46q51 22 99 18q5 0 9 -2q75 9 138 -19q24 -11 45 -26q24 -15 45 -32q73 -61 73 -127q0 -10 -7 -17
t-16 -8q-6 -7 -15 -9q-17 -4 -27 10q-4 -14 -19 -16q-10 -2 -18.5 4t-10.5 16q-10 63 -64 116q-47 47 -96 48q-6 -13 -21 -13z" />
    <glyph glyph-name="gcommaaccent" unicode="&#x123;" horiz-adv-x="574" 
d="M406 288q-8 25 -14 65q-1 7 -3 22q-3 23 -5 34q-1 4 -1 8l-10 12q-25 28 -45 34q-93 31 -153 -30q-57 -58 -62 -159q-6 -100 43 -158q53 -62 151 -33q42 13 66 54q21 38 25 92q2 22 8 59zM325 822q-31 -25 -44 -61q-7 -19 -8 -39h1q4 0 8 -2q5 3 11 3h3q9 -1 15 -7.5
t7 -14.5q9 -8 9 -20q0 -31 -2 -46q-1 -4 -3 -8q-2 -6 -6 -11q-14 -14 -31 -5q-2 1 -3 2q-13 -3 -23 6q-7 -16 -24 -16h-2q-10 1 -16.5 8.5t-6.5 16.5v3q1 5 1 19q0 7 1 11v15q2 12 12 19q-1 2 -1 5q-3 39 11 78q18 50 60 83q8 7 18.5 5.5t17 -9.5t5 -18t-9.5 -17zM486 496
q0 -7 2 -28l4 -42l2 -21q11 -123 11 -208q-1 -131 -26 -216q-34 -111 -111 -150q-9 -4 -19 -1q-5 -7 -14 -10q-89 -22 -154 -11q-95 16 -127 100q-3 10 1 19.5t14 12.5q14 5 25 -4q17 7 28 -8q18 -24 63 -45q46 -21 71 -17q1 0 5.5 1t5.5 1q45 8 67 16q31 11 54 31
q30 27 40 109q6 51 4 123q-7 -19 -16 -35q-34 -60 -95 -78q-36 -10 -68 -11q-11 -13 -28 -8q-7 3 -27 5h-4q-17 2 -27 5q-18 5 -30 14q-64 44 -90 117t-10 154q16 80 68 138t127 76q9 2 17 -3q45 5 95 -11q31 -11 61 -44q-1 18 -2 31q0 10 7 18t17 8q13 1 21 -9q5 4 11 4
q10 1 18 -6t9 -17z" />
    <glyph glyph-name="Hcircumflex" unicode="&#x124;" horiz-adv-x="720" 
d="M446 746q-2 -1 -4 -1q-6 0 -12 3q-4 2 -8 6q-13 10 -31 31q-17 20 -27 38q-11 -11 -21 -20l-16 -16q-22 -22 -31 -37q-8 -11 -21 -11q-8 0 -14 5q-11 7 -11 20q0 8 4 15q11 15 26 41q1 3 7.5 14t6.5 12q9 16 15 26l8 12q6 9 16 11t19 -4q3 -2 6 -6l1 1l2 2q7 6 17 6
q6 0 11 -3q10 4 20 0q5 -2 10 -6q18 -11 30 -32q7 -11 14 -33v-2q1 -1 1 -2q10 -29 18 -35.5t9.5 -16.5t-4.5 -18.5t-16.5 -10t-18.5 4.5zM647 703q-8 -140 -3 -374q1 -22 2 -65q5 -168 5 -252q0 -10 -7.5 -17.5t-17.5 -7.5t-17 7q-6 -4 -13 -4q-5 0 -9 2q-7 -6 -16 -6
q-11 0 -18 7.5t-7 17.5q0 74 -4 222q-2 85 -2 125q-18 0 -74 2q-61 2 -98 2q-136 2 -198 -9l2 -24q1 -22 4 -64q11 -170 11 -254q0 -10 -7 -17.5t-18 -7.5q-9 0 -16 7q-4 -2 -8 -2q-13 0 -20 11q-7 -6 -17 -6t-17.5 7t-7.5 18q0 93 -7 283q-1 34 -2 51q-8 221 -3 350
q0 11 8 18t18 6q13 0 20 -11q9 7 20 5q8 -2 13 -7q5 2 10 1q10 -1 16.5 -9.5t5.5 -18.5q-10 -79 -10 -178q0 -49 3 -108q66 11 201 9q37 0 98 -2q54 -2 72 -2q-2 171 9 297q1 10 9 16.5t18 5.5h5q6 4 13 4q8 0 15 -5q7 4 15 3q10 0 17 -8t7 -18z" />
    <glyph glyph-name="hcircumflex" unicode="&#x125;" horiz-adv-x="570" 
d="M423 819q0 -1 1 -1v-1q7 -16 10 -18q9 -7 10.5 -17t-5.5 -18q-4 -6 -11 -9q-5 -5 -12 -7h-6q-15 0 -22 13q-10 1 -17 8l-6 8q-4 6 -9 16q-3 5 -7 13q-1 0 -2 2.5t-3 6t-2 4.5q-11 21 -18 30q-2 3 -4 4q-2 -1 -5 -4q-12 -9 -28 -26q-22 -25 -50 -61q-8 -10 -20 -10
q-8 0 -15 5q-10 7 -10 20q0 8 5 15q36 48 62 106q4 10 14 14t19 -1q7 -3 12 -10q11 5 21.5 4t19.5 -7h6q14 0 21 -11q1 -1 3.5 -5l5 -8t3.5 -4q7 -11 12 -19q10 -2 15 -10q7 -10 12 -22zM343 511q94 -19 132 -112q27 -67 26 -181q0 -37 -4 -101q-4 -67 -4 -90
q0 -11 -7.5 -18t-17.5 -7q-15 0 -22 13q-7 -11 -21 -11q-10 0 -17.5 7t-7.5 18v9v3v9v4v4v1v2v1h1q1 12 1 16q4 102 -2 173q-9 134 -48 183q-19 25 -46 25q-36 -1 -88 -39q-30 -21 -51 -69q-14 -32 -20 -66q1 -9 2 -23l9 -123q4 -68 4 -123q0 -10 -7.5 -17.5t-17.5 -7.5
q-18 0 -24 17q-7 -6 -16 -6q-10 0 -17.5 7t-7.5 18q0 76 -6 236q-2 50 -3 76q-8 227 5 363q1 10 9 16.5t18 5.5q11 -1 18 -9q8 5 17 3q10 -2 16 -10.5t4 -18.5q-14 -79 -14 -178q0 -48 3 -106q22 35 49 55q65 48 117 49q10 0 18 -2q9 7 20 4z" />
    <glyph glyph-name="Hbar" unicode="&#x126;" horiz-adv-x="787" 
d="M545 556h-34q-97 1 -145 1q-110 1 -193 -2q-1 -16 -2 -34q-2 -49 0 -111q75 12 192 8q29 0 82 -3q76 -3 107 -3q-1 22 -2 49q-3 52 -5 95zM653 605q19 -1 40 -1q10 0 17.5 -7t7.5 -17.5t-7.5 -18t-17.5 -7.5q-22 0 -41 1q-1 -32 -1 -66q1 -73 4 -202q1 -7 1 -21
q5 -160 5 -240q0 -11 -7.5 -18t-17.5 -7q-9 0 -15 5q-4 -1 -8 -1q-9 0 -16 6q-5 -8 -14 -11t-17 0q-10 4 -14 13.5t0 19.5q8 22 9 120q0 78 -6 208q-33 1 -112 4q-53 3 -81 4q-116 3 -189 -9q1 -16 2 -33q2 -36 6 -94q5 -85 7 -115q3 -61 3 -101q0 -10 -7 -17.5t-17.5 -7.5
t-18 7.5t-7.5 17.5v8h-2q-7 -12 -22 -12h-4q-9 2 -15 9t-6 16q0 1 1 2l-2 2q-1 3 -1 6q-2 10 4 18q0 1 1 3q0 24 -3 65q-1 27 -5 71l-7 82q-4 55 -7 92q-7 104 -7 172q-33 -2 -64 -5q-11 0 -19 6.5t-8.5 17t6 18t17.5 8.5q34 3 69 5q4 78 20 117q5 9 14.5 13t18.5 -1
q12 -5 15 -17q6 2 12 1q11 -1 17 -10q7 1 13 -1q10 -4 14.5 -13t1.5 -19q-9 -27 -15 -65q82 2 188 1q49 0 145 -1h31q-3 67 -3 93q0 11 7 18t18 7q9 0 16 -5.5t8 -14.5q10 14 26 11q3 -1 5 -1q6 4 14 3q11 0 17.5 -8t6.5 -18q-3 -42 -4 -86z" />
    <glyph glyph-name="hbar" unicode="&#x127;" horiz-adv-x="554" 
d="M143 694q-1 -26 -1 -59q105 -2 183 14q10 2 18.5 -4t10.5 -16t-3.5 -18.5t-15.5 -10.5q-83 -17 -192 -15q0 -9 1 -19q1 -44 6 -131q12 16 26 29q48 48 95 51q31 13 59 11q49 -3 83 -50q48 -66 63 -223q6 -53 7 -118q1 -38 1 -92v-21q0 -11 -7.5 -18t-17.5 -7t-17 6
q-19 5 -19 25v46q2 99 -3 156q-8 110 -39 168q-34 65 -99 67q-17 -8 -36 -22q-11 -9 -24 -4q-5 -5 -11 -10q-32 -32 -52 -71q-2 -4 -5 -7q5 -112 5 -182q-1 -106 -14 -171q-2 -10 -10.5 -15.5t-18.5 -3.5q-15 3 -20 17q-4 -2 -9 -2q-4 0 -8 2q-17 5 -17 23v3v3q0 5 2 10l2 4
q0 1 1 3q7 39 7 129q-1 77 -8 232q-1 13 -2 33q-6 106 -8 153q-14 1 -29 2q-10 1 -17 9t-6 18.5t9 17t18 5.5l24 -2q-1 31 -1 60q0 11 7 18t18 7q14 0 21 -12q8 9 20 8q10 0 17 -7.5t6 -18.5z" />
    <glyph glyph-name="Itilde" unicode="&#x128;" horiz-adv-x="451" 
d="M47 810q42 104 99 110q25 2 52 -14q14 -8 40 -28q13 -11 20 -16q9 -3 16 -4q14 -3 24 1q11 4 22 17q6 11 12 25q4 10 14 14t19 -1q15 -6 15 -23q3 -10 -2 -19q-9 -14 -17 -25q-13 -22 -28 -34q-27 -22 -60 -14q-17 4 -36 17q-1 0 -2 1q-5 2 -14 5q-33 12 -51 12
q-27 2 -54 -16q-6 -4 -13 -4l-10 -22q-4 -10 -13.5 -14t-19 0t-13.5 13.5t0 18.5zM273 699q-10 -138 -2 -367q1 -20 2 -61q7 -165 7 -248q0 -11 -7.5 -18t-17.5 -7q-19 0 -24 17h-4q-3 0 -6 1q-6 -8 -15 -10q-10 -2 -19 4t-11 16q-29 145 -28 340q0 127 16 338q0 11 8 17.5
t18 5.5q10 0 17 -8q6 3 12 2q6 0 11 -3q8 9 21 8q10 0 16.5 -8t5.5 -19z" />
    <glyph glyph-name="itilde" unicode="&#x129;" horiz-adv-x="438" 
d="M71 642q-14 -9 -28 0q-9 5 -11 15t3 19q8 13 16 23q31 51 75 57q21 3 46 -5q13 -4 40 -15q28 -11 41 -14q19 -5 33 0q12 4 24 15q3 6 6 13q4 10 13.5 14t18.5 0q7 -2 11 -7q8 -7 9 -17t-5 -18t-12 -14q-28 -53 -72 -58q-20 -3 -46 6q-13 4 -40 16q-39 18 -57 19
q-14 0 -27 -7q-8 -5 -17 -14q-3 -7 -7 -15q-4 -9 -14 -13zM227 499q7 -228 7 -485q0 -10 -7.5 -17.5t-17.5 -7.5q-14 0 -21 12q-4 -1 -9 -1q-10 0 -17.5 7t-7.5 18q0 69 -4 171q-1 22 -3 67q-7 160 -7 241q0 11 7.5 18t17.5 7q14 0 21 -11q7 5 15 5q10 0 17.5 -7t8.5 -17z
" />
    <glyph glyph-name="Imacron" unicode="&#x12a;" horiz-adv-x="426" 
d="M38 820q59 8 157 2q11 -1 32 -2q71 -5 105 -5q10 0 17.5 -7.5t7.5 -17.5t-7.5 -17.5t-17.5 -7.5q-36 0 -109 5q-21 1 -31 2q-93 5 -147 -2q-11 -1 -19 5t-9.5 16.5t5 18.5t16.5 10zM250 704q5 -144 6 -344v-203q-1 -94 -1 -141q0 -10 -7 -17.5t-18 -7.5t-19 9
q-7 -7 -16 -7q-12 0 -19 9q-4 -1 -9 -1q-10 0 -17.5 7t-7.5 18q0 80 -2 243q-1 65 -2 98q-2 205 2 337q1 11 8.5 18t17.5 6q8 0 14 -4q8 15 26 12q9 -1 15 -8h3q11 1 18.5 -6t7.5 -18z" />
    <glyph glyph-name="imacron" unicode="&#x12b;" horiz-adv-x="440" 
d="M58 641q123 5 287 5q10 0 17.5 -7t7.5 -17.5t-7.5 -18t-17.5 -7.5q-163 0 -284 -5q-11 0 -18.5 7t-8 17t6.5 18t17 8zM231 505q1 -24 0 -70q-1 -21 -4 -90q-2 -48 -3 -78q-3 -86 0 -140q3 -66 14 -94q4 -10 0 -19.5t-14 -13.5q-16 -6 -27 7q-8 -4 -16 -3q-10 1 -16.5 9
t-4.5 19q7 55 5 126q-1 43 -8 130v11q-5 68 -7 106q-2 60 1 108q1 10 9 17t18 6q11 0 18 -9q4 2 9 2q10 1 17.5 -6t8.5 -18z" />
    <glyph glyph-name="Ibreve" unicode="&#x12c;" horiz-adv-x="379" 
d="M46 921q27 -43 76 -62q19 -7 37 -8q36 10 69 36l1 1q1 1 1 2q10 13 16 19q10 12 20 16q6 8 15.5 9t17.5 -5t9.5 -16.5t-4.5 -18.5q-17 -23 -39 -41q-4 -6 -8 -10q-8 -11 -16 -16q-34 -25 -77 -26q-9 -2 -18 -3q-53 -6 -92 21.5t-55 84.5q-3 10 2 19t15 12q9 2 17.5 -1.5
t12.5 -12.5zM198 702q3 -46 3 -103l-3 -102v-5q-5 -105 -3 -160q2 -43 7 -129q4 -50 5 -75q4 -65 4 -114q0 -10 -7.5 -17.5t-17.5 -7.5q-15 0 -22 12q-7 -5 -16 -5q-6 0 -11 2q-5 -1 -9 -1q-11 0 -18 7t-7 18q0 36 -2 123q-1 30 -2 83l-1 46q-1 28 -1 47q-2 77 -3 133
q-3 155 -3 254q0 10 7.5 17.5t17.5 7.5q13 0 20 -10q6 3 13 2q6 0 11 -3q5 3 12 3q10 1 18 -6t8 -17z" />
    </font>
</defs>
</svg>
